%FSTAX23Y23*%
%MOIN*%
%SFA1B1*%

%IPPOS*%
%ADD9500C,0.028000*%
%ADD9501C,0.030000*%
%ADD9502C,0.039370*%
%ADD9503C,0.043310*%
%ADD9504C,0.125980*%
%LNwordclock_v20-1*%
%LPD*%
G54D9500*
X02573Y-02997D03*
X03042Y-03062D03*
X0199Y-03D03*
X0127Y-03057D03*
X01345Y-03535D03*
X01062Y-03633D03*
X0164Y-03723D03*
X0173Y-03737D03*
X00603Y-03723D03*
X00553Y-03804D03*
X00208Y-0364D03*
X-00195Y-0358D03*
X-005Y-03062D03*
X0031Y-0306D03*
X0068Y-03062D03*
X-01091D03*
X-01682D03*
X-0202Y-02935D03*
X-0212D03*
X-0207Y-0284D03*
X-02272Y-03057D03*
X-02346Y-0364D03*
X-02121Y-03723D03*
X-02172Y-03805D03*
X-01816Y-0364D03*
X-02981D03*
X-03286Y-03723D03*
X-03386D03*
X-03337Y-03805D03*
X-02863Y-03062D03*
X-0212Y01829D03*
X-0207Y0241D03*
X-0202Y03005D03*
G54D9501*
X-03002Y-02657D03*
X-02902D03*
X-02412D03*
Y-02066D03*
X-02902D03*
X-03002D03*
Y-01476D03*
X-02902D03*
X-02412D03*
X-02312D03*
X-01821D03*
X-01721D03*
X-01231D03*
X-01131D03*
Y-02066D03*
X-01231D03*
X-01721D03*
X-01821D03*
X-02312D03*
Y-02657D03*
X-01821D03*
X-01721D03*
X-01231D03*
X-01131D03*
X-0064D03*
X-0054D03*
X-0005D03*
X0005D03*
X0054D03*
X0064D03*
Y-02066D03*
X0054D03*
X0005D03*
X-0005D03*
X-0054D03*
X-0064D03*
Y-01476D03*
X-0054D03*
X-0005D03*
X0005D03*
X0054D03*
X0064D03*
X01131D03*
X01231D03*
X01721D03*
X01821D03*
Y-02066D03*
X01721D03*
X01231D03*
X01131D03*
Y-02657D03*
X01231D03*
X01721D03*
X01821D03*
X02312D03*
X02412D03*
X02902D03*
X03002D03*
Y-02066D03*
X02902D03*
X02412D03*
X02312D03*
Y-01476D03*
X02412D03*
X02902D03*
X03002D03*
Y-00885D03*
X02902D03*
X02412D03*
X02312D03*
Y-00295D03*
X02412D03*
X02902D03*
X03002D03*
Y00295D03*
X02902D03*
X02412D03*
X02312D03*
X01821D03*
X01721D03*
X01231D03*
X01131D03*
Y-00295D03*
X01231D03*
X01721D03*
X01821D03*
Y-00885D03*
X01721D03*
X01231D03*
X01131D03*
X0064D03*
X0054D03*
X0005D03*
X-0005D03*
X-0054D03*
X-0064D03*
Y-00295D03*
X-0054D03*
X-0005D03*
X0005D03*
X0054D03*
X0064D03*
Y00295D03*
X0054D03*
X0005D03*
X-0005D03*
X-0054D03*
X-0064D03*
X-01131D03*
X-01231D03*
X-01721D03*
X-01821D03*
X-02312D03*
Y-00295D03*
X-01821D03*
X-01721D03*
X-01231D03*
X-01131D03*
Y-00885D03*
X-01231D03*
X-01721D03*
X-01821D03*
X-02312D03*
X-02412D03*
X-02902D03*
X-03002D03*
Y-00295D03*
X-02902D03*
X-02412D03*
Y00295D03*
X-02902D03*
X-03002D03*
Y00885D03*
X-02902D03*
X-02412D03*
Y01476D03*
X-02902D03*
X-03002D03*
X-02312D03*
X-01821D03*
X-01721D03*
X-01231D03*
X-01131D03*
Y00885D03*
X-01231D03*
X-01721D03*
X-01821D03*
X-02312D03*
X-0064D03*
X-0054D03*
X-0005D03*
X0005D03*
X0054D03*
X0064D03*
Y01476D03*
X0054D03*
X0005D03*
X-0005D03*
X-0054D03*
X-0064D03*
X01131D03*
X01231D03*
X01721D03*
X01821D03*
Y00885D03*
X01721D03*
X01231D03*
X01131D03*
X02312D03*
X02412D03*
X02902D03*
X03002D03*
Y01476D03*
X02902D03*
X02412D03*
X02312D03*
Y02066D03*
X02412D03*
X02902D03*
X03002D03*
Y02657D03*
X02902D03*
X02412D03*
X02312D03*
X01821D03*
X01721D03*
X01231D03*
X01131D03*
Y02066D03*
X01231D03*
X01721D03*
X01821D03*
X0064D03*
X0054D03*
X0005D03*
X-0005D03*
X-0054D03*
X-0064D03*
Y02657D03*
X-0054D03*
X-0005D03*
X0005D03*
X0054D03*
X0064D03*
X-01131D03*
X-01231D03*
X-01721D03*
X-01821D03*
X-02312D03*
Y02066D03*
X-01821D03*
X-01721D03*
X-01231D03*
X-01131D03*
X-02412D03*
X-02902D03*
X-03002D03*
Y02657D03*
X-02902D03*
X-02412D03*
G54D9502*
X-00797Y-03474D03*
Y-03297D03*
X-00541D03*
Y-03474D03*
X-01053D03*
Y-03297D03*
X-01309D03*
Y-03474D03*
G54D9503*
X02352Y-03782D03*
X02452D03*
X02552D03*
X02652D03*
X02752D03*
X02852D03*
X02952D03*
X03052D03*
X03152D03*
X03252D03*
X03352D03*
Y-03182D03*
X03252D03*
X03152D03*
X03052D03*
X02952D03*
X02852D03*
X02752D03*
X02652D03*
X02552D03*
X02452D03*
X02352D03*
X02252D03*
X02152D03*
X02052D03*
X01952D03*
Y-03782D03*
X02052D03*
X02152D03*
X02252D03*
G54D9504*
X03385Y-02755D03*
X0Y-03031D03*
X-03385Y-02755D03*
X03385Y00118D03*
X-03385D03*
X03385Y0307D03*
X0D03*
X-03385D03*
M02*