%FSTAX23Y23*%
%MOIN*%
%SFA1B1*%

%IPPOS*%
%ADD10O,0.027560X0.098430*%
%ADD11R,0.023620X0.033470*%
%ADD12R,0.059060X0.039370*%
%LNwordclock_v20-1*%
%LPD*%
G54D10*
X-03436Y-03631D03*
X-03386D03*
X-03336D03*
X-03286D03*
X-03236D03*
X-03186D03*
X-03136D03*
X-03086D03*
X-03436Y-03438D03*
X-03386D03*
X-03336D03*
X-03286D03*
X-03236D03*
X-03186D03*
X-03136D03*
X-03086D03*
X00453Y-03631D03*
X00503D03*
X00553D03*
X00603D03*
X00653D03*
X00703D03*
X00753D03*
X00803D03*
X00453Y-03438D03*
X00503D03*
X00553D03*
X00603D03*
X00653D03*
X00703D03*
X00753D03*
X00803D03*
X-01921D03*
X-01971D03*
X-02021D03*
X-02071D03*
X-02121D03*
X-02171D03*
X-02221D03*
X-02271D03*
X-01921Y-03631D03*
X-01971D03*
X-02021D03*
X-02071D03*
X-02121D03*
X-02171D03*
X-02221D03*
X-02271D03*
G54D11*
X-029Y-02912D03*
X-02863Y-02997D03*
X-02937D03*
X00275Y-02912D03*
X00312Y-02997D03*
X00238D03*
X-02309Y-02912D03*
X-02272Y-02997D03*
X-02347D03*
X-01719Y-02912D03*
X-01682Y-02997D03*
X-01756D03*
X-01128Y-02912D03*
X-01091Y-02997D03*
X-01166D03*
X-00538Y-02912D03*
X-005Y-02997D03*
X-00575D03*
X00642Y-02912D03*
X0068Y-02997D03*
X00605D03*
X01233Y-02912D03*
X0127Y-02997D03*
X01195D03*
X01823Y-02912D03*
X01861Y-02997D03*
X01786D03*
X02414Y-02912D03*
X02451Y-02997D03*
X02377D03*
X03005Y-02907D03*
X03042Y-02992D03*
X02967D03*
G54D12*
X-03002Y-02426D03*
Y-023D03*
Y-01836D03*
Y-0171D03*
Y-01246D03*
Y-0112D03*
Y-00656D03*
Y-0053D03*
Y-00061D03*
Y00064D03*
Y00523D03*
Y00649D03*
Y01113D03*
Y01239D03*
Y01703D03*
Y01829D03*
Y02293D03*
Y02419D03*
Y02883D03*
Y03009D03*
M02*