%FSTAX23Y23*%
%MOIN*%
%SFA1B1*%

%IPPOS*%
%ADD36C,0.002000*%
%LNwordclock_v20-1*%
%LPD*%
G54D36*
X-02917Y02657D02*
X-02887D01*
X-02902Y02642D02*
Y02672D01*
X-03017Y02657D02*
X-02987D01*
X-03002Y02642D02*
Y02672D01*
X-02427Y02657D02*
X-02397D01*
X-02412Y02642D02*
Y02672D01*
X-02327Y02657D02*
X-02297D01*
X-02312Y02642D02*
Y02672D01*
X-01736Y02657D02*
X-01706D01*
X-01721Y02642D02*
Y02672D01*
X-01836Y02657D02*
X-01806D01*
X-01821Y02642D02*
Y02672D01*
X-01246Y02657D02*
X-01216D01*
X-01231Y02642D02*
Y02672D01*
X-01146Y02657D02*
X-01116D01*
X-01131Y02642D02*
Y02672D01*
X-00555Y02657D02*
X-00525D01*
X-0054Y02642D02*
Y02672D01*
X-00655Y02657D02*
X-00625D01*
X-0064Y02642D02*
Y02672D01*
X-00065Y02657D02*
X-00035D01*
X-0005Y02642D02*
Y02672D01*
X00035Y02657D02*
X00065D01*
X0005Y02642D02*
Y02672D01*
X00625Y02657D02*
X00655D01*
X0064Y02642D02*
Y02672D01*
X00525Y02657D02*
X00555D01*
X0054Y02642D02*
Y02672D01*
X01116Y02657D02*
X01146D01*
X01131Y02642D02*
Y02672D01*
X01216Y02657D02*
X01246D01*
X01231Y02642D02*
Y02672D01*
X01806Y02657D02*
X01836D01*
X01821Y02642D02*
Y02672D01*
X01706Y02657D02*
X01736D01*
X01721Y02642D02*
Y02672D01*
X02297Y02657D02*
X02327D01*
X02312Y02642D02*
Y02672D01*
X02397Y02657D02*
X02427D01*
X02412Y02642D02*
Y02672D01*
X02987Y02657D02*
X03017D01*
X03002Y02642D02*
Y02672D01*
X02887Y02657D02*
X02917D01*
X02902Y02642D02*
Y02672D01*
X-03017Y02066D02*
X-02987D01*
X-03002Y02051D02*
Y02081D01*
X-02917Y02066D02*
X-02887D01*
X-02902Y02051D02*
Y02081D01*
X-02327Y02066D02*
X-02297D01*
X-02312Y02051D02*
Y02081D01*
X-02427Y02066D02*
X-02397D01*
X-02412Y02051D02*
Y02081D01*
X-01836Y02066D02*
X-01806D01*
X-01821Y02051D02*
Y02081D01*
X-01736Y02066D02*
X-01706D01*
X-01721Y02051D02*
Y02081D01*
X-01146Y02066D02*
X-01116D01*
X-01131Y02051D02*
Y02081D01*
X-01246Y02066D02*
X-01216D01*
X-01231Y02051D02*
Y02081D01*
X-00655Y02066D02*
X-00625D01*
X-0064Y02051D02*
Y02081D01*
X-00555Y02066D02*
X-00525D01*
X-0054Y02051D02*
Y02081D01*
X00035Y02066D02*
X00065D01*
X0005Y02051D02*
Y02081D01*
X-00065Y02066D02*
X-00035D01*
X-0005Y02051D02*
Y02081D01*
X00525Y02066D02*
X00555D01*
X0054Y02051D02*
Y02081D01*
X00625Y02066D02*
X00655D01*
X0064Y02051D02*
Y02081D01*
X01216Y02066D02*
X01246D01*
X01231Y02051D02*
Y02081D01*
X01116Y02066D02*
X01146D01*
X01131Y02051D02*
Y02081D01*
X01706Y02066D02*
X01736D01*
X01721Y02051D02*
Y02081D01*
X01806Y02066D02*
X01836D01*
X01821Y02051D02*
Y02081D01*
X02397Y02066D02*
X02427D01*
X02412Y02051D02*
Y02081D01*
X02297Y02066D02*
X02327D01*
X02312Y02051D02*
Y02081D01*
X02887Y02066D02*
X02917D01*
X02902Y02051D02*
Y02081D01*
X02987Y02066D02*
X03017D01*
X03002Y02051D02*
Y02081D01*
X-02917Y01476D02*
X-02887D01*
X-02902Y01461D02*
Y01491D01*
X-03017Y01476D02*
X-02987D01*
X-03002Y01461D02*
Y01491D01*
X-02427Y01476D02*
X-02397D01*
X-02412Y01461D02*
Y01491D01*
X-02327Y01476D02*
X-02297D01*
X-02312Y01461D02*
Y01491D01*
X-01736Y01476D02*
X-01706D01*
X-01721Y01461D02*
Y01491D01*
X-01836Y01476D02*
X-01806D01*
X-01821Y01461D02*
Y01491D01*
X-01246Y01476D02*
X-01216D01*
X-01231Y01461D02*
Y01491D01*
X-01146Y01476D02*
X-01116D01*
X-01131Y01461D02*
Y01491D01*
X-00555Y01476D02*
X-00525D01*
X-0054Y01461D02*
Y01491D01*
X-00655Y01476D02*
X-00625D01*
X-0064Y01461D02*
Y01491D01*
X-00065Y01476D02*
X-00035D01*
X-0005Y01461D02*
Y01491D01*
X00035Y01476D02*
X00065D01*
X0005Y01461D02*
Y01491D01*
X00625Y01476D02*
X00655D01*
X0064Y01461D02*
Y01491D01*
X00525Y01476D02*
X00555D01*
X0054Y01461D02*
Y01491D01*
X01116Y01476D02*
X01146D01*
X01131Y01461D02*
Y01491D01*
X01216Y01476D02*
X01246D01*
X01231Y01461D02*
Y01491D01*
X01806Y01476D02*
X01836D01*
X01821Y01461D02*
Y01491D01*
X01706Y01476D02*
X01736D01*
X01721Y01461D02*
Y01491D01*
X02297Y01476D02*
X02327D01*
X02312Y01461D02*
Y01491D01*
X02397Y01476D02*
X02427D01*
X02412Y01461D02*
Y01491D01*
X02987Y01476D02*
X03017D01*
X03002Y01461D02*
Y01491D01*
X02887Y01476D02*
X02917D01*
X02902Y01461D02*
Y01491D01*
X-03017Y00885D02*
X-02987D01*
X-03002Y0087D02*
Y009D01*
X-02917Y00885D02*
X-02887D01*
X-02902Y0087D02*
Y009D01*
X-02327Y00885D02*
X-02297D01*
X-02312Y0087D02*
Y009D01*
X-02427Y00885D02*
X-02397D01*
X-02412Y0087D02*
Y009D01*
X-01836Y00885D02*
X-01806D01*
X-01821Y0087D02*
Y009D01*
X-01736Y00885D02*
X-01706D01*
X-01721Y0087D02*
Y009D01*
X-01146Y00885D02*
X-01116D01*
X-01131Y0087D02*
Y009D01*
X-01246Y00885D02*
X-01216D01*
X-01231Y0087D02*
Y009D01*
X-00655Y00885D02*
X-00625D01*
X-0064Y0087D02*
Y009D01*
X-00555Y00885D02*
X-00525D01*
X-0054Y0087D02*
Y009D01*
X00035Y00885D02*
X00065D01*
X0005Y0087D02*
Y009D01*
X-00065Y00885D02*
X-00035D01*
X-0005Y0087D02*
Y009D01*
X00525Y00885D02*
X00555D01*
X0054Y0087D02*
Y009D01*
X00625Y00885D02*
X00655D01*
X0064Y0087D02*
Y009D01*
X01216Y00885D02*
X01246D01*
X01231Y0087D02*
Y009D01*
X01116Y00885D02*
X01146D01*
X01131Y0087D02*
Y009D01*
X01706Y00885D02*
X01736D01*
X01721Y0087D02*
Y009D01*
X01806Y00885D02*
X01836D01*
X01821Y0087D02*
Y009D01*
X02397Y00885D02*
X02427D01*
X02412Y0087D02*
Y009D01*
X02297Y00885D02*
X02327D01*
X02312Y0087D02*
Y009D01*
X02887Y00885D02*
X02917D01*
X02902Y0087D02*
Y009D01*
X02987Y00885D02*
X03017D01*
X03002Y0087D02*
Y009D01*
X-02917Y00295D02*
X-02887D01*
X-02902Y0028D02*
Y0031D01*
X-03017Y00295D02*
X-02987D01*
X-03002Y0028D02*
Y0031D01*
X-02427Y00295D02*
X-02397D01*
X-02412Y0028D02*
Y0031D01*
X-02327Y00295D02*
X-02297D01*
X-02312Y0028D02*
Y0031D01*
X-01736Y00295D02*
X-01706D01*
X-01721Y0028D02*
Y0031D01*
X-01836Y00295D02*
X-01806D01*
X-01821Y0028D02*
Y0031D01*
X-01246Y00295D02*
X-01216D01*
X-01231Y0028D02*
Y0031D01*
X-01146Y00295D02*
X-01116D01*
X-01131Y0028D02*
Y0031D01*
X-00555Y00295D02*
X-00525D01*
X-0054Y0028D02*
Y0031D01*
X-00655Y00295D02*
X-00625D01*
X-0064Y0028D02*
Y0031D01*
X-00065Y00295D02*
X-00035D01*
X-0005Y0028D02*
Y0031D01*
X00035Y00295D02*
X00065D01*
X0005Y0028D02*
Y0031D01*
X00625Y00295D02*
X00655D01*
X0064Y0028D02*
Y0031D01*
X00525Y00295D02*
X00555D01*
X0054Y0028D02*
Y0031D01*
X01116Y00295D02*
X01146D01*
X01131Y0028D02*
Y0031D01*
X01216Y00295D02*
X01246D01*
X01231Y0028D02*
Y0031D01*
X01806Y00295D02*
X01836D01*
X01821Y0028D02*
Y0031D01*
X01706Y00295D02*
X01736D01*
X01721Y0028D02*
Y0031D01*
X02297Y00295D02*
X02327D01*
X02312Y0028D02*
Y0031D01*
X02397Y00295D02*
X02427D01*
X02412Y0028D02*
Y0031D01*
X02987Y00295D02*
X03017D01*
X03002Y0028D02*
Y0031D01*
X02887Y00295D02*
X02917D01*
X02902Y0028D02*
Y0031D01*
X-03017Y-00295D02*
X-02987D01*
X-03002Y-0031D02*
Y-0028D01*
X-02917Y-00295D02*
X-02887D01*
X-02902Y-0031D02*
Y-0028D01*
X-02327Y-00295D02*
X-02297D01*
X-02312Y-0031D02*
Y-0028D01*
X-02427Y-00295D02*
X-02397D01*
X-02412Y-0031D02*
Y-0028D01*
X-01836Y-00295D02*
X-01806D01*
X-01821Y-0031D02*
Y-0028D01*
X-01736Y-00295D02*
X-01706D01*
X-01721Y-0031D02*
Y-0028D01*
X-01146Y-00295D02*
X-01116D01*
X-01131Y-0031D02*
Y-0028D01*
X-01246Y-00295D02*
X-01216D01*
X-01231Y-0031D02*
Y-0028D01*
X-00655Y-00295D02*
X-00625D01*
X-0064Y-0031D02*
Y-0028D01*
X-00555Y-00295D02*
X-00525D01*
X-0054Y-0031D02*
Y-0028D01*
X00035Y-00295D02*
X00065D01*
X0005Y-0031D02*
Y-0028D01*
X-00065Y-00295D02*
X-00035D01*
X-0005Y-0031D02*
Y-0028D01*
X00525Y-00295D02*
X00555D01*
X0054Y-0031D02*
Y-0028D01*
X00625Y-00295D02*
X00655D01*
X0064Y-0031D02*
Y-0028D01*
X01216Y-00295D02*
X01246D01*
X01231Y-0031D02*
Y-0028D01*
X01116Y-00295D02*
X01146D01*
X01131Y-0031D02*
Y-0028D01*
X01706Y-00295D02*
X01736D01*
X01721Y-0031D02*
Y-0028D01*
X01806Y-00295D02*
X01836D01*
X01821Y-0031D02*
Y-0028D01*
X02397Y-00295D02*
X02427D01*
X02412Y-0031D02*
Y-0028D01*
X02297Y-00295D02*
X02327D01*
X02312Y-0031D02*
Y-0028D01*
X02887Y-00295D02*
X02917D01*
X02902Y-0031D02*
Y-0028D01*
X02987Y-00295D02*
X03017D01*
X03002Y-0031D02*
Y-0028D01*
X-02917Y-00885D02*
X-02887D01*
X-02902Y-009D02*
Y-0087D01*
X-03017Y-00885D02*
X-02987D01*
X-03002Y-009D02*
Y-0087D01*
X-02427Y-00885D02*
X-02397D01*
X-02412Y-009D02*
Y-0087D01*
X-02327Y-00885D02*
X-02297D01*
X-02312Y-009D02*
Y-0087D01*
X-01736Y-00885D02*
X-01706D01*
X-01721Y-009D02*
Y-0087D01*
X-01836Y-00885D02*
X-01806D01*
X-01821Y-009D02*
Y-0087D01*
X-01246Y-00885D02*
X-01216D01*
X-01231Y-009D02*
Y-0087D01*
X-01146Y-00885D02*
X-01116D01*
X-01131Y-009D02*
Y-0087D01*
X-00555Y-00885D02*
X-00525D01*
X-0054Y-009D02*
Y-0087D01*
X-00655Y-00885D02*
X-00625D01*
X-0064Y-009D02*
Y-0087D01*
X-00065Y-00885D02*
X-00035D01*
X-0005Y-009D02*
Y-0087D01*
X00035Y-00885D02*
X00065D01*
X0005Y-009D02*
Y-0087D01*
X00625Y-00885D02*
X00655D01*
X0064Y-009D02*
Y-0087D01*
X00525Y-00885D02*
X00555D01*
X0054Y-009D02*
Y-0087D01*
X01116Y-00885D02*
X01146D01*
X01131Y-009D02*
Y-0087D01*
X01216Y-00885D02*
X01246D01*
X01231Y-009D02*
Y-0087D01*
X01806Y-00885D02*
X01836D01*
X01821Y-009D02*
Y-0087D01*
X01706Y-00885D02*
X01736D01*
X01721Y-009D02*
Y-0087D01*
X02297Y-00885D02*
X02327D01*
X02312Y-009D02*
Y-0087D01*
X02397Y-00885D02*
X02427D01*
X02412Y-009D02*
Y-0087D01*
X02987Y-00885D02*
X03017D01*
X03002Y-009D02*
Y-0087D01*
X02887Y-00885D02*
X02917D01*
X02902Y-009D02*
Y-0087D01*
X-03017Y-01476D02*
X-02987D01*
X-03002Y-01491D02*
Y-01461D01*
X-02917Y-01476D02*
X-02887D01*
X-02902Y-01491D02*
Y-01461D01*
X-02327Y-01476D02*
X-02297D01*
X-02312Y-01491D02*
Y-01461D01*
X-02427Y-01476D02*
X-02397D01*
X-02412Y-01491D02*
Y-01461D01*
X-01836Y-01476D02*
X-01806D01*
X-01821Y-01491D02*
Y-01461D01*
X-01736Y-01476D02*
X-01706D01*
X-01721Y-01491D02*
Y-01461D01*
X-01146Y-01476D02*
X-01116D01*
X-01131Y-01491D02*
Y-01461D01*
X-01246Y-01476D02*
X-01216D01*
X-01231Y-01491D02*
Y-01461D01*
X-00655Y-01476D02*
X-00625D01*
X-0064Y-01491D02*
Y-01461D01*
X-00555Y-01476D02*
X-00525D01*
X-0054Y-01491D02*
Y-01461D01*
X00035Y-01476D02*
X00065D01*
X0005Y-01491D02*
Y-01461D01*
X-00065Y-01476D02*
X-00035D01*
X-0005Y-01491D02*
Y-01461D01*
X00525Y-01476D02*
X00555D01*
X0054Y-01491D02*
Y-01461D01*
X00625Y-01476D02*
X00655D01*
X0064Y-01491D02*
Y-01461D01*
X01216Y-01476D02*
X01246D01*
X01231Y-01491D02*
Y-01461D01*
X01116Y-01476D02*
X01146D01*
X01131Y-01491D02*
Y-01461D01*
X01706Y-01476D02*
X01736D01*
X01721Y-01491D02*
Y-01461D01*
X01806Y-01476D02*
X01836D01*
X01821Y-01491D02*
Y-01461D01*
X02397Y-01476D02*
X02427D01*
X02412Y-01491D02*
Y-01461D01*
X02297Y-01476D02*
X02327D01*
X02312Y-01491D02*
Y-01461D01*
X02887Y-01476D02*
X02917D01*
X02902Y-01491D02*
Y-01461D01*
X02987Y-01476D02*
X03017D01*
X03002Y-01491D02*
Y-01461D01*
X-02917Y-02066D02*
X-02887D01*
X-02902Y-02081D02*
Y-02051D01*
X-03017Y-02066D02*
X-02987D01*
X-03002Y-02081D02*
Y-02051D01*
X-02427Y-02066D02*
X-02397D01*
X-02412Y-02081D02*
Y-02051D01*
X-02327Y-02066D02*
X-02297D01*
X-02312Y-02081D02*
Y-02051D01*
X-01736Y-02066D02*
X-01706D01*
X-01721Y-02081D02*
Y-02051D01*
X-01836Y-02066D02*
X-01806D01*
X-01821Y-02081D02*
Y-02051D01*
X-01246Y-02066D02*
X-01216D01*
X-01231Y-02081D02*
Y-02051D01*
X-01146Y-02066D02*
X-01116D01*
X-01131Y-02081D02*
Y-02051D01*
X-00555Y-02066D02*
X-00525D01*
X-0054Y-02081D02*
Y-02051D01*
X-00655Y-02066D02*
X-00625D01*
X-0064Y-02081D02*
Y-02051D01*
X-00065Y-02066D02*
X-00035D01*
X-0005Y-02081D02*
Y-02051D01*
X00035Y-02066D02*
X00065D01*
X0005Y-02081D02*
Y-02051D01*
X00625Y-02066D02*
X00655D01*
X0064Y-02081D02*
Y-02051D01*
X00525Y-02066D02*
X00555D01*
X0054Y-02081D02*
Y-02051D01*
X01116Y-02066D02*
X01146D01*
X01131Y-02081D02*
Y-02051D01*
X01216Y-02066D02*
X01246D01*
X01231Y-02081D02*
Y-02051D01*
X01806Y-02066D02*
X01836D01*
X01821Y-02081D02*
Y-02051D01*
X01706Y-02066D02*
X01736D01*
X01721Y-02081D02*
Y-02051D01*
X02297Y-02066D02*
X02327D01*
X02312Y-02081D02*
Y-02051D01*
X02397Y-02066D02*
X02427D01*
X02412Y-02081D02*
Y-02051D01*
X02987Y-02066D02*
X03017D01*
X03002Y-02081D02*
Y-02051D01*
X02887Y-02066D02*
X02917D01*
X02902Y-02081D02*
Y-02051D01*
X-03017Y-02657D02*
X-02987D01*
X-03002Y-02672D02*
Y-02642D01*
X-02917Y-02657D02*
X-02887D01*
X-02902Y-02672D02*
Y-02642D01*
X-02327Y-02657D02*
X-02297D01*
X-02312Y-02672D02*
Y-02642D01*
X-02427Y-02657D02*
X-02397D01*
X-02412Y-02672D02*
Y-02642D01*
X-01836Y-02657D02*
X-01806D01*
X-01821Y-02672D02*
Y-02642D01*
X-01736Y-02657D02*
X-01706D01*
X-01721Y-02672D02*
Y-02642D01*
X-01146Y-02657D02*
X-01116D01*
X-01131Y-02672D02*
Y-02642D01*
X-01246Y-02657D02*
X-01216D01*
X-01231Y-02672D02*
Y-02642D01*
X-00655Y-02657D02*
X-00625D01*
X-0064Y-02672D02*
Y-02642D01*
X-00555Y-02657D02*
X-00525D01*
X-0054Y-02672D02*
Y-02642D01*
X00035Y-02657D02*
X00065D01*
X0005Y-02672D02*
Y-02642D01*
X-00065Y-02657D02*
X-00035D01*
X-0005Y-02672D02*
Y-02642D01*
X00525Y-02657D02*
X00555D01*
X0054Y-02672D02*
Y-02642D01*
X00625Y-02657D02*
X00655D01*
X0064Y-02672D02*
Y-02642D01*
X01216Y-02657D02*
X01246D01*
X01231Y-02672D02*
Y-02642D01*
X01116Y-02657D02*
X01146D01*
X01131Y-02672D02*
Y-02642D01*
X01706Y-02657D02*
X01736D01*
X01721Y-02672D02*
Y-02642D01*
X01806Y-02657D02*
X01836D01*
X01821Y-02672D02*
Y-02642D01*
X02397Y-02657D02*
X02427D01*
X02412Y-02672D02*
Y-02642D01*
X02297Y-02657D02*
X02327D01*
X02312Y-02672D02*
Y-02642D01*
X02887Y-02657D02*
X02917D01*
X02902Y-02672D02*
Y-02642D01*
X02987Y-02657D02*
X03017D01*
X03002Y-02672D02*
Y-02642D01*
X-00816Y-03474D02*
X-00777D01*
X-00797Y-03494D02*
Y-03454D01*
X-00561Y-03474D02*
X-00521D01*
X-00541Y-03494D02*
Y-03454D01*
X-00816Y-03297D02*
X-00777D01*
X-00797Y-03316D02*
Y-03277D01*
X-00561Y-03297D02*
X-00521D01*
X-00541Y-03316D02*
Y-03277D01*
X-01328Y-03474D02*
X-01289D01*
X-01309Y-03494D02*
Y-03454D01*
X-01072Y-03474D02*
X-01033D01*
X-01053Y-03494D02*
Y-03454D01*
X-01328Y-03297D02*
X-01289D01*
X-01309Y-03316D02*
Y-03277D01*
X-01072Y-03297D02*
X-01033D01*
X-01053Y-03316D02*
Y-03277D01*
X-03448Y0307D02*
X-03322D01*
X-03385Y03007D02*
Y03133D01*
X03322Y0307D02*
X03448D01*
X03385Y03007D02*
Y03133D01*
X03322Y-02755D02*
X03448D01*
X03385Y-02818D02*
Y-02692D01*
X-03448Y-02755D02*
X-03322D01*
X-03385Y-02818D02*
Y-02692D01*
X-00062Y0307D02*
X00062D01*
X0Y03007D02*
Y03133D01*
X-03448Y00118D02*
X-03322D01*
X-03385Y00055D02*
Y00181D01*
X03322Y00118D02*
X03448D01*
X03385Y00055D02*
Y00181D01*
X-00062Y-03031D02*
X00062D01*
X0Y-03094D02*
Y-02968D01*
X0193Y-03782D02*
X01973D01*
X01952Y-03803D02*
Y-0376D01*
X0203Y-03782D02*
X02073D01*
X02052Y-03803D02*
Y-0376D01*
X0213Y-03782D02*
X02173D01*
X02152Y-03803D02*
Y-0376D01*
X0223Y-03782D02*
X02273D01*
X02252Y-03803D02*
Y-0376D01*
X0233Y-03782D02*
X02373D01*
X02352Y-03803D02*
Y-0376D01*
X0243Y-03782D02*
X02473D01*
X02452Y-03803D02*
Y-0376D01*
X0253Y-03782D02*
X02573D01*
X02552Y-03803D02*
Y-0376D01*
X0263Y-03782D02*
X02673D01*
X02652Y-03803D02*
Y-0376D01*
X0273Y-03782D02*
X02773D01*
X02752Y-03803D02*
Y-0376D01*
X0283Y-03782D02*
X02873D01*
X02852Y-03803D02*
Y-0376D01*
X0293Y-03782D02*
X02973D01*
X02952Y-03803D02*
Y-0376D01*
X0303Y-03782D02*
X03073D01*
X03052Y-03803D02*
Y-0376D01*
X0313Y-03782D02*
X03173D01*
X03152Y-03803D02*
Y-0376D01*
X0323Y-03782D02*
X03273D01*
X03252Y-03803D02*
Y-0376D01*
X0333Y-03782D02*
X03373D01*
X03352Y-03803D02*
Y-0376D01*
X0193Y-03182D02*
X01973D01*
X01952Y-03203D02*
Y-0316D01*
X0203Y-03182D02*
X02073D01*
X02052Y-03203D02*
Y-0316D01*
X0213Y-03182D02*
X02173D01*
X02152Y-03203D02*
Y-0316D01*
X0223Y-03182D02*
X02273D01*
X02252Y-03203D02*
Y-0316D01*
X0243Y-03182D02*
X02473D01*
X02452Y-03203D02*
Y-0316D01*
X0233Y-03182D02*
X02373D01*
X02352Y-03203D02*
Y-0316D01*
X0263Y-03182D02*
X02673D01*
X02652Y-03203D02*
Y-0316D01*
X0253Y-03182D02*
X02573D01*
X02552Y-03203D02*
Y-0316D01*
X0283Y-03182D02*
X02873D01*
X02852Y-03203D02*
Y-0316D01*
X0273Y-03182D02*
X02773D01*
X02752Y-03203D02*
Y-0316D01*
X0303Y-03182D02*
X03073D01*
X03052Y-03203D02*
Y-0316D01*
X0293Y-03182D02*
X02973D01*
X02952Y-03203D02*
Y-0316D01*
X0323Y-03182D02*
X03273D01*
X03252Y-03203D02*
Y-0316D01*
X0313Y-03182D02*
X03173D01*
X03152Y-03203D02*
Y-0316D01*
X0333Y-03182D02*
X03373D01*
X03352Y-03203D02*
Y-0316D01*
X01048Y-03633D02*
X01076D01*
X01062Y-03647D02*
Y-03619D01*
X02559Y-02997D02*
X02587D01*
X02573Y-03011D02*
Y-02983D01*
X01716Y-03737D02*
X01744D01*
X0173Y-03751D02*
Y-03723D01*
X01626Y-03723D02*
X01654D01*
X0164Y-03737D02*
Y-03709D01*
X01331Y-03535D02*
X01359D01*
X01345Y-03549D02*
Y-03521D01*
X-02135Y-03723D02*
X-02107D01*
X-02121Y-03737D02*
Y-03709D01*
X-033Y-03723D02*
X-03272D01*
X-03286Y-03737D02*
Y-03709D01*
X-02995Y-0364D02*
X-02967D01*
X-02981Y-03654D02*
Y-03626D01*
X-034Y-03723D02*
X-03372D01*
X-03386Y-03737D02*
Y-03709D01*
X-0236Y-0364D02*
X-02332D01*
X-02346Y-03654D02*
Y-03626D01*
X01976Y-03D02*
X02004D01*
X0199Y-03014D02*
Y-02986D01*
X-02877Y-03062D02*
X-02849D01*
X-02863Y-03076D02*
Y-03048D01*
X-02286Y-03057D02*
X-02258D01*
X-02272Y-03071D02*
Y-03043D01*
X-01696Y-03062D02*
X-01668D01*
X-01682Y-03076D02*
Y-03048D01*
X-01105Y-03062D02*
X-01077D01*
X-01091Y-03076D02*
Y-03048D01*
X-00514Y-03062D02*
X-00486D01*
X-005Y-03076D02*
Y-03048D01*
X00666Y-03062D02*
X00694D01*
X0068Y-03076D02*
Y-03048D01*
X01256Y-03057D02*
X01284D01*
X0127Y-03071D02*
Y-03043D01*
X03028Y-03062D02*
X03056D01*
X03042Y-03076D02*
Y-03048D01*
X00194Y-0364D02*
X00222D01*
X00208Y-03654D02*
Y-03626D01*
X-0183Y-0364D02*
X-01802D01*
X-01816Y-03654D02*
Y-03626D01*
X-02084Y0241D02*
X-02056D01*
X-0207Y02396D02*
Y02424D01*
X-02034Y03005D02*
X-02006D01*
X-0202Y02991D02*
Y03019D01*
X-02134Y01829D02*
X-02106D01*
X-0212Y01815D02*
Y01843D01*
X-00209Y-0358D02*
X-00181D01*
X-00195Y-03594D02*
Y-03566D01*
X00296Y-0306D02*
X00324D01*
X0031Y-03074D02*
Y-03046D01*
X-02084Y-0284D02*
X-02056D01*
X-0207Y-02854D02*
Y-02826D01*
X-02034Y-02935D02*
X-02006D01*
X-0202Y-02949D02*
Y-02921D01*
X-02134Y-02935D02*
X-02106D01*
X-0212Y-02949D02*
Y-02921D01*
X00589Y-03723D02*
X00617D01*
X00603Y-03737D02*
Y-03709D01*
X00539Y-03804D02*
X00567D01*
X00553Y-03818D02*
Y-0379D01*
X-02186Y-03805D02*
X-02158D01*
X-02172Y-03819D02*
Y-03791D01*
X-03351Y-03805D02*
X-03323D01*
X-03337Y-03819D02*
Y-03791D01*
M02*