%FSTAX23Y23*%
%MOIN*%
%SFA1B1*%

%IPPOS*%
%ADD13C,0.040000*%
%ADD14C,0.020000*%
%ADD15R,0.060000X0.150000*%
%ADD16O,0.060000X0.150000*%
%ADD17C,0.075000*%
%ADD18C,0.157480*%
%ADD19O,0.070000X0.120000*%
%ADD20R,0.070000X0.120000*%
%ADD21C,0.050000*%
%LNwordclock_v20-1*%
%LPD*%
G36*
X03276Y03155D02*
X03284Y03133D01*
X03279Y03124*
X03272Y03107*
X03268Y03089*
X03266Y0307*
X03268Y03052*
X03272Y03034*
X03279Y03016*
X03289Y03*
X03301Y02986*
X03315Y02974*
X03331Y02964*
X03349Y02957*
X03367Y02953*
X03385Y02951*
X03404Y02953*
X03422Y02957*
X03439Y02964*
X03448Y02969*
X0347Y02961*
X03478Y02954*
Y00234*
X0347Y00227*
X03448Y00219*
X03439Y00224*
X03422Y00231*
X03404Y00235*
X03385Y00237*
X03367Y00235*
X03349Y00231*
X03331Y00224*
X03315Y00214*
X03301Y00202*
X03289Y00188*
X03279Y00172*
X03272Y00154*
X03268Y00136*
X03266Y00118*
X03268Y00099*
X03272Y00081*
X03279Y00064*
X03289Y00048*
X03301Y00033*
X03315Y00021*
X03331Y00011*
X03349Y00004*
X03367Y0*
X03385Y-00001*
X03404Y0*
X03422Y00004*
X03439Y00011*
X03448Y00017*
X0347Y00008*
X03478Y00001*
Y-02639*
X0347Y-02646*
X03448Y-02655*
X03439Y-02649*
X03422Y-02642*
X03404Y-02638*
X03385Y-02636*
X03367Y-02638*
X03349Y-02642*
X03331Y-02649*
X03315Y-02659*
X03301Y-02671*
X03289Y-02685*
X03279Y-02701*
X03272Y-02719*
X03268Y-02737*
X03266Y-02755*
X03268Y-02774*
X03272Y-02792*
X03279Y-02809*
X03289Y-02825*
X03301Y-0284*
X03315Y-02852*
X03331Y-02862*
X03349Y-02869*
X03367Y-02873*
X03385Y-02875*
X03404Y-02873*
X03422Y-02869*
X03439Y-02862*
X03448Y-02856*
X0347Y-02865*
X03478Y-02872*
Y-03825*
X03448Y-03829*
X03427Y-03807*
Y-03757*
X03425Y-03742*
X03421Y-03728*
X03414Y-03715*
X03405Y-03703*
X03393Y-03694*
X0338Y-03687*
X03366Y-03683*
X03352Y-03681*
X03337Y-03683*
X03323Y-03687*
X0331Y-03694*
X03302Y-03701*
X03293Y-03694*
X0328Y-03687*
X03266Y-03683*
X03252Y-03681*
X03237Y-03683*
X03223Y-03687*
X0321Y-03694*
X03202Y-03701*
X03193Y-03694*
X0318Y-03687*
X03166Y-03683*
X03152Y-03681*
X03137Y-03683*
X03123Y-03687*
X0311Y-03694*
X03102Y-03701*
X03093Y-03694*
X0308Y-03687*
X03066Y-03683*
X03052Y-03681*
X03037Y-03683*
X03023Y-03687*
X0301Y-03694*
X03002Y-03701*
X02993Y-03694*
X0298Y-03687*
X02966Y-03683*
X02952Y-03681*
X02937Y-03683*
X02923Y-03687*
X0291Y-03694*
X02902Y-03701*
X02893Y-03694*
X0288Y-03687*
X02866Y-03683*
X02852Y-03681*
X02837Y-03683*
X02823Y-03687*
X0281Y-03694*
X02802Y-03701*
X02793Y-03694*
X0278Y-03687*
X02766Y-03683*
X02752Y-03681*
X02737Y-03683*
X02723Y-03687*
X0271Y-03694*
X02702Y-03701*
X02693Y-03694*
X0268Y-03687*
X02666Y-03683*
X02652Y-03681*
X02637Y-03683*
X02623Y-03687*
X0261Y-03694*
X02602Y-03701*
X02593Y-03694*
X0258Y-03687*
X02566Y-03683*
X02552Y-03681*
X02537Y-03683*
X02523Y-03687*
X0251Y-03694*
X02502Y-03701*
X02493Y-03694*
X0248Y-03687*
X02466Y-03683*
X02452Y-03681*
X02437Y-03683*
X02423Y-03687*
X0241Y-03694*
X02402Y-03701*
X02393Y-03694*
X0238Y-03687*
X02366Y-03683*
X02352Y-03681*
X02337Y-03683*
X02323Y-03687*
X02322Y-03687*
X02294Y-03673*
X02292Y-0367*
Y-03597*
X02292Y-03595*
X02305Y-03573*
X02314Y-03565*
X03252*
X03259Y-03564*
X03267Y-03561*
X03273Y-03556*
X03278Y-0355*
X03281Y-03542*
X03282Y-03535*
Y-03284*
X03309Y-03269*
X0331Y-03269*
X03323Y-03276*
X03337Y-0328*
X03352Y-03282*
X03366Y-0328*
X0338Y-03276*
X03393Y-03269*
X03405Y-0326*
X03414Y-03248*
X03421Y-03235*
X03425Y-03221*
X03427Y-03207*
Y-03157*
X03425Y-03142*
X03421Y-03128*
X03414Y-03115*
X03405Y-03103*
X03393Y-03094*
X0338Y-03087*
X03366Y-03083*
X03352Y-03081*
X03337Y-03083*
X03323Y-03087*
X0331Y-03094*
X03302Y-03101*
X03293Y-03094*
X0328Y-03087*
X03266Y-03083*
X03252Y-03081*
X03237Y-03083*
X03223Y-03087*
X0321Y-03094*
X03202Y-03101*
X03193Y-03094*
X0318Y-03087*
X03166Y-03083*
X03152Y-03081*
X03137Y-03083*
X03123Y-03087*
X0311Y-03094*
X03105Y-03098*
X03081Y-03081*
X03081Y-03073*
X03082Y-03062*
X03081Y-03052*
X03077Y-03042*
X0307Y-03034*
X03062Y-03027*
X03052Y-03023*
X03042Y-03022*
X02613*
Y-02997*
X02611Y-02986*
X02607Y-02976*
X02601Y-02968*
X02593Y-02962*
X02583Y-02958*
X02573Y-02956*
X02562Y-02958*
X02552Y-02962*
X02544Y-02968*
X02538Y-02976*
X02534Y-02986*
X02532Y-02997*
Y-03022*
X02248*
X0203*
Y-03*
X02028Y-02989*
X02024Y-02979*
X02018Y-02971*
X0201Y-02965*
X02Y-02961*
X0199Y-02959*
X01979Y-02961*
X01969Y-02965*
X01961Y-02971*
X01955Y-02979*
X01951Y-02989*
X01949Y-03*
Y-03022*
X0035*
Y-0288*
X00348Y-02869*
X00344Y-02859*
X00338Y-02851*
X0033Y-02845*
X0032Y-02841*
X0031Y-02839*
X-005*
X-0051Y-02841*
X-0052Y-02845*
X-00528Y-02851*
X-00534Y-02859*
X-00538Y-02869*
X-0054Y-0288*
Y-03024*
X-01669*
X-01671Y-03023*
X-01682Y-03022*
X-01692Y-03023*
X-01694Y-03024*
X-01988*
X-01995Y-02995*
X-01983Y-02989*
X-01973Y-02981*
X-01965Y-02971*
X-01959Y-0296*
X-01955Y-02947*
X-01954Y-02935*
X-01955Y-02922*
X-01959Y-0291*
X-01965Y-02898*
X-01973Y-02888*
X-01983Y-0288*
X-01989Y-02877*
Y02947*
X-01983Y0295*
X-01973Y02958*
X-01965Y02968*
X-01959Y0298*
X-01955Y02992*
X-01954Y03005*
X-01955Y03017*
X-01959Y03029*
X-01965Y03041*
X-01973Y03051*
X-01983Y03059*
X-01995Y03065*
X-02007Y03069*
X-0202Y0307*
X-02032Y03069*
X-02045Y03065*
X-02056Y03059*
X-02066Y03051*
X-02074Y03041*
X-0208Y03029*
X-02084Y03017*
X-02085Y03005*
X-02084Y02992*
X-0208Y0298*
X-02074Y02968*
X-02066Y02958*
X-02056Y0295*
X-0205Y02947*
Y02501*
X-0207Y02475*
X-02082Y02474*
X-02095Y0247*
X-02106Y02464*
X-02116Y02456*
X-02124Y02446*
X-0213Y02434*
X-02134Y02422*
X-02135Y0241*
X-02134Y02397*
X-0213Y02385*
X-02124Y02373*
X-02116Y02363*
X-02106Y02355*
X-021Y02352*
Y01921*
X-0212Y01894*
X-02133Y01893*
X-02145Y01889*
X-02156Y01883*
X-02166Y01875*
X-02174Y01865*
X-0218Y01854*
X-02184Y01842*
X-02185Y01829*
X-02184Y01816*
X-0218Y01804*
X-02174Y01793*
X-02166Y01783*
X-02156Y01775*
X-0215Y01771*
Y-02877*
X-02156Y-0288*
X-02166Y-02888*
X-02174Y-02898*
X-0218Y-0291*
X-02184Y-02922*
X-02185Y-02935*
X-02184Y-02947*
X-0218Y-0296*
X-02174Y-02971*
X-02166Y-02981*
X-02156Y-02989*
X-02144Y-02995*
X-02151Y-03024*
X-0285*
X-02852Y-03023*
X-02863Y-03022*
X-02873Y-03023*
X-02883Y-03027*
X-02891Y-03034*
X-02898Y-03042*
X-02902Y-03052*
X-02903Y-03062*
X-02902Y-03073*
X-02898Y-03082*
X-02891Y-03091*
X-02889Y-03093*
X-02881Y-03099*
X-02871Y-03103*
X-0286Y-03105*
X-01722*
Y-03474*
X-0172Y-03484*
X-01716Y-03494*
X-0171Y-03502*
X-01702Y-03509*
X-01692Y-03513*
X-01682Y-03514*
X-01309*
X-01298Y-03513*
X-01288Y-03509*
X-0128Y-03502*
X-01274Y-03494*
X-0127Y-03484*
X-01268Y-03474*
X-0127Y-03463*
X-01274Y-03454*
X-0128Y-03445*
X-01288Y-03439*
X-01298Y-03435*
X-01309Y-03434*
X-01641*
Y-03105*
X-005*
X-0049Y-03103*
X-0048Y-03099*
X-00472Y-03093*
X-00465Y-03085*
X-00461Y-03075*
X-00461Y-03075*
X-00461Y-03073*
X-00459Y-03062*
Y-0292*
X-00098*
X-00089Y-02938*
X-00086Y-0295*
X-00096Y-02961*
X-00106Y-02977*
X-00113Y-02994*
X-00117Y-03012*
X-00119Y-03031*
X-00117Y-0305*
X-00113Y-03068*
X-00106Y-03085*
X-00096Y-03101*
X-00084Y-03115*
X-0007Y-03127*
X-00054Y-03137*
X-00036Y-03144*
X-00018Y-03149*
X0Y-0315*
X00018Y-03149*
X00036Y-03144*
X00054Y-03137*
X0007Y-03127*
X00084Y-03115*
X00096Y-03101*
X00106Y-03085*
X00113Y-03068*
X00117Y-0305*
X00119Y-03031*
X00117Y-03012*
X00113Y-02994*
X00106Y-02977*
X00096Y-02961*
X00086Y-0295*
X00089Y-02938*
X00098Y-0292*
X00269*
Y-03062*
X00271Y-03073*
X00275Y-03082*
X00281Y-03091*
X00289Y-03097*
X00299Y-03101*
X0031Y-03103*
X01877*
Y-03282*
X02027*
X02052Y-03282*
X02056Y-03281*
X02066Y-0328*
X0208Y-03276*
X02093Y-03269*
X02102Y-03262*
X0211Y-03269*
X02123Y-03276*
X02137Y-0328*
X02152Y-03282*
X02166Y-0328*
X0218Y-03276*
X02193Y-03269*
X02205Y-0326*
X02214Y-03248*
X02232Y-03238*
X02242Y-03241*
X02247Y-03241*
Y-03182*
X02257*
Y-03241*
X02261Y-03241*
X02271Y-03238*
X02289Y-03248*
X02298Y-0326*
X0231Y-03269*
X02323Y-03276*
X02337Y-0328*
X02352Y-03282*
X02366Y-0328*
X0238Y-03276*
X02393Y-03269*
X02402Y-03262*
X0241Y-03269*
X02423Y-03276*
X02437Y-0328*
X02452Y-03282*
X02466Y-0328*
X0248Y-03276*
X02493Y-03269*
X02502Y-03262*
X0251Y-03269*
X02523Y-03276*
X02537Y-0328*
X02552Y-03282*
X02566Y-0328*
X0258Y-03276*
X02593Y-03269*
X02602Y-03262*
X0261Y-03269*
X02623Y-03276*
X02637Y-0328*
X02652Y-03282*
X02666Y-0328*
X0268Y-03276*
X02693Y-03269*
X02702Y-03262*
X0271Y-03269*
X02723Y-03276*
X02737Y-0328*
X02752Y-03282*
X02766Y-0328*
X0278Y-03276*
X02793Y-03269*
X02802Y-03262*
X0281Y-03269*
X02823Y-03276*
X02837Y-0328*
X02852Y-03282*
X02866Y-0328*
X0288Y-03276*
X02893Y-03269*
X02902Y-03262*
X0291Y-03269*
X02923Y-03276*
X02937Y-0328*
X02952Y-03282*
X02966Y-0328*
X0298Y-03276*
X02993Y-03269*
X03002Y-03262*
X0301Y-03269*
X03023Y-03276*
X03037Y-0328*
X03052Y-03282*
X03066Y-0328*
X0308Y-03276*
X03093Y-03269*
X03094Y-03269*
X03121Y-03284*
Y-03449*
X0184*
Y-03225*
X01839Y-03217*
X01836Y-03209*
X01831Y-03203*
X01825Y-03198*
X01817Y-03195*
X0181Y-03194*
X-0105*
X-01057Y-03195*
X-01065Y-03198*
X-01071Y-03203*
X-01076Y-03209*
X-01079Y-03217*
X-0108Y-03224*
X-01082Y-03225*
X-01096Y-03232*
X-01108Y-03242*
X-01117Y-03253*
X-01124Y-03266*
X-01237*
X-01244Y-03253*
X-01253Y-03242*
X-01265Y-03232*
X-01279Y-03225*
X-01293Y-0322*
X-01309Y-03219*
X-01324Y-0322*
X-01338Y-03225*
X-01352Y-03232*
X-01364Y-03242*
X-01373Y-03253*
X-01381Y-03267*
X-01385Y-03282*
X-01386Y-03297*
X-01385Y-03312*
X-01381Y-03327*
X-01373Y-0334*
X-01364Y-03352*
X-01352Y-03361*
X-01338Y-03369*
X-01324Y-03373*
X-01309Y-03375*
X-01293Y-03373*
X-01279Y-03369*
X-01265Y-03361*
X-01253Y-03352*
X-01244Y-0334*
X-01237Y-03327*
X-01124*
X-01117Y-0334*
X-01108Y-03352*
X-01096Y-03361*
X-01082Y-03369*
X-01068Y-03373*
X-01053Y-03375*
X-01037Y-03373*
X-01023Y-03369*
X-01009Y-03361*
X-00998Y-03352*
X-00988Y-0334*
X-00981Y-03327*
X-00976Y-03312*
X-00975Y-03297*
X-00976Y-03285*
X-00975Y-0328*
X-00955Y-03255*
X-00895*
X-00875Y-0328*
X-00873Y-03285*
X-00875Y-03297*
X-00873Y-03312*
X-00869Y-03327*
X-00861Y-0334*
X-00852Y-03352*
X-0084Y-03361*
X-00827Y-03369*
X-00812Y-03373*
X-00797Y-03375*
X-00782Y-03373*
X-00767Y-03369*
X-00753Y-03361*
X-00742Y-03352*
X-00732Y-0334*
X-00725Y-03327*
X-00613*
X-00606Y-0334*
X-00596Y-03352*
X-00584Y-03361*
X-00571Y-03369*
X-00556Y-03373*
X-00541Y-03375*
X-00526Y-03373*
X-00511Y-03369*
X-00498Y-03361*
X-00486Y-03352*
X-00476Y-0334*
X-00469Y-03327*
X-00468Y-03325*
X00175*
X00188Y-03352*
X00188Y-03355*
X00181Y-0336*
X00175Y-03368*
X00171Y-03378*
X00169Y-03389*
Y-03539*
X-00144*
X-00148Y-03533*
X-00158Y-03525*
X-0017Y-03519*
X-00182Y-03515*
X-00195Y-03514*
X-00207Y-03515*
X-0022Y-03519*
X-00231Y-03525*
X-00241Y-03533*
X-00249Y-03543*
X-00255Y-03555*
X-00259Y-03567*
X-0026Y-0358*
X-00259Y-03592*
X-00255Y-03605*
X-00249Y-03616*
X-00241Y-03626*
X-00231Y-03634*
X-0022Y-0364*
X-00207Y-03644*
X-00195Y-03645*
X-00182Y-03644*
X-0017Y-0364*
X-00158Y-03634*
X-00148Y-03626*
X-00144Y-0362*
X00116*
X00142Y-0364*
X00144Y-03652*
X00146Y-0366*
X00139Y-03675*
X00127Y-0369*
X-01735*
X-01748Y-03675*
X-01754Y-0366*
X-01752Y-03652*
X-01751Y-0364*
X-01752Y-03627*
X-01756Y-03615*
X-01762Y-03603*
X-0177Y-03593*
X-0178Y-03585*
X-01791Y-03579*
X-01804Y-03575*
X-01816Y-03574*
X-01829Y-03575*
X-01841Y-03579*
X-01853Y-03585*
X-01862Y-03593*
X-01867Y-03599*
X-02295*
X-023Y-03593*
X-0231Y-03585*
X-02321Y-03579*
X-02334Y-03575*
X-02346Y-03574*
X-02359Y-03575*
X-02371Y-03579*
X-02383Y-03585*
X-02392Y-03593*
X-02397Y-03599*
X-0293*
X-02935Y-03593*
X-02945Y-03585*
X-02956Y-03579*
X-02969Y-03575*
X-02981Y-03574*
X-02994Y-03575*
X-03006Y-03579*
X-03018Y-03585*
X-03027Y-03593*
X-03032Y-03599*
X-03385*
X-03395Y-03601*
X-03405Y-03605*
X-03413Y-03611*
X-03419Y-03619*
X-03423Y-03629*
X-03425Y-0364*
Y-0367*
X-03432Y-03677*
X-03441Y-03686*
X-03447Y-03698*
X-03448Y-03702*
X-03478Y-03698*
Y-02872*
X-0347Y-02865*
X-03448Y-02856*
X-03439Y-02862*
X-03422Y-02869*
X-03404Y-02873*
X-03385Y-02875*
X-03367Y-02873*
X-03349Y-02869*
X-03331Y-02862*
X-03315Y-02852*
X-03301Y-0284*
X-03289Y-02825*
X-03279Y-02809*
X-03272Y-02792*
X-03268Y-02774*
X-03266Y-02755*
X-03268Y-02737*
X-03272Y-02719*
X-03279Y-02701*
X-03289Y-02685*
X-03301Y-02671*
X-03315Y-02659*
X-03331Y-02649*
X-03349Y-02642*
X-03367Y-02638*
X-03385Y-02636*
X-03404Y-02638*
X-03422Y-02642*
X-03439Y-02649*
X-03448Y-02655*
X-0347Y-02646*
X-03478Y-02639*
Y00001*
X-0347Y00008*
X-03448Y00017*
X-03439Y00011*
X-03422Y00004*
X-03404Y0*
X-03385Y-00001*
X-03367Y0*
X-03349Y00004*
X-03331Y00011*
X-03315Y00021*
X-03301Y00033*
X-03289Y00048*
X-03279Y00064*
X-03272Y00081*
X-03268Y00099*
X-03266Y00118*
X-03268Y00136*
X-03272Y00154*
X-03279Y00172*
X-03289Y00188*
X-03301Y00202*
X-03315Y00214*
X-03331Y00224*
X-03349Y00231*
X-03367Y00235*
X-03385Y00237*
X-03404Y00235*
X-03422Y00231*
X-03439Y00224*
X-03448Y00219*
X-0347Y00227*
X-03478Y00234*
Y02954*
X-0347Y02961*
X-03448Y02969*
X-03439Y02964*
X-03422Y02957*
X-03404Y02953*
X-03385Y02951*
X-03367Y02953*
X-03349Y02957*
X-03331Y02964*
X-03315Y02974*
X-03301Y02986*
X-03289Y03*
X-03279Y03016*
X-03272Y03034*
X-03268Y03052*
X-03266Y0307*
X-03268Y03089*
X-03272Y03107*
X-03279Y03124*
X-03284Y03133*
X-03276Y03155*
X-03269Y03163*
X-00116*
X-00109Y03155*
X-001Y03133*
X-00106Y03124*
X-00113Y03107*
X-00117Y03089*
X-00119Y0307*
X-00117Y03052*
X-00113Y03034*
X-00106Y03016*
X-00096Y03*
X-00084Y02986*
X-0007Y02974*
X-00054Y02964*
X-00036Y02957*
X-00018Y02953*
X0Y02951*
X00018Y02953*
X00036Y02957*
X00054Y02964*
X0007Y02974*
X00084Y02986*
X00096Y03*
X00106Y03016*
X00113Y03034*
X00117Y03052*
X00119Y0307*
X00117Y03089*
X00113Y03107*
X00106Y03124*
X001Y03133*
X00109Y03155*
X00116Y03163*
X03269*
X03276Y03155*
G37*
%LNwordclock_v20-2*%
%LPC*%
G36*
X02902Y02772D02*
X02889Y02771D01*
X02875Y02767*
X02863Y0276*
X02853Y02752*
X02844Y02741*
X02837Y02729*
X02833Y02716*
X02832Y02702*
Y02612*
X02833Y02598*
X02837Y02585*
X02844Y02573*
X02853Y02562*
X02863Y02554*
X02875Y02547*
X02889Y02543*
X02902Y02542*
X02902Y02542*
X02932Y02542*
X02933Y02542*
X02962Y02541*
Y02182*
X02933Y02181*
X02932Y02181*
X02902Y02182*
X02902Y02182*
X02889Y0218*
X02875Y02176*
X02863Y0217*
X02853Y02161*
X02844Y02151*
X02837Y02138*
X02833Y02125*
X02832Y02111*
Y02021*
X02833Y02008*
X02837Y01995*
X02844Y01982*
X02853Y01972*
X02863Y01963*
X02875Y01956*
X02889Y01952*
X02902Y01951*
X02902Y01951*
X02932Y01951*
X02933Y01951*
X02962Y01951*
Y01592*
X02933Y01591*
X02932Y01591*
X02902Y01591*
X02902Y01591*
X02889Y0159*
X02875Y01586*
X02863Y01579*
X02853Y01571*
X02844Y0156*
X02837Y01548*
X02833Y01535*
X02832Y01521*
Y01431*
X02833Y01417*
X02837Y01404*
X02844Y01392*
X02853Y01381*
X02863Y01372*
X02875Y01366*
X02889Y01362*
X02902Y01361*
X02902Y01361*
X02932Y01361*
X02933Y01361*
X02962Y0136*
Y01001*
X02933Y01*
X02932Y01*
X02902Y01001*
X02902Y01001*
X02889Y00999*
X02875Y00995*
X02863Y00989*
X02853Y0098*
X02844Y00969*
X02837Y00957*
X02833Y00944*
X02832Y0093*
Y0084*
X02833Y00827*
X02837Y00813*
X02844Y00801*
X02853Y00791*
X02863Y00782*
X02875Y00775*
X02889Y00771*
X02902Y0077*
X02902Y0077*
X02932Y0077*
X02933Y0077*
X02962Y00769*
Y00411*
X02933Y0041*
X02932Y0041*
X02902Y0041*
X02902Y0041*
X02889Y00409*
X02875Y00405*
X02863Y00398*
X02853Y0039*
X02844Y00379*
X02837Y00367*
X02833Y00354*
X02832Y0034*
Y0025*
X02833Y00236*
X02837Y00223*
X02844Y00211*
X02853Y002*
X02863Y00191*
X02875Y00185*
X02889Y00181*
X02902Y00179*
X02902Y00179*
X02932Y0018*
X02933Y0018*
X02962Y00179*
Y-00179*
X02933Y-0018*
X02932Y-0018*
X02902Y-00179*
X02902Y-00179*
X02889Y-00181*
X02875Y-00185*
X02863Y-00191*
X02853Y-002*
X02844Y-00211*
X02837Y-00223*
X02833Y-00236*
X02832Y-0025*
Y-0034*
X02833Y-00354*
X02837Y-00367*
X02844Y-00379*
X02853Y-0039*
X02863Y-00398*
X02875Y-00405*
X02889Y-00409*
X02902Y-0041*
X02902Y-0041*
X02932Y-0041*
X02933Y-0041*
X02962Y-00411*
Y-00769*
X02933Y-0077*
X02932Y-0077*
X02902Y-0077*
X02902Y-0077*
X02889Y-00771*
X02875Y-00775*
X02863Y-00782*
X02853Y-00791*
X02844Y-00801*
X02837Y-00813*
X02833Y-00827*
X02832Y-0084*
Y-0093*
X02833Y-00944*
X02837Y-00957*
X02844Y-00969*
X02853Y-0098*
X02863Y-00989*
X02875Y-00995*
X02889Y-00999*
X02902Y-01001*
X02902Y-01001*
X02932Y-01*
X02933Y-01*
X02962Y-01001*
Y-0136*
X02933Y-01361*
X02932Y-01361*
X02902Y-01361*
X02902Y-01361*
X02889Y-01362*
X02875Y-01366*
X02863Y-01372*
X02853Y-01381*
X02844Y-01392*
X02837Y-01404*
X02833Y-01417*
X02832Y-01431*
Y-01521*
X02833Y-01535*
X02837Y-01548*
X02844Y-0156*
X02853Y-01571*
X02863Y-01579*
X02875Y-01586*
X02889Y-0159*
X02902Y-01591*
X02902Y-01591*
X02932Y-01591*
X02933Y-01591*
X02962Y-01592*
Y-01951*
X02933Y-01951*
X02932Y-01951*
X02902Y-01951*
X02902Y-01951*
X02889Y-01952*
X02875Y-01956*
X02863Y-01963*
X02853Y-01972*
X02844Y-01982*
X02837Y-01995*
X02833Y-02008*
X02832Y-02021*
Y-02111*
X02833Y-02125*
X02837Y-02138*
X02844Y-02151*
X02853Y-02161*
X02863Y-0217*
X02875Y-02176*
X02889Y-0218*
X02902Y-02182*
X02902Y-02182*
X02932Y-02181*
X02933Y-02181*
X02962Y-02182*
Y-02541*
X02933Y-02542*
X02932Y-02542*
X02902Y-02542*
X02902Y-02542*
X02889Y-02543*
X02875Y-02547*
X02863Y-02554*
X02853Y-02562*
X02844Y-02573*
X02837Y-02585*
X02833Y-02598*
X02832Y-02612*
Y-02702*
X02833Y-02716*
X02837Y-02729*
X02844Y-02741*
X02853Y-02752*
X02863Y-0276*
X02875Y-02767*
X02889Y-02771*
X02902Y-02772*
X02902Y-02772*
X02932Y-02772*
X03072*
Y-02542*
X03043*
Y-02181*
X03072*
Y-01951*
X03043*
Y-01591*
X03072*
Y-01361*
X03043*
Y-01*
X03072*
Y-0077*
X03043*
Y-0041*
X03072*
Y-0018*
X03043*
Y0018*
X03072*
Y0041*
X03043*
Y0077*
X03072*
Y01*
X03043*
Y01361*
X03072*
Y01591*
X03043*
Y01951*
X03072*
Y02181*
X03043*
Y02542*
X03072*
Y02772*
X02932*
X02902Y02772*
X02902Y02772*
G37*
G36*
X02312D02*
X02298Y02771D01*
X02285Y02767*
X02273Y0276*
X02262Y02752*
X02253Y02741*
X02247Y02729*
X02243Y02716*
X02241Y02702*
Y02612*
X02243Y02598*
X02247Y02585*
X02253Y02573*
X02262Y02562*
X02273Y02554*
X02285Y02547*
X02298Y02543*
X02312Y02542*
X02312Y02542*
X02341Y02542*
X02343Y02542*
X02371Y02541*
Y02182*
X02343Y02181*
X02341Y02181*
X02312Y02182*
X02312Y02182*
X02298Y0218*
X02285Y02176*
X02273Y0217*
X02262Y02161*
X02253Y02151*
X02247Y02138*
X02243Y02125*
X02241Y02111*
Y02021*
X02243Y02008*
X02247Y01995*
X02253Y01982*
X02262Y01972*
X02273Y01963*
X02285Y01956*
X02298Y01952*
X02312Y01951*
X02312Y01951*
X02341Y01951*
X02343Y01951*
X02371Y01951*
Y01592*
X02343Y01591*
X02341Y01591*
X02312Y01591*
X02312Y01591*
X02298Y0159*
X02285Y01586*
X02273Y01579*
X02262Y01571*
X02253Y0156*
X02247Y01548*
X02243Y01535*
X02241Y01521*
Y01431*
X02243Y01417*
X02247Y01404*
X02253Y01392*
X02262Y01381*
X02273Y01372*
X02285Y01366*
X02298Y01362*
X02312Y01361*
X02312Y01361*
X02341Y01361*
X02343Y01361*
X02371Y0136*
Y01001*
X02343Y01*
X02341Y01*
X02312Y01001*
X02312Y01001*
X02298Y00999*
X02285Y00995*
X02273Y00989*
X02262Y0098*
X02253Y00969*
X02247Y00957*
X02243Y00944*
X02241Y0093*
Y0084*
X02243Y00827*
X02247Y00813*
X02253Y00801*
X02262Y00791*
X02273Y00782*
X02285Y00775*
X02298Y00771*
X02312Y0077*
X02312Y0077*
X02341Y0077*
X02343Y0077*
X02371Y00769*
Y00411*
X02343Y0041*
X02341Y0041*
X02312Y0041*
X02312Y0041*
X02298Y00409*
X02285Y00405*
X02273Y00398*
X02262Y0039*
X02253Y00379*
X02247Y00367*
X02243Y00354*
X02241Y0034*
Y0025*
X02243Y00236*
X02247Y00223*
X02253Y00211*
X02262Y002*
X02273Y00191*
X02285Y00185*
X02298Y00181*
X02312Y00179*
X02312Y00179*
X02341Y0018*
X02343Y0018*
X02371Y00179*
Y-00179*
X02343Y-0018*
X02341Y-0018*
X02312Y-00179*
X02312Y-00179*
X02298Y-00181*
X02285Y-00185*
X02273Y-00191*
X02262Y-002*
X02253Y-00211*
X02247Y-00223*
X02243Y-00236*
X02241Y-0025*
Y-0034*
X02243Y-00354*
X02247Y-00367*
X02253Y-00379*
X02262Y-0039*
X02273Y-00398*
X02285Y-00405*
X02298Y-00409*
X02312Y-0041*
X02312Y-0041*
X02341Y-0041*
X02343Y-0041*
X02371Y-00411*
Y-00769*
X02343Y-0077*
X02341Y-0077*
X02312Y-0077*
X02312Y-0077*
X02298Y-00771*
X02285Y-00775*
X02273Y-00782*
X02262Y-00791*
X02253Y-00801*
X02247Y-00813*
X02243Y-00827*
X02241Y-0084*
Y-0093*
X02243Y-00944*
X02247Y-00957*
X02253Y-00969*
X02262Y-0098*
X02273Y-00989*
X02285Y-00995*
X02298Y-00999*
X02312Y-01001*
X02312Y-01001*
X02341Y-01*
X02343Y-01*
X02371Y-01001*
Y-0136*
X02343Y-01361*
X02341Y-01361*
X02312Y-01361*
X02312Y-01361*
X02298Y-01362*
X02285Y-01366*
X02273Y-01372*
X02262Y-01381*
X02253Y-01392*
X02247Y-01404*
X02243Y-01417*
X02241Y-01431*
Y-01521*
X02243Y-01535*
X02247Y-01548*
X02253Y-0156*
X02262Y-01571*
X02273Y-01579*
X02285Y-01586*
X02298Y-0159*
X02312Y-01591*
X02312Y-01591*
X02341Y-01591*
X02343Y-01591*
X02371Y-01592*
Y-01951*
X02343Y-01951*
X02341Y-01951*
X02312Y-01951*
X02312Y-01951*
X02298Y-01952*
X02285Y-01956*
X02273Y-01963*
X02262Y-01972*
X02253Y-01982*
X02247Y-01995*
X02243Y-02008*
X02241Y-02021*
Y-02111*
X02243Y-02125*
X02247Y-02138*
X02253Y-02151*
X02262Y-02161*
X02273Y-0217*
X02285Y-02176*
X02298Y-0218*
X02312Y-02182*
X02312Y-02182*
X02341Y-02181*
X02343Y-02181*
X02371Y-02182*
Y-02541*
X02343Y-02542*
X02341Y-02542*
X02312Y-02542*
X02312Y-02542*
X02298Y-02543*
X02285Y-02547*
X02273Y-02554*
X02262Y-02562*
X02253Y-02573*
X02247Y-02585*
X02243Y-02598*
X02241Y-02612*
Y-02702*
X02243Y-02716*
X02247Y-02729*
X02253Y-02741*
X02262Y-02752*
X02273Y-0276*
X02285Y-02767*
X02298Y-02771*
X02312Y-02772*
X02312Y-02772*
X02342Y-02772*
X02482*
Y-02542*
X02452*
Y-02181*
X02482*
Y-01951*
X02452*
Y-01591*
X02482*
Y-01361*
X02452*
Y-01*
X02482*
Y-0077*
X02452*
Y-0041*
X02482*
Y-0018*
X02452*
Y0018*
X02482*
Y0041*
X02452*
Y0077*
X02482*
Y01*
X02452*
Y01361*
X02482*
Y01591*
X02452*
Y01951*
X02482*
Y02181*
X02452*
Y02542*
X02482*
Y02772*
X02342*
X02312Y02772*
X02312Y02772*
G37*
G36*
X01721D02*
X01707Y02771D01*
X01694Y02767*
X01682Y0276*
X01671Y02752*
X01663Y02741*
X01656Y02729*
X01652Y02716*
X01651Y02702*
Y02612*
X01652Y02598*
X01656Y02585*
X01663Y02573*
X01671Y02562*
X01682Y02554*
X01694Y02547*
X01707Y02543*
X01721Y02542*
X01721Y02542*
X01751Y02542*
X01752Y02542*
X01781Y02541*
Y02182*
X01752Y02181*
X01751Y02181*
X01721Y02182*
X01721Y02182*
X01707Y0218*
X01694Y02176*
X01682Y0217*
X01671Y02161*
X01663Y02151*
X01656Y02138*
X01652Y02125*
X01651Y02111*
Y02021*
X01652Y02008*
X01656Y01995*
X01663Y01982*
X01671Y01972*
X01682Y01963*
X01694Y01956*
X01707Y01952*
X01721Y01951*
X01721Y01951*
X01751Y01951*
X01752Y01951*
X01781Y01951*
Y01592*
X01752Y01591*
X01751Y01591*
X01721Y01591*
X01721Y01591*
X01707Y0159*
X01694Y01586*
X01682Y01579*
X01671Y01571*
X01663Y0156*
X01656Y01548*
X01652Y01535*
X01651Y01521*
Y01431*
X01652Y01417*
X01656Y01404*
X01663Y01392*
X01671Y01381*
X01682Y01372*
X01694Y01366*
X01707Y01362*
X01721Y01361*
X01721Y01361*
X01751Y01361*
X01752Y01361*
X01781Y0136*
Y01001*
X01752Y01*
X01751Y01*
X01721Y01001*
X01721Y01001*
X01707Y00999*
X01694Y00995*
X01682Y00989*
X01671Y0098*
X01663Y00969*
X01656Y00957*
X01652Y00944*
X01651Y0093*
Y0084*
X01652Y00827*
X01656Y00813*
X01663Y00801*
X01671Y00791*
X01682Y00782*
X01694Y00775*
X01707Y00771*
X01721Y0077*
X01721Y0077*
X01751Y0077*
X01752Y0077*
X01781Y00769*
Y00411*
X01752Y0041*
X01751Y0041*
X01721Y0041*
X01721Y0041*
X01707Y00409*
X01694Y00405*
X01682Y00398*
X01671Y0039*
X01663Y00379*
X01656Y00367*
X01652Y00354*
X01651Y0034*
Y0025*
X01652Y00236*
X01656Y00223*
X01663Y00211*
X01671Y002*
X01682Y00191*
X01694Y00185*
X01707Y00181*
X01721Y00179*
X01721Y00179*
X01751Y0018*
X01752Y0018*
X01781Y00179*
Y-00179*
X01752Y-0018*
X01751Y-0018*
X01721Y-00179*
X01721Y-00179*
X01707Y-00181*
X01694Y-00185*
X01682Y-00191*
X01671Y-002*
X01663Y-00211*
X01656Y-00223*
X01652Y-00236*
X01651Y-0025*
Y-0034*
X01652Y-00354*
X01656Y-00367*
X01663Y-00379*
X01671Y-0039*
X01682Y-00398*
X01694Y-00405*
X01707Y-00409*
X01721Y-0041*
X01721Y-0041*
X01751Y-0041*
X01752Y-0041*
X01781Y-00411*
Y-00769*
X01752Y-0077*
X01751Y-0077*
X01721Y-0077*
X01721Y-0077*
X01707Y-00771*
X01694Y-00775*
X01682Y-00782*
X01671Y-00791*
X01663Y-00801*
X01656Y-00813*
X01652Y-00827*
X01651Y-0084*
Y-0093*
X01652Y-00944*
X01656Y-00957*
X01663Y-00969*
X01671Y-0098*
X01682Y-00989*
X01694Y-00995*
X01707Y-00999*
X01721Y-01001*
X01721Y-01001*
X01751Y-01*
X01752Y-01*
X01781Y-01001*
Y-0136*
X01752Y-01361*
X01751Y-01361*
X01721Y-01361*
X01721Y-01361*
X01707Y-01362*
X01694Y-01366*
X01682Y-01372*
X01671Y-01381*
X01663Y-01392*
X01656Y-01404*
X01652Y-01417*
X01651Y-01431*
Y-01521*
X01652Y-01535*
X01656Y-01548*
X01663Y-0156*
X01671Y-01571*
X01682Y-01579*
X01694Y-01586*
X01707Y-0159*
X01721Y-01591*
X01721Y-01591*
X01751Y-01591*
X01752Y-01591*
X01781Y-01592*
Y-01951*
X01752Y-01951*
X01751Y-01951*
X01721Y-01951*
X01721Y-01951*
X01707Y-01952*
X01694Y-01956*
X01682Y-01963*
X01671Y-01972*
X01663Y-01982*
X01656Y-01995*
X01652Y-02008*
X01651Y-02021*
Y-02111*
X01652Y-02125*
X01656Y-02138*
X01663Y-02151*
X01671Y-02161*
X01682Y-0217*
X01694Y-02176*
X01707Y-0218*
X01721Y-02182*
X01721Y-02182*
X01751Y-02181*
X01752Y-02181*
X01781Y-02182*
Y-02541*
X01752Y-02542*
X01751Y-02542*
X01721Y-02542*
X01721Y-02542*
X01707Y-02543*
X01694Y-02547*
X01682Y-02554*
X01671Y-02562*
X01663Y-02573*
X01656Y-02585*
X01652Y-02598*
X01651Y-02612*
Y-02702*
X01652Y-02716*
X01656Y-02729*
X01663Y-02741*
X01671Y-02752*
X01682Y-0276*
X01694Y-02767*
X01707Y-02771*
X01721Y-02772*
X01721Y-02772*
X01751Y-02772*
X01891*
Y-02542*
X01862*
Y-02181*
X01891*
Y-01951*
X01862*
Y-01591*
X01891*
Y-01361*
X01862*
Y-01*
X01891*
Y-0077*
X01862*
Y-0041*
X01891*
Y-0018*
X01862*
Y0018*
X01891*
Y0041*
X01862*
Y0077*
X01891*
Y01*
X01862*
Y01361*
X01891*
Y01591*
X01862*
Y01951*
X01891*
Y02181*
X01862*
Y02542*
X01891*
Y02772*
X01751*
X01721Y02772*
X01721Y02772*
G37*
G36*
X01131D02*
X01117Y02771D01*
X01104Y02767*
X01092Y0276*
X01081Y02752*
X01072Y02741*
X01066Y02729*
X01062Y02716*
X0106Y02702*
Y02612*
X01062Y02598*
X01066Y02585*
X01072Y02573*
X01081Y02562*
X01092Y02554*
X01104Y02547*
X01117Y02543*
X01131Y02542*
X01131Y02542*
X0116Y02542*
X01162Y02542*
X0119Y02541*
Y02182*
X01162Y02181*
X0116Y02181*
X01131Y02182*
X01131Y02182*
X01117Y0218*
X01104Y02176*
X01092Y0217*
X01081Y02161*
X01072Y02151*
X01066Y02138*
X01062Y02125*
X0106Y02111*
Y02021*
X01062Y02008*
X01066Y01995*
X01072Y01982*
X01081Y01972*
X01092Y01963*
X01104Y01956*
X01117Y01952*
X01131Y01951*
X01131Y01951*
X0116Y01951*
X01162Y01951*
X0119Y01951*
Y01592*
X01162Y01591*
X0116Y01591*
X01131Y01591*
X01131Y01591*
X01117Y0159*
X01104Y01586*
X01092Y01579*
X01081Y01571*
X01072Y0156*
X01066Y01548*
X01062Y01535*
X0106Y01521*
Y01431*
X01062Y01417*
X01066Y01404*
X01072Y01392*
X01081Y01381*
X01092Y01372*
X01104Y01366*
X01117Y01362*
X01131Y01361*
X01131Y01361*
X0116Y01361*
X01162Y01361*
X0119Y0136*
Y01001*
X01162Y01*
X0116Y01*
X01131Y01001*
X01131Y01001*
X01117Y00999*
X01104Y00995*
X01092Y00989*
X01081Y0098*
X01072Y00969*
X01066Y00957*
X01062Y00944*
X0106Y0093*
Y0084*
X01062Y00827*
X01066Y00813*
X01072Y00801*
X01081Y00791*
X01092Y00782*
X01104Y00775*
X01117Y00771*
X01131Y0077*
X01131Y0077*
X0116Y0077*
X01162Y0077*
X0119Y00769*
Y00411*
X01162Y0041*
X0116Y0041*
X01131Y0041*
X01131Y0041*
X01117Y00409*
X01104Y00405*
X01092Y00398*
X01081Y0039*
X01072Y00379*
X01066Y00367*
X01062Y00354*
X0106Y0034*
Y0025*
X01062Y00236*
X01066Y00223*
X01072Y00211*
X01081Y002*
X01092Y00191*
X01104Y00185*
X01117Y00181*
X01131Y00179*
X01131Y00179*
X0116Y0018*
X01162Y0018*
X0119Y00179*
Y-00179*
X01162Y-0018*
X0116Y-0018*
X01131Y-00179*
X01131Y-00179*
X01117Y-00181*
X01104Y-00185*
X01092Y-00191*
X01081Y-002*
X01072Y-00211*
X01066Y-00223*
X01062Y-00236*
X0106Y-0025*
Y-0034*
X01062Y-00354*
X01066Y-00367*
X01072Y-00379*
X01081Y-0039*
X01092Y-00398*
X01104Y-00405*
X01117Y-00409*
X01131Y-0041*
X01131Y-0041*
X0116Y-0041*
X01162Y-0041*
X0119Y-00411*
Y-00769*
X01162Y-0077*
X0116Y-0077*
X01131Y-0077*
X01131Y-0077*
X01117Y-00771*
X01104Y-00775*
X01092Y-00782*
X01081Y-00791*
X01072Y-00801*
X01066Y-00813*
X01062Y-00827*
X0106Y-0084*
Y-0093*
X01062Y-00944*
X01066Y-00957*
X01072Y-00969*
X01081Y-0098*
X01092Y-00989*
X01104Y-00995*
X01117Y-00999*
X01131Y-01001*
X01131Y-01001*
X0116Y-01*
X01162Y-01*
X0119Y-01001*
Y-0136*
X01162Y-01361*
X0116Y-01361*
X01131Y-01361*
X01131Y-01361*
X01117Y-01362*
X01104Y-01366*
X01092Y-01372*
X01081Y-01381*
X01072Y-01392*
X01066Y-01404*
X01062Y-01417*
X0106Y-01431*
Y-01521*
X01062Y-01535*
X01066Y-01548*
X01072Y-0156*
X01081Y-01571*
X01092Y-01579*
X01104Y-01586*
X01117Y-0159*
X01131Y-01591*
X01131Y-01591*
X0116Y-01591*
X01162Y-01591*
X0119Y-01592*
Y-01951*
X01162Y-01951*
X0116Y-01951*
X01131Y-01951*
X01131Y-01951*
X01117Y-01952*
X01104Y-01956*
X01092Y-01963*
X01081Y-01972*
X01072Y-01982*
X01066Y-01995*
X01062Y-02008*
X0106Y-02021*
Y-02111*
X01062Y-02125*
X01066Y-02138*
X01072Y-02151*
X01081Y-02161*
X01092Y-0217*
X01104Y-02176*
X01117Y-0218*
X01131Y-02182*
X01131Y-02182*
X0116Y-02181*
X01162Y-02181*
X0119Y-02182*
Y-02541*
X01162Y-02542*
X0116Y-02542*
X01131Y-02542*
X01131Y-02542*
X01117Y-02543*
X01104Y-02547*
X01092Y-02554*
X01081Y-02562*
X01072Y-02573*
X01066Y-02585*
X01062Y-02598*
X0106Y-02612*
Y-02702*
X01062Y-02716*
X01066Y-02729*
X01072Y-02741*
X01081Y-02752*
X01092Y-0276*
X01104Y-02767*
X01117Y-02771*
X01131Y-02772*
X01131Y-02772*
X01161Y-02772*
X01301*
Y-02542*
X01271*
Y-02181*
X01301*
Y-01951*
X01271*
Y-01591*
X01301*
Y-01361*
X01271*
Y-01*
X01301*
Y-0077*
X01271*
Y-0041*
X01301*
Y-0018*
X01271*
Y0018*
X01301*
Y0041*
X01271*
Y0077*
X01301*
Y01*
X01271*
Y01361*
X01301*
Y01591*
X01271*
Y01951*
X01301*
Y02181*
X01271*
Y02542*
X01301*
Y02772*
X01161*
X01131Y02772*
X01131Y02772*
G37*
G36*
X0054D02*
X00526Y02771D01*
X00513Y02767*
X00501Y0276*
X0049Y02752*
X00482Y02741*
X00475Y02729*
X00471Y02716*
X0047Y02702*
Y02612*
X00471Y02598*
X00475Y02585*
X00482Y02573*
X0049Y02562*
X00501Y02554*
X00513Y02547*
X00526Y02543*
X0054Y02542*
X0054Y02542*
X0057Y02542*
X00571Y02542*
X006Y02541*
Y02182*
X00571Y02181*
X0057Y02181*
X0054Y02182*
X0054Y02182*
X00526Y0218*
X00513Y02176*
X00501Y0217*
X0049Y02161*
X00482Y02151*
X00475Y02138*
X00471Y02125*
X0047Y02111*
Y02021*
X00471Y02008*
X00475Y01995*
X00482Y01982*
X0049Y01972*
X00501Y01963*
X00513Y01956*
X00526Y01952*
X0054Y01951*
X0054Y01951*
X0057Y01951*
X00571Y01951*
X006Y01951*
Y01592*
X00571Y01591*
X0057Y01591*
X0054Y01591*
X0054Y01591*
X00526Y0159*
X00513Y01586*
X00501Y01579*
X0049Y01571*
X00482Y0156*
X00475Y01548*
X00471Y01535*
X0047Y01521*
Y01431*
X00471Y01417*
X00475Y01404*
X00482Y01392*
X0049Y01381*
X00501Y01372*
X00513Y01366*
X00526Y01362*
X0054Y01361*
X0054Y01361*
X0057Y01361*
X00571Y01361*
X006Y0136*
Y01001*
X00571Y01*
X0057Y01*
X0054Y01001*
X0054Y01001*
X00526Y00999*
X00513Y00995*
X00501Y00989*
X0049Y0098*
X00482Y00969*
X00475Y00957*
X00471Y00944*
X0047Y0093*
Y0084*
X00471Y00827*
X00475Y00813*
X00482Y00801*
X0049Y00791*
X00501Y00782*
X00513Y00775*
X00526Y00771*
X0054Y0077*
X0054Y0077*
X0057Y0077*
X00571Y0077*
X006Y00769*
Y00411*
X00571Y0041*
X0057Y0041*
X0054Y0041*
X0054Y0041*
X00526Y00409*
X00513Y00405*
X00501Y00398*
X0049Y0039*
X00482Y00379*
X00475Y00367*
X00471Y00354*
X0047Y0034*
Y0025*
X00471Y00236*
X00475Y00223*
X00482Y00211*
X0049Y002*
X00501Y00191*
X00513Y00185*
X00526Y00181*
X0054Y00179*
X0054Y00179*
X0057Y0018*
X00571Y0018*
X006Y00179*
Y-00179*
X00571Y-0018*
X0057Y-0018*
X0054Y-00179*
X0054Y-00179*
X00526Y-00181*
X00513Y-00185*
X00501Y-00191*
X0049Y-002*
X00482Y-00211*
X00475Y-00223*
X00471Y-00236*
X0047Y-0025*
Y-0034*
X00471Y-00354*
X00475Y-00367*
X00482Y-00379*
X0049Y-0039*
X00501Y-00398*
X00513Y-00405*
X00526Y-00409*
X0054Y-0041*
X0054Y-0041*
X0057Y-0041*
X00571Y-0041*
X006Y-00411*
Y-00769*
X00571Y-0077*
X0057Y-0077*
X0054Y-0077*
X0054Y-0077*
X00526Y-00771*
X00513Y-00775*
X00501Y-00782*
X0049Y-00791*
X00482Y-00801*
X00475Y-00813*
X00471Y-00827*
X0047Y-0084*
Y-0093*
X00471Y-00944*
X00475Y-00957*
X00482Y-00969*
X0049Y-0098*
X00501Y-00989*
X00513Y-00995*
X00526Y-00999*
X0054Y-01001*
X0054Y-01001*
X0057Y-01*
X00571Y-01*
X006Y-01001*
Y-0136*
X00571Y-01361*
X0057Y-01361*
X0054Y-01361*
X0054Y-01361*
X00526Y-01362*
X00513Y-01366*
X00501Y-01372*
X0049Y-01381*
X00482Y-01392*
X00475Y-01404*
X00471Y-01417*
X0047Y-01431*
Y-01521*
X00471Y-01535*
X00475Y-01548*
X00482Y-0156*
X0049Y-01571*
X00501Y-01579*
X00513Y-01586*
X00526Y-0159*
X0054Y-01591*
X0054Y-01591*
X0057Y-01591*
X00571Y-01591*
X006Y-01592*
Y-01951*
X00571Y-01951*
X0057Y-01951*
X0054Y-01951*
X0054Y-01951*
X00526Y-01952*
X00513Y-01956*
X00501Y-01963*
X0049Y-01972*
X00482Y-01982*
X00475Y-01995*
X00471Y-02008*
X0047Y-02021*
Y-02111*
X00471Y-02125*
X00475Y-02138*
X00482Y-02151*
X0049Y-02161*
X00501Y-0217*
X00513Y-02176*
X00526Y-0218*
X0054Y-02182*
X0054Y-02182*
X0057Y-02181*
X00571Y-02181*
X006Y-02182*
Y-02541*
X00571Y-02542*
X0057Y-02542*
X0054Y-02542*
X0054Y-02542*
X00526Y-02543*
X00513Y-02547*
X00501Y-02554*
X0049Y-02562*
X00482Y-02573*
X00475Y-02585*
X00471Y-02598*
X0047Y-02612*
Y-02702*
X00471Y-02716*
X00475Y-02729*
X00482Y-02741*
X0049Y-02752*
X00501Y-0276*
X00513Y-02767*
X00526Y-02771*
X0054Y-02772*
X0054Y-02772*
X0057Y-02772*
X0071*
Y-02542*
X0068*
Y-02181*
X0071*
Y-01951*
X0068*
Y-01591*
X0071*
Y-01361*
X0068*
Y-01*
X0071*
Y-0077*
X0068*
Y-0041*
X0071*
Y-0018*
X0068*
Y0018*
X0071*
Y0041*
X0068*
Y0077*
X0071*
Y01*
X0068*
Y01361*
X0071*
Y01591*
X0068*
Y01951*
X0071*
Y02181*
X0068*
Y02542*
X0071*
Y02772*
X0057*
X0054Y02772*
X0054Y02772*
G37*
G36*
X-0005D02*
X-00063Y02771D01*
X-00076Y02767*
X-00089Y0276*
X-00099Y02752*
X-00108Y02741*
X-00114Y02729*
X-00118Y02716*
X-0012Y02702*
Y02612*
X-00118Y02598*
X-00114Y02585*
X-00108Y02573*
X-00099Y02562*
X-00089Y02554*
X-00076Y02547*
X-00063Y02543*
X-0005Y02542*
X-00049Y02542*
X-0002Y02542*
X-00019Y02542*
X00009Y02541*
Y02182*
X-00019Y02181*
X-0002Y02181*
X-00049Y02182*
X-0005Y02182*
X-00063Y0218*
X-00076Y02176*
X-00089Y0217*
X-00099Y02161*
X-00108Y02151*
X-00114Y02138*
X-00118Y02125*
X-0012Y02111*
Y02021*
X-00118Y02008*
X-00114Y01995*
X-00108Y01982*
X-00099Y01972*
X-00089Y01963*
X-00076Y01956*
X-00063Y01952*
X-0005Y01951*
X-00049Y01951*
X-0002Y01951*
X-00019Y01951*
X00009Y01951*
Y01592*
X-00019Y01591*
X-0002Y01591*
X-00049Y01591*
X-0005Y01591*
X-00063Y0159*
X-00076Y01586*
X-00089Y01579*
X-00099Y01571*
X-00108Y0156*
X-00114Y01548*
X-00118Y01535*
X-0012Y01521*
Y01431*
X-00118Y01417*
X-00114Y01404*
X-00108Y01392*
X-00099Y01381*
X-00089Y01372*
X-00076Y01366*
X-00063Y01362*
X-0005Y01361*
X-00049Y01361*
X-0002Y01361*
X-00019Y01361*
X00009Y0136*
Y01001*
X-00019Y01*
X-0002Y01*
X-00049Y01001*
X-0005Y01001*
X-00063Y00999*
X-00076Y00995*
X-00089Y00989*
X-00099Y0098*
X-00108Y00969*
X-00114Y00957*
X-00118Y00944*
X-0012Y0093*
Y0084*
X-00118Y00827*
X-00114Y00813*
X-00108Y00801*
X-00099Y00791*
X-00089Y00782*
X-00076Y00775*
X-00063Y00771*
X-0005Y0077*
X-00049Y0077*
X-0002Y0077*
X-00019Y0077*
X00009Y00769*
Y00411*
X-00019Y0041*
X-0002Y0041*
X-00049Y0041*
X-0005Y0041*
X-00063Y00409*
X-00076Y00405*
X-00089Y00398*
X-00099Y0039*
X-00108Y00379*
X-00114Y00367*
X-00118Y00354*
X-0012Y0034*
Y0025*
X-00118Y00236*
X-00114Y00223*
X-00108Y00211*
X-00099Y002*
X-00089Y00191*
X-00076Y00185*
X-00063Y00181*
X-0005Y00179*
X-00049Y00179*
X-0002Y0018*
X-00019Y0018*
X00009Y00179*
Y-00179*
X-00019Y-0018*
X-0002Y-0018*
X-00049Y-00179*
X-0005Y-00179*
X-00063Y-00181*
X-00076Y-00185*
X-00089Y-00191*
X-00099Y-002*
X-00108Y-00211*
X-00114Y-00223*
X-00118Y-00236*
X-0012Y-0025*
Y-0034*
X-00118Y-00354*
X-00114Y-00367*
X-00108Y-00379*
X-00099Y-0039*
X-00089Y-00398*
X-00076Y-00405*
X-00063Y-00409*
X-0005Y-0041*
X-00049Y-0041*
X-0002Y-0041*
X-00019Y-0041*
X00009Y-00411*
Y-00769*
X-00019Y-0077*
X-0002Y-0077*
X-00049Y-0077*
X-0005Y-0077*
X-00063Y-00771*
X-00076Y-00775*
X-00089Y-00782*
X-00099Y-00791*
X-00108Y-00801*
X-00114Y-00813*
X-00118Y-00827*
X-0012Y-0084*
Y-0093*
X-00118Y-00944*
X-00114Y-00957*
X-00108Y-00969*
X-00099Y-0098*
X-00089Y-00989*
X-00076Y-00995*
X-00063Y-00999*
X-0005Y-01001*
X-00049Y-01001*
X-0002Y-01*
X-00019Y-01*
X00009Y-01001*
Y-0136*
X-00019Y-01361*
X-0002Y-01361*
X-00049Y-01361*
X-0005Y-01361*
X-00063Y-01362*
X-00076Y-01366*
X-00089Y-01372*
X-00099Y-01381*
X-00108Y-01392*
X-00114Y-01404*
X-00118Y-01417*
X-0012Y-01431*
Y-01521*
X-00118Y-01535*
X-00114Y-01548*
X-00108Y-0156*
X-00099Y-01571*
X-00089Y-01579*
X-00076Y-01586*
X-00063Y-0159*
X-0005Y-01591*
X-00049Y-01591*
X-0002Y-01591*
X-00019Y-01591*
X00009Y-01592*
Y-01951*
X-00019Y-01951*
X-0002Y-01951*
X-00049Y-01951*
X-0005Y-01951*
X-00063Y-01952*
X-00076Y-01956*
X-00089Y-01963*
X-00099Y-01972*
X-00108Y-01982*
X-00114Y-01995*
X-00118Y-02008*
X-0012Y-02021*
Y-02111*
X-00118Y-02125*
X-00114Y-02138*
X-00108Y-02151*
X-00099Y-02161*
X-00089Y-0217*
X-00076Y-02176*
X-00063Y-0218*
X-0005Y-02182*
X-00049Y-02182*
X-0002Y-02181*
X-00019Y-02181*
X00009Y-02182*
Y-02541*
X-00019Y-02542*
X-0002Y-02542*
X-00049Y-02542*
X-0005Y-02542*
X-00063Y-02543*
X-00076Y-02547*
X-00089Y-02554*
X-00099Y-02562*
X-00108Y-02573*
X-00114Y-02585*
X-00118Y-02598*
X-0012Y-02612*
Y-02702*
X-00118Y-02716*
X-00114Y-02729*
X-00108Y-02741*
X-00099Y-02752*
X-00089Y-0276*
X-00076Y-02767*
X-00063Y-02771*
X-0005Y-02772*
X-00049Y-02772*
X-0002Y-02772*
X0012*
Y-02542*
X0009*
Y-02181*
X0012*
Y-01951*
X0009*
Y-01591*
X0012*
Y-01361*
X0009*
Y-01*
X0012*
Y-0077*
X0009*
Y-0041*
X0012*
Y-0018*
X0009*
Y0018*
X0012*
Y0041*
X0009*
Y0077*
X0012*
Y01*
X0009*
Y01361*
X0012*
Y01591*
X0009*
Y01951*
X0012*
Y02181*
X0009*
Y02542*
X0012*
Y02772*
X-0002*
X-00049Y02772*
X-0005Y02772*
G37*
G36*
X-0064D02*
X-00654Y02771D01*
X-00667Y02767*
X-00679Y0276*
X-0069Y02752*
X-00699Y02741*
X-00705Y02729*
X-00709Y02716*
X-0071Y02702*
Y02612*
X-00709Y02598*
X-00705Y02585*
X-00699Y02573*
X-0069Y02562*
X-00679Y02554*
X-00667Y02547*
X-00654Y02543*
X-0064Y02542*
X-0064Y02542*
X-0061Y02542*
X-00609Y02542*
X-0058Y02541*
Y02182*
X-00609Y02181*
X-0061Y02181*
X-0064Y02182*
X-0064Y02182*
X-00654Y0218*
X-00667Y02176*
X-00679Y0217*
X-0069Y02161*
X-00699Y02151*
X-00705Y02138*
X-00709Y02125*
X-0071Y02111*
Y02021*
X-00709Y02008*
X-00705Y01995*
X-00699Y01982*
X-0069Y01972*
X-00679Y01963*
X-00667Y01956*
X-00654Y01952*
X-0064Y01951*
X-0064Y01951*
X-0061Y01951*
X-00609Y01951*
X-0058Y01951*
Y01592*
X-00609Y01591*
X-0061Y01591*
X-0064Y01591*
X-0064Y01591*
X-00654Y0159*
X-00667Y01586*
X-00679Y01579*
X-0069Y01571*
X-00699Y0156*
X-00705Y01548*
X-00709Y01535*
X-0071Y01521*
Y01431*
X-00709Y01417*
X-00705Y01404*
X-00699Y01392*
X-0069Y01381*
X-00679Y01372*
X-00667Y01366*
X-00654Y01362*
X-0064Y01361*
X-0064Y01361*
X-0061Y01361*
X-00609Y01361*
X-0058Y0136*
Y01001*
X-00609Y01*
X-0061Y01*
X-0064Y01001*
X-0064Y01001*
X-00654Y00999*
X-00667Y00995*
X-00679Y00989*
X-0069Y0098*
X-00699Y00969*
X-00705Y00957*
X-00709Y00944*
X-0071Y0093*
Y0084*
X-00709Y00827*
X-00705Y00813*
X-00699Y00801*
X-0069Y00791*
X-00679Y00782*
X-00667Y00775*
X-00654Y00771*
X-0064Y0077*
X-0064Y0077*
X-0061Y0077*
X-00609Y0077*
X-0058Y00769*
Y00411*
X-00609Y0041*
X-0061Y0041*
X-0064Y0041*
X-0064Y0041*
X-00654Y00409*
X-00667Y00405*
X-00679Y00398*
X-0069Y0039*
X-00699Y00379*
X-00705Y00367*
X-00709Y00354*
X-0071Y0034*
Y0025*
X-00709Y00236*
X-00705Y00223*
X-00699Y00211*
X-0069Y002*
X-00679Y00191*
X-00667Y00185*
X-00654Y00181*
X-0064Y00179*
X-0064Y00179*
X-0061Y0018*
X-00609Y0018*
X-0058Y00179*
Y-00179*
X-00609Y-0018*
X-0061Y-0018*
X-0064Y-00179*
X-0064Y-00179*
X-00654Y-00181*
X-00667Y-00185*
X-00679Y-00191*
X-0069Y-002*
X-00699Y-00211*
X-00705Y-00223*
X-00709Y-00236*
X-0071Y-0025*
Y-0034*
X-00709Y-00354*
X-00705Y-00367*
X-00699Y-00379*
X-0069Y-0039*
X-00679Y-00398*
X-00667Y-00405*
X-00654Y-00409*
X-0064Y-0041*
X-0064Y-0041*
X-0061Y-0041*
X-00609Y-0041*
X-0058Y-00411*
Y-00769*
X-00609Y-0077*
X-0061Y-0077*
X-0064Y-0077*
X-0064Y-0077*
X-00654Y-00771*
X-00667Y-00775*
X-00679Y-00782*
X-0069Y-00791*
X-00699Y-00801*
X-00705Y-00813*
X-00709Y-00827*
X-0071Y-0084*
Y-0093*
X-00709Y-00944*
X-00705Y-00957*
X-00699Y-00969*
X-0069Y-0098*
X-00679Y-00989*
X-00667Y-00995*
X-00654Y-00999*
X-0064Y-01001*
X-0064Y-01001*
X-0061Y-01*
X-00609Y-01*
X-0058Y-01001*
Y-0136*
X-00609Y-01361*
X-0061Y-01361*
X-0064Y-01361*
X-0064Y-01361*
X-00654Y-01362*
X-00667Y-01366*
X-00679Y-01372*
X-0069Y-01381*
X-00699Y-01392*
X-00705Y-01404*
X-00709Y-01417*
X-0071Y-01431*
Y-01521*
X-00709Y-01535*
X-00705Y-01548*
X-00699Y-0156*
X-0069Y-01571*
X-00679Y-01579*
X-00667Y-01586*
X-00654Y-0159*
X-0064Y-01591*
X-0064Y-01591*
X-0061Y-01591*
X-00609Y-01591*
X-0058Y-01592*
Y-01951*
X-00609Y-01951*
X-0061Y-01951*
X-0064Y-01951*
X-0064Y-01951*
X-00654Y-01952*
X-00667Y-01956*
X-00679Y-01963*
X-0069Y-01972*
X-00699Y-01982*
X-00705Y-01995*
X-00709Y-02008*
X-0071Y-02021*
Y-02111*
X-00709Y-02125*
X-00705Y-02138*
X-00699Y-02151*
X-0069Y-02161*
X-00679Y-0217*
X-00667Y-02176*
X-00654Y-0218*
X-0064Y-02182*
X-0064Y-02182*
X-0061Y-02181*
X-00609Y-02181*
X-0058Y-02182*
Y-02541*
X-00609Y-02542*
X-0061Y-02542*
X-0064Y-02542*
X-0064Y-02542*
X-00654Y-02543*
X-00667Y-02547*
X-00679Y-02554*
X-0069Y-02562*
X-00699Y-02573*
X-00705Y-02585*
X-00709Y-02598*
X-0071Y-02612*
Y-02702*
X-00709Y-02716*
X-00705Y-02729*
X-00699Y-02741*
X-0069Y-02752*
X-00679Y-0276*
X-00667Y-02767*
X-00654Y-02771*
X-0064Y-02772*
X-0064Y-02772*
X-0061Y-02772*
X-0047*
Y-02542*
X-005*
Y-02181*
X-0047*
Y-01951*
X-005*
Y-01591*
X-0047*
Y-01361*
X-005*
Y-01*
X-0047*
Y-0077*
X-005*
Y-0041*
X-0047*
Y-0018*
X-005*
Y0018*
X-0047*
Y0041*
X-005*
Y0077*
X-0047*
Y01*
X-005*
Y01361*
X-0047*
Y01591*
X-005*
Y01951*
X-0047*
Y02181*
X-005*
Y02542*
X-0047*
Y02772*
X-0061*
X-0064Y02772*
X-0064Y02772*
G37*
G36*
X-01231D02*
X-01244Y02771D01*
X-01258Y02767*
X-0127Y0276*
X-0128Y02752*
X-01289Y02741*
X-01296Y02729*
X-013Y02716*
X-01301Y02702*
Y02612*
X-013Y02598*
X-01296Y02585*
X-01289Y02573*
X-0128Y02562*
X-0127Y02554*
X-01258Y02547*
X-01244Y02543*
X-01231Y02542*
X-0123Y02542*
X-01201Y02542*
X-012Y02542*
X-01171Y02541*
Y02182*
X-012Y02181*
X-01201Y02181*
X-0123Y02182*
X-01231Y02182*
X-01244Y0218*
X-01258Y02176*
X-0127Y0217*
X-0128Y02161*
X-01289Y02151*
X-01296Y02138*
X-013Y02125*
X-01301Y02111*
Y02021*
X-013Y02008*
X-01296Y01995*
X-01289Y01982*
X-0128Y01972*
X-0127Y01963*
X-01258Y01956*
X-01244Y01952*
X-01231Y01951*
X-0123Y01951*
X-01201Y01951*
X-012Y01951*
X-01171Y01951*
Y01592*
X-012Y01591*
X-01201Y01591*
X-0123Y01591*
X-01231Y01591*
X-01244Y0159*
X-01258Y01586*
X-0127Y01579*
X-0128Y01571*
X-01289Y0156*
X-01296Y01548*
X-013Y01535*
X-01301Y01521*
Y01431*
X-013Y01417*
X-01296Y01404*
X-01289Y01392*
X-0128Y01381*
X-0127Y01372*
X-01258Y01366*
X-01244Y01362*
X-01231Y01361*
X-0123Y01361*
X-01201Y01361*
X-012Y01361*
X-01171Y0136*
Y01001*
X-012Y01*
X-01201Y01*
X-0123Y01001*
X-01231Y01001*
X-01244Y00999*
X-01258Y00995*
X-0127Y00989*
X-0128Y0098*
X-01289Y00969*
X-01296Y00957*
X-013Y00944*
X-01301Y0093*
Y0084*
X-013Y00827*
X-01296Y00813*
X-01289Y00801*
X-0128Y00791*
X-0127Y00782*
X-01258Y00775*
X-01244Y00771*
X-01231Y0077*
X-0123Y0077*
X-01201Y0077*
X-012Y0077*
X-01171Y00769*
Y00411*
X-012Y0041*
X-01201Y0041*
X-0123Y0041*
X-01231Y0041*
X-01244Y00409*
X-01258Y00405*
X-0127Y00398*
X-0128Y0039*
X-01289Y00379*
X-01296Y00367*
X-013Y00354*
X-01301Y0034*
Y0025*
X-013Y00236*
X-01296Y00223*
X-01289Y00211*
X-0128Y002*
X-0127Y00191*
X-01258Y00185*
X-01244Y00181*
X-01231Y00179*
X-0123Y00179*
X-01201Y0018*
X-012Y0018*
X-01171Y00179*
Y-00179*
X-012Y-0018*
X-01201Y-0018*
X-0123Y-00179*
X-01231Y-00179*
X-01244Y-00181*
X-01258Y-00185*
X-0127Y-00191*
X-0128Y-002*
X-01289Y-00211*
X-01296Y-00223*
X-013Y-00236*
X-01301Y-0025*
Y-0034*
X-013Y-00354*
X-01296Y-00367*
X-01289Y-00379*
X-0128Y-0039*
X-0127Y-00398*
X-01258Y-00405*
X-01244Y-00409*
X-01231Y-0041*
X-0123Y-0041*
X-01201Y-0041*
X-012Y-0041*
X-01171Y-00411*
Y-00769*
X-012Y-0077*
X-01201Y-0077*
X-0123Y-0077*
X-01231Y-0077*
X-01244Y-00771*
X-01258Y-00775*
X-0127Y-00782*
X-0128Y-00791*
X-01289Y-00801*
X-01296Y-00813*
X-013Y-00827*
X-01301Y-0084*
Y-0093*
X-013Y-00944*
X-01296Y-00957*
X-01289Y-00969*
X-0128Y-0098*
X-0127Y-00989*
X-01258Y-00995*
X-01244Y-00999*
X-01231Y-01001*
X-0123Y-01001*
X-01201Y-01*
X-012Y-01*
X-01171Y-01001*
Y-0136*
X-012Y-01361*
X-01201Y-01361*
X-0123Y-01361*
X-01231Y-01361*
X-01244Y-01362*
X-01258Y-01366*
X-0127Y-01372*
X-0128Y-01381*
X-01289Y-01392*
X-01296Y-01404*
X-013Y-01417*
X-01301Y-01431*
Y-01521*
X-013Y-01535*
X-01296Y-01548*
X-01289Y-0156*
X-0128Y-01571*
X-0127Y-01579*
X-01258Y-01586*
X-01244Y-0159*
X-01231Y-01591*
X-0123Y-01591*
X-01201Y-01591*
X-012Y-01591*
X-01171Y-01592*
Y-01951*
X-012Y-01951*
X-01201Y-01951*
X-0123Y-01951*
X-01231Y-01951*
X-01244Y-01952*
X-01258Y-01956*
X-0127Y-01963*
X-0128Y-01972*
X-01289Y-01982*
X-01296Y-01995*
X-013Y-02008*
X-01301Y-02021*
Y-02111*
X-013Y-02125*
X-01296Y-02138*
X-01289Y-02151*
X-0128Y-02161*
X-0127Y-0217*
X-01258Y-02176*
X-01244Y-0218*
X-01231Y-02182*
X-0123Y-02182*
X-01201Y-02181*
X-012Y-02181*
X-01171Y-02182*
Y-02541*
X-012Y-02542*
X-01201Y-02542*
X-0123Y-02542*
X-01231Y-02542*
X-01244Y-02543*
X-01258Y-02547*
X-0127Y-02554*
X-0128Y-02562*
X-01289Y-02573*
X-01296Y-02585*
X-013Y-02598*
X-01301Y-02612*
Y-02702*
X-013Y-02716*
X-01296Y-02729*
X-01289Y-02741*
X-0128Y-02752*
X-0127Y-0276*
X-01258Y-02767*
X-01244Y-02771*
X-01231Y-02772*
X-0123Y-02772*
X-01201Y-02772*
X-01061*
Y-02542*
X-0109*
Y-02181*
X-01061*
Y-01951*
X-0109*
Y-01591*
X-01061*
Y-01361*
X-0109*
Y-01*
X-01061*
Y-0077*
X-0109*
Y-0041*
X-01061*
Y-0018*
X-0109*
Y0018*
X-01061*
Y0041*
X-0109*
Y0077*
X-01061*
Y01*
X-0109*
Y01361*
X-01061*
Y01591*
X-0109*
Y01951*
X-01061*
Y02181*
X-0109*
Y02542*
X-01061*
Y02772*
X-01201*
X-0123Y02772*
X-01231Y02772*
G37*
G36*
X-01821D02*
X-01835Y02771D01*
X-01848Y02767*
X-0186Y0276*
X-01871Y02752*
X-0188Y02741*
X-01886Y02729*
X-0189Y02716*
X-01892Y02702*
Y02612*
X-0189Y02598*
X-01886Y02585*
X-0188Y02573*
X-01871Y02562*
X-0186Y02554*
X-01848Y02547*
X-01835Y02543*
X-01821Y02542*
X-01821Y02542*
X-01792Y02542*
X-0179Y02542*
X-01762Y02541*
Y02182*
X-0179Y02181*
X-01792Y02181*
X-01821Y02182*
X-01821Y02182*
X-01835Y0218*
X-01848Y02176*
X-0186Y0217*
X-01871Y02161*
X-0188Y02151*
X-01886Y02138*
X-0189Y02125*
X-01892Y02111*
Y02021*
X-0189Y02008*
X-01886Y01995*
X-0188Y01982*
X-01871Y01972*
X-0186Y01963*
X-01848Y01956*
X-01835Y01952*
X-01821Y01951*
X-01821Y01951*
X-01792Y01951*
X-0179Y01951*
X-01762Y01951*
Y01592*
X-0179Y01591*
X-01792Y01591*
X-01821Y01591*
X-01821Y01591*
X-01835Y0159*
X-01848Y01586*
X-0186Y01579*
X-01871Y01571*
X-0188Y0156*
X-01886Y01548*
X-0189Y01535*
X-01892Y01521*
Y01431*
X-0189Y01417*
X-01886Y01404*
X-0188Y01392*
X-01871Y01381*
X-0186Y01372*
X-01848Y01366*
X-01835Y01362*
X-01821Y01361*
X-01821Y01361*
X-01792Y01361*
X-0179Y01361*
X-01762Y0136*
Y01001*
X-0179Y01*
X-01792Y01*
X-01821Y01001*
X-01821Y01001*
X-01835Y00999*
X-01848Y00995*
X-0186Y00989*
X-01871Y0098*
X-0188Y00969*
X-01886Y00957*
X-0189Y00944*
X-01892Y0093*
Y0084*
X-0189Y00827*
X-01886Y00813*
X-0188Y00801*
X-01871Y00791*
X-0186Y00782*
X-01848Y00775*
X-01835Y00771*
X-01821Y0077*
X-01821Y0077*
X-01792Y0077*
X-0179Y0077*
X-01762Y00769*
Y00411*
X-0179Y0041*
X-01792Y0041*
X-01821Y0041*
X-01821Y0041*
X-01835Y00409*
X-01848Y00405*
X-0186Y00398*
X-01871Y0039*
X-0188Y00379*
X-01886Y00367*
X-0189Y00354*
X-01892Y0034*
Y0025*
X-0189Y00236*
X-01886Y00223*
X-0188Y00211*
X-01871Y002*
X-0186Y00191*
X-01848Y00185*
X-01835Y00181*
X-01821Y00179*
X-01821Y00179*
X-01792Y0018*
X-0179Y0018*
X-01762Y00179*
Y-00179*
X-0179Y-0018*
X-01792Y-0018*
X-01821Y-00179*
X-01821Y-00179*
X-01835Y-00181*
X-01848Y-00185*
X-0186Y-00191*
X-01871Y-002*
X-0188Y-00211*
X-01886Y-00223*
X-0189Y-00236*
X-01892Y-0025*
Y-0034*
X-0189Y-00354*
X-01886Y-00367*
X-0188Y-00379*
X-01871Y-0039*
X-0186Y-00398*
X-01848Y-00405*
X-01835Y-00409*
X-01821Y-0041*
X-01821Y-0041*
X-01792Y-0041*
X-0179Y-0041*
X-01762Y-00411*
Y-00769*
X-0179Y-0077*
X-01792Y-0077*
X-01821Y-0077*
X-01821Y-0077*
X-01835Y-00771*
X-01848Y-00775*
X-0186Y-00782*
X-01871Y-00791*
X-0188Y-00801*
X-01886Y-00813*
X-0189Y-00827*
X-01892Y-0084*
Y-0093*
X-0189Y-00944*
X-01886Y-00957*
X-0188Y-00969*
X-01871Y-0098*
X-0186Y-00989*
X-01848Y-00995*
X-01835Y-00999*
X-01821Y-01001*
X-01821Y-01001*
X-01792Y-01*
X-0179Y-01*
X-01762Y-01001*
Y-0136*
X-0179Y-01361*
X-01792Y-01361*
X-01821Y-01361*
X-01821Y-01361*
X-01835Y-01362*
X-01848Y-01366*
X-0186Y-01372*
X-01871Y-01381*
X-0188Y-01392*
X-01886Y-01404*
X-0189Y-01417*
X-01892Y-01431*
Y-01521*
X-0189Y-01535*
X-01886Y-01548*
X-0188Y-0156*
X-01871Y-01571*
X-0186Y-01579*
X-01848Y-01586*
X-01835Y-0159*
X-01821Y-01591*
X-01821Y-01591*
X-01792Y-01591*
X-0179Y-01591*
X-01762Y-01592*
Y-01951*
X-0179Y-01951*
X-01792Y-01951*
X-01821Y-01951*
X-01821Y-01951*
X-01835Y-01952*
X-01848Y-01956*
X-0186Y-01963*
X-01871Y-01972*
X-0188Y-01982*
X-01886Y-01995*
X-0189Y-02008*
X-01892Y-02021*
Y-02111*
X-0189Y-02125*
X-01886Y-02138*
X-0188Y-02151*
X-01871Y-02161*
X-0186Y-0217*
X-01848Y-02176*
X-01835Y-0218*
X-01821Y-02182*
X-01821Y-02182*
X-01792Y-02181*
X-0179Y-02181*
X-01762Y-02182*
Y-02541*
X-0179Y-02542*
X-01792Y-02542*
X-01821Y-02542*
X-01821Y-02542*
X-01835Y-02543*
X-01848Y-02547*
X-0186Y-02554*
X-01871Y-02562*
X-0188Y-02573*
X-01886Y-02585*
X-0189Y-02598*
X-01892Y-02612*
Y-02702*
X-0189Y-02716*
X-01886Y-02729*
X-0188Y-02741*
X-01871Y-02752*
X-0186Y-0276*
X-01848Y-02767*
X-01835Y-02771*
X-01821Y-02772*
X-01821Y-02772*
X-01791Y-02772*
X-01651*
Y-02542*
X-01681*
Y-02181*
X-01651*
Y-01951*
X-01681*
Y-01591*
X-01651*
Y-01361*
X-01681*
Y-01*
X-01651*
Y-0077*
X-01681*
Y-0041*
X-01651*
Y-0018*
X-01681*
Y0018*
X-01651*
Y0041*
X-01681*
Y0077*
X-01651*
Y01*
X-01681*
Y01361*
X-01651*
Y01591*
X-01681*
Y01951*
X-01651*
Y02181*
X-01681*
Y02542*
X-01651*
Y02772*
X-01791*
X-01821Y02772*
X-01821Y02772*
G37*
G36*
X-03002D02*
X-03016Y02771D01*
X-03029Y02767*
X-03041Y0276*
X-03052Y02752*
X-03061Y02741*
X-03067Y02729*
X-03071Y02716*
X-03073Y02702*
Y02612*
X-03071Y02598*
X-03067Y02585*
X-03061Y02573*
X-03052Y02562*
X-03041Y02554*
X-03029Y02547*
X-03016Y02543*
X-03002Y02542*
X-03002Y02542*
X-02973Y02542*
X-02971Y02542*
X-02943Y02541*
Y02182*
X-02971Y02181*
X-02973Y02181*
X-03002Y02182*
X-03002Y02182*
X-03016Y0218*
X-03029Y02176*
X-03041Y0217*
X-03052Y02161*
X-03061Y02151*
X-03067Y02138*
X-03071Y02125*
X-03073Y02111*
Y02021*
X-03071Y02008*
X-03067Y01995*
X-03061Y01982*
X-03052Y01972*
X-03041Y01963*
X-03029Y01956*
X-03016Y01952*
X-03002Y01951*
X-03002Y01951*
X-02973Y01951*
X-02971Y01951*
X-02943Y01951*
Y01592*
X-02971Y01591*
X-02973Y01591*
X-03002Y01591*
X-03002Y01591*
X-03016Y0159*
X-03029Y01586*
X-03041Y01579*
X-03052Y01571*
X-03061Y0156*
X-03067Y01548*
X-03071Y01535*
X-03073Y01521*
Y01431*
X-03071Y01417*
X-03067Y01404*
X-03061Y01392*
X-03052Y01381*
X-03041Y01372*
X-03029Y01366*
X-03016Y01362*
X-03002Y01361*
X-03002Y01361*
X-02973Y01361*
X-02971Y01361*
X-02943Y0136*
Y01001*
X-02971Y01*
X-02973Y01*
X-03002Y01001*
X-03002Y01001*
X-03016Y00999*
X-03029Y00995*
X-03041Y00989*
X-03052Y0098*
X-03061Y00969*
X-03067Y00957*
X-03071Y00944*
X-03073Y0093*
Y0084*
X-03071Y00827*
X-03067Y00813*
X-03061Y00801*
X-03052Y00791*
X-03041Y00782*
X-03029Y00775*
X-03016Y00771*
X-03002Y0077*
X-03002Y0077*
X-02973Y0077*
X-02971Y0077*
X-02943Y00769*
Y00411*
X-02971Y0041*
X-02973Y0041*
X-03002Y0041*
X-03002Y0041*
X-03016Y00409*
X-03029Y00405*
X-03041Y00398*
X-03052Y0039*
X-03061Y00379*
X-03067Y00367*
X-03071Y00354*
X-03073Y0034*
Y0025*
X-03071Y00236*
X-03067Y00223*
X-03061Y00211*
X-03052Y002*
X-03041Y00191*
X-03029Y00185*
X-03016Y00181*
X-03002Y00179*
X-03002Y00179*
X-02973Y0018*
X-02971Y0018*
X-02943Y00179*
Y-00179*
X-02971Y-0018*
X-02973Y-0018*
X-03002Y-00179*
X-03002Y-00179*
X-03016Y-00181*
X-03029Y-00185*
X-03041Y-00191*
X-03052Y-002*
X-03061Y-00211*
X-03067Y-00223*
X-03071Y-00236*
X-03073Y-0025*
Y-0034*
X-03071Y-00354*
X-03067Y-00367*
X-03061Y-00379*
X-03052Y-0039*
X-03041Y-00398*
X-03029Y-00405*
X-03016Y-00409*
X-03002Y-0041*
X-03002Y-0041*
X-02973Y-0041*
X-02971Y-0041*
X-02943Y-00411*
Y-00769*
X-02971Y-0077*
X-02973Y-0077*
X-03002Y-0077*
X-03002Y-0077*
X-03016Y-00771*
X-03029Y-00775*
X-03041Y-00782*
X-03052Y-00791*
X-03061Y-00801*
X-03067Y-00813*
X-03071Y-00827*
X-03073Y-0084*
Y-0093*
X-03071Y-00944*
X-03067Y-00957*
X-03061Y-00969*
X-03052Y-0098*
X-03041Y-00989*
X-03029Y-00995*
X-03016Y-00999*
X-03002Y-01001*
X-03002Y-01001*
X-02973Y-01*
X-02971Y-01*
X-02943Y-01001*
Y-0136*
X-02971Y-01361*
X-02973Y-01361*
X-03002Y-01361*
X-03002Y-01361*
X-03016Y-01362*
X-03029Y-01366*
X-03041Y-01372*
X-03052Y-01381*
X-03061Y-01392*
X-03067Y-01404*
X-03071Y-01417*
X-03073Y-01431*
Y-01521*
X-03071Y-01535*
X-03067Y-01548*
X-03061Y-0156*
X-03052Y-01571*
X-03041Y-01579*
X-03029Y-01586*
X-03016Y-0159*
X-03002Y-01591*
X-03002Y-01591*
X-02973Y-01591*
X-02971Y-01591*
X-02943Y-01592*
Y-01951*
X-02971Y-01951*
X-02973Y-01951*
X-03002Y-01951*
X-03002Y-01951*
X-03016Y-01952*
X-03029Y-01956*
X-03041Y-01963*
X-03052Y-01972*
X-03061Y-01982*
X-03067Y-01995*
X-03071Y-02008*
X-03073Y-02021*
Y-02111*
X-03071Y-02125*
X-03067Y-02138*
X-03061Y-02151*
X-03052Y-02161*
X-03041Y-0217*
X-03029Y-02176*
X-03016Y-0218*
X-03002Y-02182*
X-03002Y-02182*
X-02973Y-02181*
X-02971Y-02181*
X-02943Y-02182*
Y-02541*
X-02971Y-02542*
X-02973Y-02542*
X-03002Y-02542*
X-03002Y-02542*
X-03016Y-02543*
X-03029Y-02547*
X-03041Y-02554*
X-03052Y-02562*
X-03061Y-02573*
X-03067Y-02585*
X-03071Y-02598*
X-03073Y-02612*
Y-02702*
X-03071Y-02716*
X-03067Y-02729*
X-03061Y-02741*
X-03052Y-02752*
X-03041Y-0276*
X-03029Y-02767*
X-03016Y-02771*
X-03002Y-02772*
X-03002Y-02772*
X-02972Y-02772*
X-02832*
Y-02542*
X-02862*
Y-02181*
X-02832*
Y-01951*
X-02862*
Y-01591*
X-02832*
Y-01361*
X-02862*
Y-01*
X-02832*
Y-0077*
X-02862*
Y-0041*
X-02832*
Y-0018*
X-02862*
Y0018*
X-02832*
Y0041*
X-02862*
Y0077*
X-02832*
Y01*
X-02862*
Y01361*
X-02832*
Y01591*
X-02862*
Y01951*
X-02832*
Y02181*
X-02862*
Y02542*
X-02832*
Y02772*
X-02972*
X-03002Y02772*
X-03002Y02772*
G37*
G36*
X-02412D02*
X-02425Y02771D01*
X-02439Y02767*
X-02451Y0276*
X-02461Y02752*
X-0247Y02741*
X-02477Y02729*
X-02481Y02716*
X-02482Y02702*
Y02612*
X-02481Y02598*
X-02477Y02585*
X-0247Y02573*
X-02461Y02562*
X-02451Y02554*
X-02439Y02547*
X-02425Y02543*
X-02412Y02542*
X-02412Y02542*
X-02382Y02542*
X-02381Y02542*
X-02352Y02541*
Y02182*
X-02381Y02181*
X-02382Y02181*
X-02412Y02182*
X-02412Y02182*
X-02425Y0218*
X-02439Y02176*
X-02451Y0217*
X-02461Y02161*
X-0247Y02151*
X-02477Y02138*
X-02481Y02125*
X-02482Y02111*
Y02021*
X-02481Y02008*
X-02477Y01995*
X-0247Y01982*
X-02461Y01972*
X-02451Y01963*
X-02439Y01956*
X-02425Y01952*
X-02412Y01951*
X-02412Y01951*
X-02382Y01951*
X-02381Y01951*
X-02352Y01951*
Y01592*
X-02381Y01591*
X-02382Y01591*
X-02412Y01591*
X-02412Y01591*
X-02425Y0159*
X-02439Y01586*
X-02451Y01579*
X-02461Y01571*
X-0247Y0156*
X-02477Y01548*
X-02481Y01535*
X-02482Y01521*
Y01431*
X-02481Y01417*
X-02477Y01404*
X-0247Y01392*
X-02461Y01381*
X-02451Y01372*
X-02439Y01366*
X-02425Y01362*
X-02412Y01361*
X-02412Y01361*
X-02382Y01361*
X-02381Y01361*
X-02352Y0136*
Y01001*
X-02381Y01*
X-02382Y01*
X-02412Y01001*
X-02412Y01001*
X-02425Y00999*
X-02439Y00995*
X-02451Y00989*
X-02461Y0098*
X-0247Y00969*
X-02477Y00957*
X-02481Y00944*
X-02482Y0093*
Y0084*
X-02481Y00827*
X-02477Y00813*
X-0247Y00801*
X-02461Y00791*
X-02451Y00782*
X-02439Y00775*
X-02425Y00771*
X-02412Y0077*
X-02412Y0077*
X-02382Y0077*
X-02381Y0077*
X-02352Y00769*
Y00411*
X-02381Y0041*
X-02382Y0041*
X-02412Y0041*
X-02412Y0041*
X-02425Y00409*
X-02439Y00405*
X-02451Y00398*
X-02461Y0039*
X-0247Y00379*
X-02477Y00367*
X-02481Y00354*
X-02482Y0034*
Y0025*
X-02481Y00236*
X-02477Y00223*
X-0247Y00211*
X-02461Y002*
X-02451Y00191*
X-02439Y00185*
X-02425Y00181*
X-02412Y00179*
X-02412Y00179*
X-02382Y0018*
X-02381Y0018*
X-02352Y00179*
Y-00179*
X-02381Y-0018*
X-02382Y-0018*
X-02412Y-00179*
X-02412Y-00179*
X-02425Y-00181*
X-02439Y-00185*
X-02451Y-00191*
X-02461Y-002*
X-0247Y-00211*
X-02477Y-00223*
X-02481Y-00236*
X-02482Y-0025*
Y-0034*
X-02481Y-00354*
X-02477Y-00367*
X-0247Y-00379*
X-02461Y-0039*
X-02451Y-00398*
X-02439Y-00405*
X-02425Y-00409*
X-02412Y-0041*
X-02412Y-0041*
X-02382Y-0041*
X-02381Y-0041*
X-02352Y-00411*
Y-00769*
X-02381Y-0077*
X-02382Y-0077*
X-02412Y-0077*
X-02412Y-0077*
X-02425Y-00771*
X-02439Y-00775*
X-02451Y-00782*
X-02461Y-00791*
X-0247Y-00801*
X-02477Y-00813*
X-02481Y-00827*
X-02482Y-0084*
Y-0093*
X-02481Y-00944*
X-02477Y-00957*
X-0247Y-00969*
X-02461Y-0098*
X-02451Y-00989*
X-02439Y-00995*
X-02425Y-00999*
X-02412Y-01001*
X-02412Y-01001*
X-02382Y-01*
X-02381Y-01*
X-02352Y-01001*
Y-0136*
X-02381Y-01361*
X-02382Y-01361*
X-02412Y-01361*
X-02412Y-01361*
X-02425Y-01362*
X-02439Y-01366*
X-02451Y-01372*
X-02461Y-01381*
X-0247Y-01392*
X-02477Y-01404*
X-02481Y-01417*
X-02482Y-01431*
Y-01521*
X-02481Y-01535*
X-02477Y-01548*
X-0247Y-0156*
X-02461Y-01571*
X-02451Y-01579*
X-02439Y-01586*
X-02425Y-0159*
X-02412Y-01591*
X-02412Y-01591*
X-02382Y-01591*
X-02381Y-01591*
X-02352Y-01592*
Y-01951*
X-02381Y-01951*
X-02382Y-01951*
X-02412Y-01951*
X-02412Y-01951*
X-02425Y-01952*
X-02439Y-01956*
X-02451Y-01963*
X-02461Y-01972*
X-0247Y-01982*
X-02477Y-01995*
X-02481Y-02008*
X-02482Y-02021*
Y-02111*
X-02481Y-02125*
X-02477Y-02138*
X-0247Y-02151*
X-02461Y-02161*
X-02451Y-0217*
X-02439Y-02176*
X-02425Y-0218*
X-02412Y-02182*
X-02412Y-02182*
X-02382Y-02181*
X-02381Y-02181*
X-02352Y-02182*
Y-02541*
X-02381Y-02542*
X-02382Y-02542*
X-02412Y-02542*
X-02412Y-02542*
X-02425Y-02543*
X-02439Y-02547*
X-02451Y-02554*
X-02461Y-02562*
X-0247Y-02573*
X-02477Y-02585*
X-02481Y-02598*
X-02482Y-02612*
Y-02702*
X-02481Y-02716*
X-02477Y-02729*
X-0247Y-02741*
X-02461Y-02752*
X-02451Y-0276*
X-02439Y-02767*
X-02425Y-02771*
X-02412Y-02772*
X-02412Y-02772*
X-02382Y-02772*
X-02242*
Y-02542*
X-02271*
Y-02181*
X-02242*
Y-01951*
X-02271*
Y-01591*
X-02242*
Y-01361*
X-02271*
Y-01*
X-02242*
Y-0077*
X-02271*
Y-0041*
X-02242*
Y-0018*
X-02271*
Y0018*
X-02242*
Y0041*
X-02271*
Y0077*
X-02242*
Y01*
X-02271*
Y01361*
X-02242*
Y01591*
X-02271*
Y01951*
X-02242*
Y02181*
X-02271*
Y02542*
X-02242*
Y02772*
X-02382*
X-02412Y02772*
X-02412Y02772*
G37*
G36*
X-00536Y-03437D02*
Y-03469D01*
X-00504*
X-00504Y-03464*
X-00508Y-03455*
X-00514Y-03447*
X-00522Y-03441*
X-00531Y-03437*
X-00536Y-03437*
G37*
G36*
X-00546D02*
X-00551Y-03437D01*
X-0056Y-03441*
X-00568Y-03447*
X-00574Y-03455*
X-00577Y-03464*
X-00578Y-03469*
X-00546*
Y-03437*
G37*
G36*
X-00792D02*
Y-03469D01*
X-0076*
X-0076Y-03464*
X-00764Y-03455*
X-0077Y-03447*
X-00778Y-03441*
X-00787Y-03437*
X-00792Y-03437*
G37*
G36*
X-00802D02*
X-00807Y-03437D01*
X-00816Y-03441*
X-00823Y-03447*
X-0083Y-03455*
X-00833Y-03464*
X-00834Y-03469*
X-00802*
Y-03437*
G37*
G36*
X-01048D02*
Y-03469D01*
X-01015*
X-01016Y-03464*
X-0102Y-03455*
X-01026Y-03447*
X-01034Y-03441*
X-01043Y-03437*
X-01048Y-03437*
G37*
G36*
X-01058D02*
X-01062Y-03437D01*
X-01072Y-03441*
X-01079Y-03447*
X-01085Y-03455*
X-01089Y-03464*
X-0109Y-03469*
X-01058*
Y-03437*
G37*
G36*
X-00504Y-03479D02*
X-00536D01*
Y-03511*
X-00531Y-0351*
X-00522Y-03507*
X-00514Y-03501*
X-00508Y-03493*
X-00504Y-03484*
X-00504Y-03479*
G37*
G36*
X-00546D02*
X-00578D01*
X-00577Y-03484*
X-00574Y-03493*
X-00568Y-03501*
X-0056Y-03507*
X-00551Y-0351*
X-00546Y-03511*
Y-03479*
G37*
G36*
X-0076D02*
X-00792D01*
Y-03511*
X-00787Y-0351*
X-00778Y-03507*
X-0077Y-03501*
X-00764Y-03493*
X-0076Y-03484*
X-0076Y-03479*
G37*
G36*
X-00802D02*
X-00834D01*
X-00833Y-03484*
X-0083Y-03493*
X-00823Y-03501*
X-00816Y-03507*
X-00807Y-0351*
X-00802Y-03511*
Y-03479*
G37*
G36*
X-01015D02*
X-01048D01*
Y-03511*
X-01043Y-0351*
X-01034Y-03507*
X-01026Y-03501*
X-0102Y-03493*
X-01016Y-03484*
X-01015Y-03479*
G37*
G36*
X-01058D02*
X-0109D01*
X-01089Y-03484*
X-01085Y-03493*
X-01079Y-03501*
X-01072Y-03507*
X-01062Y-0351*
X-01058Y-03511*
Y-03479*
G37*
%LNwordclock_v20-3*%
%LPD*%
G54D13*
X-01682Y-03474D02*
X-01309D01*
X-01682D02*
Y-03065D01*
X-01091*
X-0286D02*
X-01682D01*
Y-03062*
X0106Y-03389D02*
X01526D01*
X0021D02*
X0106D01*
X01062Y-03391*
Y-03633D02*
Y-03391D01*
X01526Y-03597D02*
Y-03389D01*
Y-03597D02*
X02252D01*
Y-03782D02*
Y-03597D01*
X0021Y-0364D02*
Y-03389D01*
X00208Y-0364D02*
X0021D01*
X02571Y-03062D02*
X03042D01*
X02248D02*
X02571D01*
X02573Y-0306*
Y-02997*
X0199Y-03062D02*
X02248D01*
X02252Y-03066*
Y-03182D02*
Y-03066D01*
X02052Y-03782D02*
Y-0366D01*
X-03385Y-0364D02*
X-02981D01*
X-02346D02*
X-01816D01*
X-02981D02*
X-02346D01*
X-03385Y-03723D02*
Y-0364D01*
X0199Y-03062D02*
Y-03D01*
X03002Y-02657D02*
Y-02066D01*
Y-01476*
Y-00885*
Y-00295*
Y00295*
Y00885*
Y01476*
Y02066*
Y02657*
X02412Y02066D02*
Y02657D01*
Y01476D02*
Y02066D01*
Y00885D02*
Y01476D01*
Y00295D02*
Y00885D01*
Y-00295D02*
Y00295D01*
Y-00885D02*
Y-00295D01*
Y-01476D02*
Y-00885D01*
Y-02066D02*
Y-01476D01*
Y-02657D02*
Y-02066D01*
X01821Y02066D02*
Y02657D01*
Y01476D02*
Y02066D01*
Y00885D02*
Y01476D01*
Y00295D02*
Y00885D01*
Y-00295D02*
Y00295D01*
Y-00885D02*
Y-00295D01*
Y-01476D02*
Y-00885D01*
Y-02066D02*
Y-01476D01*
Y-02657D02*
Y-02066D01*
X01231Y02066D02*
Y02657D01*
Y01476D02*
Y02066D01*
Y00885D02*
Y01476D01*
Y00295D02*
Y00885D01*
Y-00295D02*
Y00295D01*
Y-00885D02*
Y-00295D01*
Y-01476D02*
Y-00885D01*
Y-02066D02*
Y-01476D01*
Y-02657D02*
Y-02066D01*
X0064Y02066D02*
Y02657D01*
Y01476D02*
Y02066D01*
Y00885D02*
Y01476D01*
Y00295D02*
Y00885D01*
Y-00295D02*
Y00295D01*
Y-00885D02*
Y-00295D01*
Y-01476D02*
Y-00885D01*
Y-02066D02*
Y-01476D01*
Y-02657D02*
Y-02066D01*
X0005Y02066D02*
Y02657D01*
Y01476D02*
Y02066D01*
Y00885D02*
Y01476D01*
Y00295D02*
Y00885D01*
Y-00295D02*
Y00295D01*
Y-00885D02*
Y-00295D01*
Y-01476D02*
Y-00885D01*
Y-02066D02*
Y-01476D01*
Y-02657D02*
Y-02066D01*
X-0054Y02066D02*
Y02657D01*
Y01476D02*
Y02066D01*
Y00885D02*
Y01476D01*
Y00295D02*
Y00885D01*
Y-00295D02*
Y00295D01*
Y-00885D02*
Y-00295D01*
Y-01476D02*
Y-00885D01*
Y-02066D02*
Y-01476D01*
Y-02657D02*
Y-02066D01*
X-01131Y02066D02*
Y02657D01*
Y01476D02*
Y02066D01*
Y00885D02*
Y01476D01*
Y00295D02*
Y00885D01*
Y-00295D02*
Y00295D01*
Y-00885D02*
Y-00295D01*
Y-01476D02*
Y-00885D01*
Y-02066D02*
Y-01476D01*
Y-02657D02*
Y-02066D01*
X-01721Y02066D02*
Y02657D01*
Y01476D02*
Y02066D01*
Y00885D02*
Y01476D01*
Y00295D02*
Y00885D01*
Y-00295D02*
Y00295D01*
Y-00885D02*
Y-00295D01*
Y-01476D02*
Y-00885D01*
Y-02066D02*
Y-01476D01*
Y-02657D02*
Y-02066D01*
X-02312Y02066D02*
Y02657D01*
Y01476D02*
Y02066D01*
Y00885D02*
Y01476D01*
Y00295D02*
Y00885D01*
Y-00295D02*
Y00295D01*
Y-00885D02*
Y-00295D01*
Y-01476D02*
Y-00885D01*
Y-02066D02*
Y-01476D01*
Y-02657D02*
Y-02066D01*
X-02902Y02066D02*
Y02657D01*
Y01476D02*
Y02066D01*
Y00885D02*
Y01476D01*
Y00295D02*
Y00885D01*
Y-00295D02*
Y00295D01*
Y-00885D02*
Y-00295D01*
Y-01476D02*
Y-00885D01*
Y-02066D02*
Y-01476D01*
Y-02657D02*
Y-02066D01*
X-00195Y-0358D02*
X00208D01*
Y-0364D02*
Y-0358D01*
X-01091Y-03065D02*
X-005D01*
Y-03062*
X-02863Y-03062D02*
X-0286Y-03065D01*
X0031Y-03062D02*
X0199D01*
X0031D02*
Y-0288D01*
X-005Y-03062D02*
X-005D01*
Y-0288*
X0031*
X01345Y-0366D02*
Y-03535D01*
Y-0366D02*
X02052D01*
G54D14*
X00603Y-03723D02*
X0164D01*
X03152Y-0348D02*
Y-03182D01*
X0181Y-0348D02*
X03152D01*
X0181D02*
Y-03225D01*
X-0105D02*
X0181D01*
X03252Y-03535D02*
Y-03182D01*
X01755Y-03535D02*
X03252D01*
X-02119Y-0372D02*
X006D01*
X-03286Y-03723D02*
X-02121D01*
X-0207Y-0284D02*
Y02415D01*
X-02121Y-03723D02*
X-02119Y-0372D01*
X-00797Y-03297D02*
X-00541D01*
X-01053D02*
X-0105Y-03294D01*
X-01309Y-03297D02*
X-01053D01*
X-01091Y-03065D02*
Y-03062D01*
X01755Y-03535D02*
Y-03529D01*
X-00541Y-03297D02*
Y-03295D01*
X01756*
Y-03529D02*
Y-03295D01*
X-0105Y-03294D02*
Y-03225D01*
X-0202Y03005D02*
D01*
Y-0294D02*
Y03005D01*
X-0212Y01829D02*
X-0212Y01829D01*
Y-02935D02*
Y01829D01*
X006Y-0372D02*
X00603Y-03723D01*
X-03337Y-03804D02*
X00553D01*
X0173*
Y-03734*
G54D15*
X-02902Y02657D03*
X-02312D03*
X-01721D03*
X-01131D03*
X-0054D03*
X0005D03*
X0064D03*
X01231D03*
X01821D03*
X02412D03*
X03002D03*
X-02902Y02066D03*
X-02312D03*
X-01721D03*
X-01131D03*
X-0054D03*
X0005D03*
X0064D03*
X01231D03*
X01821D03*
X02412D03*
X03002D03*
X-02902Y01476D03*
X-02312D03*
X-01721D03*
X-01131D03*
X-0054D03*
X0005D03*
X0064D03*
X01231D03*
X01821D03*
X02412D03*
X03002D03*
X-02902Y00885D03*
X-02312D03*
X-01721D03*
X-01131D03*
X-0054D03*
X0005D03*
X0064D03*
X01231D03*
X01821D03*
X02412D03*
X03002D03*
X-02902Y00295D03*
X-02312D03*
X-01721D03*
X-01131D03*
X-0054D03*
X0005D03*
X0064D03*
X01231D03*
X01821D03*
X02412D03*
X03002D03*
X-02902Y-00295D03*
X-02312D03*
X-01721D03*
X-01131D03*
X-0054D03*
X0005D03*
X0064D03*
X01231D03*
X01821D03*
X02412D03*
X03002D03*
X-02902Y-00885D03*
X-02312D03*
X-01721D03*
X-01131D03*
X-0054D03*
X0005D03*
X0064D03*
X01231D03*
X01821D03*
X02412D03*
X03002D03*
X-02902Y-01476D03*
X-02312D03*
X-01721D03*
X-01131D03*
X-0054D03*
X0005D03*
X0064D03*
X01231D03*
X01821D03*
X02412D03*
X03002D03*
X-02902Y-02066D03*
X-02312D03*
X-01721D03*
X-01131D03*
X-0054D03*
X0005D03*
X0064D03*
X01231D03*
X01821D03*
X02412D03*
X03002D03*
X-02902Y-02657D03*
X-02312D03*
X-01721D03*
X-01131D03*
X-0054D03*
X0005D03*
X0064D03*
X01231D03*
X01821D03*
X02412D03*
X03002D03*
G54D16*
X-03002Y02657D03*
X-02412D03*
X-01821D03*
X-01231D03*
X-0064D03*
X-0005D03*
X0054D03*
X01131D03*
X01721D03*
X02312D03*
X02902D03*
X-03002Y02066D03*
X-02412D03*
X-01821D03*
X-01231D03*
X-0064D03*
X-0005D03*
X0054D03*
X01131D03*
X01721D03*
X02312D03*
X02902D03*
X-03002Y01476D03*
X-02412D03*
X-01821D03*
X-01231D03*
X-0064D03*
X-0005D03*
X0054D03*
X01131D03*
X01721D03*
X02312D03*
X02902D03*
X-03002Y00885D03*
X-02412D03*
X-01821D03*
X-01231D03*
X-0064D03*
X-0005D03*
X0054D03*
X01131D03*
X01721D03*
X02312D03*
X02902D03*
X-03002Y00295D03*
X-02412D03*
X-01821D03*
X-01231D03*
X-0064D03*
X-0005D03*
X0054D03*
X01131D03*
X01721D03*
X02312D03*
X02902D03*
X-03002Y-00295D03*
X-02412D03*
X-01821D03*
X-01231D03*
X-0064D03*
X-0005D03*
X0054D03*
X01131D03*
X01721D03*
X02312D03*
X02902D03*
X-03002Y-00885D03*
X-02412D03*
X-01821D03*
X-01231D03*
X-0064D03*
X-0005D03*
X0054D03*
X01131D03*
X01721D03*
X02312D03*
X02902D03*
X-03002Y-01476D03*
X-02412D03*
X-01821D03*
X-01231D03*
X-0064D03*
X-0005D03*
X0054D03*
X01131D03*
X01721D03*
X02312D03*
X02902D03*
X-03002Y-02066D03*
X-02412D03*
X-01821D03*
X-01231D03*
X-0064D03*
X-0005D03*
X0054D03*
X01131D03*
X01721D03*
X02312D03*
X02902D03*
X-03002Y-02657D03*
X-02412D03*
X-01821D03*
X-01231D03*
X-0064D03*
X-0005D03*
X0054D03*
X01131D03*
X01721D03*
X02312D03*
X02902D03*
G54D17*
X-00797Y-03474D03*
X-00541D03*
X-00797Y-03297D03*
X-00541D03*
X-01309Y-03474D03*
X-01053D03*
X-01309Y-03297D03*
X-01053D03*
G54D18*
X-03385Y0307D03*
X03385D03*
Y-02755D03*
X-03385D03*
X0Y0307D03*
X-03385Y00118D03*
X03385D03*
X0Y-03031D03*
G54D19*
X01952Y-03782D03*
X02052D03*
X02152D03*
X02252D03*
X02352D03*
X02452D03*
X02552D03*
X02652D03*
X02752D03*
X02852D03*
X02952D03*
X03052D03*
X03152D03*
X03252D03*
X03352D03*
X02052Y-03182D03*
X02152D03*
X02252D03*
X02452D03*
X02352D03*
X02652D03*
X02552D03*
X02852D03*
X02752D03*
X03052D03*
X02952D03*
X03252D03*
X03152D03*
X03352D03*
G54D20*
X01952Y-03182D03*
G54D21*
X01062Y-03633D03*
X02573Y-02997D03*
X0173Y-03737D03*
X0164Y-03723D03*
X01345Y-03535D03*
X-02121Y-03723D03*
X-03286D03*
X-02981Y-0364D03*
X-03386Y-03723D03*
X-02346Y-0364D03*
X0199Y-03D03*
X-02863Y-03062D03*
X-02272Y-03057D03*
X-01682Y-03062D03*
X-01091D03*
X-005D03*
X0068D03*
X0127Y-03057D03*
X03042Y-03062D03*
X00208Y-0364D03*
X-01816D03*
X-0207Y0241D03*
X-0202Y03005D03*
X-0212Y01829D03*
X-00195Y-0358D03*
X0031Y-0306D03*
X-0207Y-0284D03*
X-0202Y-02935D03*
X-0212D03*
X00603Y-03723D03*
X00553Y-03804D03*
X-02172Y-03805D03*
X-03337D03*
M02*