%FSTAX23Y23*%
%MOIN*%
%SFA1B1*%

%IPPOS*%
%ADD35C,0.003940*%
%LNwordclock_v20-1*%
%LPD*%
G54D35*
X-03281Y-03535D02*
X-03242D01*
X-03261Y-03554D02*
Y-03515D01*
X-03478Y-037D02*
Y-03369D01*
X-03045Y-037D02*
Y-03369D01*
X-03478Y-037D02*
X-03045D01*
X-03478Y-03369D02*
X-03045D01*
X00608Y-03535D02*
X00647D01*
X00628Y-03554D02*
Y-03515D01*
X00411Y-037D02*
Y-03369D01*
X00844Y-037D02*
Y-03369D01*
X00411Y-037D02*
X00844D01*
X00411Y-03369D02*
X00844D01*
X-02313D02*
X-0188D01*
X-02313Y-037D02*
X-0188D01*
Y-03369*
X-02313Y-037D02*
Y-03369D01*
X-02096Y-03554D02*
Y-03515D01*
X-02116Y-03535D02*
X-02077D01*
X-0292Y-02954D02*
X-0288D01*
X-029Y-02974D02*
Y-02935D01*
X-02837Y-03017D02*
Y-02891D01*
X-02963Y-03017D02*
Y-02891D01*
X-02837*
X-02963Y-03017D02*
X-02837D01*
X00255Y-02954D02*
X00295D01*
X00275Y-02974D02*
Y-02935D01*
X00338Y-03017D02*
Y-02891D01*
X00212Y-03017D02*
Y-02891D01*
X00338*
X00212Y-03017D02*
X00338D01*
X-02329Y-02954D02*
X-0229D01*
X-02309Y-02974D02*
Y-02935D01*
X-02246Y-03017D02*
Y-02891D01*
X-02372Y-03017D02*
Y-02891D01*
X-02246*
X-02372Y-03017D02*
X-02246D01*
X-01739Y-02954D02*
X-01699D01*
X-01719Y-02974D02*
Y-02935D01*
X-01656Y-03017D02*
Y-02891D01*
X-01782Y-03017D02*
Y-02891D01*
X-01656*
X-01782Y-03017D02*
X-01656D01*
X-01148Y-02954D02*
X-01109D01*
X-01128Y-02974D02*
Y-02935D01*
X-01065Y-03017D02*
Y-02891D01*
X-01191Y-03017D02*
Y-02891D01*
X-01065*
X-01191Y-03017D02*
X-01065D01*
X-00557Y-02954D02*
X-00518D01*
X-00538Y-02974D02*
Y-02935D01*
X-00475Y-03017D02*
Y-02891D01*
X-00601Y-03017D02*
Y-02891D01*
X-00475*
X-00601Y-03017D02*
X-00475D01*
X00623Y-02954D02*
X00662D01*
X00642Y-02974D02*
Y-02935D01*
X00705Y-03017D02*
Y-02891D01*
X00579Y-03017D02*
Y-02891D01*
X00705*
X00579Y-03017D02*
X00705D01*
X01213Y-02954D02*
X01253D01*
X01233Y-02974D02*
Y-02935D01*
X01296Y-03017D02*
Y-02891D01*
X0117Y-03017D02*
Y-02891D01*
X01296*
X0117Y-03017D02*
X01296D01*
X01804Y-02954D02*
X01843D01*
X01823Y-02974D02*
Y-02935D01*
X01886Y-03017D02*
Y-02891D01*
X0176Y-03017D02*
Y-02891D01*
X01886*
X0176Y-03017D02*
X01886D01*
X02394Y-02954D02*
X02434D01*
X02414Y-02974D02*
Y-02935D01*
X02477Y-03017D02*
Y-02891D01*
X02351Y-03017D02*
Y-02891D01*
X02477*
X02351Y-03017D02*
X02477D01*
X02985Y-0295D02*
X03024D01*
X03005Y-02969D02*
Y-0293D01*
X03067Y-03012D02*
Y-02887D01*
X02942Y-03012D02*
Y-02887D01*
X03067*
X02942Y-03012D02*
X03067D01*
M02*