G04 Layer_Color=8421504*
%FSLAX25Y25*%
%MOIN*%
G70*
G01*
G75*
%ADD10O,0.02756X0.09843*%
%ADD11R,0.02362X0.03347*%
%ADD12R,0.05906X0.03937*%
D10*
X-343677Y-363146D02*
D03*
X-338677D02*
D03*
X-333677D02*
D03*
X-328677D02*
D03*
X-323677D02*
D03*
X-318677D02*
D03*
X-313677D02*
D03*
X-308677D02*
D03*
X-343677Y-343854D02*
D03*
X-338677D02*
D03*
X-333677D02*
D03*
X-328677D02*
D03*
X-323677D02*
D03*
X-318677D02*
D03*
X-313677D02*
D03*
X-308677D02*
D03*
X45323Y-363146D02*
D03*
X50323D02*
D03*
X55323D02*
D03*
X60323D02*
D03*
X65323D02*
D03*
X70323D02*
D03*
X75323D02*
D03*
X80323D02*
D03*
X45323Y-343854D02*
D03*
X50323D02*
D03*
X55323D02*
D03*
X60323D02*
D03*
X65323D02*
D03*
X70323D02*
D03*
X75323D02*
D03*
X80323D02*
D03*
X-192177D02*
D03*
X-197177D02*
D03*
X-202177D02*
D03*
X-207177D02*
D03*
X-212177D02*
D03*
X-217177D02*
D03*
X-222177D02*
D03*
X-227177D02*
D03*
X-192177Y-363146D02*
D03*
X-197177D02*
D03*
X-202177D02*
D03*
X-207177D02*
D03*
X-212177D02*
D03*
X-217177D02*
D03*
X-222177D02*
D03*
X-227177D02*
D03*
D11*
X-290052Y-291240D02*
D03*
X-286311Y-299705D02*
D03*
X-293792D02*
D03*
X27559Y-291240D02*
D03*
X31299Y-299705D02*
D03*
X23819D02*
D03*
X-230996Y-291240D02*
D03*
X-227256Y-299705D02*
D03*
X-234736D02*
D03*
X-171941Y-291240D02*
D03*
X-168201Y-299705D02*
D03*
X-175681D02*
D03*
X-112886Y-291240D02*
D03*
X-109146Y-299705D02*
D03*
X-116626D02*
D03*
X-53831Y-291240D02*
D03*
X-50091Y-299705D02*
D03*
X-57571D02*
D03*
X64279Y-291240D02*
D03*
X68020Y-299705D02*
D03*
X60539D02*
D03*
X123335Y-291240D02*
D03*
X127075Y-299705D02*
D03*
X119594D02*
D03*
X182390Y-291240D02*
D03*
X186130Y-299705D02*
D03*
X178649D02*
D03*
X241445Y-291240D02*
D03*
X245185Y-299705D02*
D03*
X237705D02*
D03*
X300500Y-290768D02*
D03*
X304240Y-299232D02*
D03*
X296760D02*
D03*
D12*
X-300245Y-242634D02*
D03*
Y-230035D02*
D03*
Y-183634D02*
D03*
Y-171035D02*
D03*
Y-124634D02*
D03*
Y-112035D02*
D03*
Y-65634D02*
D03*
Y-53035D02*
D03*
Y-6134D02*
D03*
Y6465D02*
D03*
Y52366D02*
D03*
Y64965D02*
D03*
Y111366D02*
D03*
Y123965D02*
D03*
Y170366D02*
D03*
Y182965D02*
D03*
Y229366D02*
D03*
Y241965D02*
D03*
Y288366D02*
D03*
Y300965D02*
D03*
M02*
