G04 Layer_Color=16711935*
%FSLAX25Y25*%
%MOIN*%
G70*
G01*
G75*
%ADD35C,0.00394*%
D35*
X-308067Y-349169D02*
G03*
X-308067Y-349169I-1969J0D01*
G01*
X80933D02*
G03*
X80933Y-349169I-1969J0D01*
G01*
X-191567D02*
G03*
X-191567Y-349169I-1969J0D01*
G01*
X-345862Y-361374D02*
Y-345626D01*
X-306492Y-361374D02*
Y-345626D01*
X-345862Y-361374D02*
X-306492D01*
X-345862Y-345626D02*
X-306492D01*
X43138Y-361374D02*
Y-345626D01*
X82508Y-361374D02*
Y-345626D01*
X43138Y-361374D02*
X82508D01*
X43138Y-345626D02*
X82508D01*
X-229362D02*
X-189992D01*
X-229362Y-361374D02*
X-189992D01*
Y-345626D01*
X-229362Y-361374D02*
Y-345626D01*
X-284146Y-298228D02*
Y-292717D01*
X-295957Y-298228D02*
Y-292717D01*
X-284146D01*
X-295957Y-298228D02*
X-284146D01*
X33465Y-298228D02*
Y-292717D01*
X21654Y-298228D02*
Y-292717D01*
X33465D01*
X21654Y-298228D02*
X33465D01*
X-225091Y-298228D02*
Y-292717D01*
X-236902Y-298228D02*
Y-292717D01*
X-225091D01*
X-236902Y-298228D02*
X-225091D01*
X-166036D02*
Y-292717D01*
X-177847Y-298228D02*
Y-292717D01*
X-166036D01*
X-177847Y-298228D02*
X-166036D01*
X-106981D02*
Y-292717D01*
X-118792Y-298228D02*
Y-292717D01*
X-106981D01*
X-118792Y-298228D02*
X-106981D01*
X-47925D02*
Y-292717D01*
X-59736Y-298228D02*
Y-292717D01*
X-47925D01*
X-59736Y-298228D02*
X-47925D01*
X70185D02*
Y-292717D01*
X58374Y-298228D02*
Y-292717D01*
X70185D01*
X58374Y-298228D02*
X70185D01*
X129240D02*
Y-292717D01*
X117429Y-298228D02*
Y-292717D01*
X129240D01*
X117429Y-298228D02*
X129240D01*
X188295D02*
Y-292717D01*
X176484Y-298228D02*
Y-292717D01*
X188295D01*
X176484Y-298228D02*
X188295D01*
X247350D02*
Y-292717D01*
X235539Y-298228D02*
Y-292717D01*
X247350D01*
X235539Y-298228D02*
X247350D01*
X306405Y-297756D02*
Y-292244D01*
X294595Y-297756D02*
Y-292244D01*
X306405D01*
X294595Y-297756D02*
X306405D01*
M02*
