G04 Layer_Color=8388736*
%FSLAX25Y25*%
%MOIN*%
G70*
G01*
G75*
%ADD25O,0.03556X0.10642*%
%ADD26R,0.03162X0.04147*%
%ADD27R,0.06706X0.04737*%
%ADD28R,0.06800X0.15800*%
%ADD29O,0.06800X0.15800*%
%ADD30C,0.08300*%
%ADD31C,0.16548*%
%ADD32O,0.07800X0.12800*%
%ADD33R,0.07800X0.12800*%
%ADD34C,0.05800*%
D25*
X-343677Y-363146D02*
D03*
X-338677D02*
D03*
X-333677D02*
D03*
X-328677D02*
D03*
X-323677D02*
D03*
X-318677D02*
D03*
X-313677D02*
D03*
X-308677D02*
D03*
X-343677Y-343854D02*
D03*
X-338677D02*
D03*
X-333677D02*
D03*
X-328677D02*
D03*
X-323677D02*
D03*
X-318677D02*
D03*
X-313677D02*
D03*
X-308677D02*
D03*
X45323Y-363146D02*
D03*
X50323D02*
D03*
X55323D02*
D03*
X60323D02*
D03*
X65323D02*
D03*
X70323D02*
D03*
X75323D02*
D03*
X80323D02*
D03*
X45323Y-343854D02*
D03*
X50323D02*
D03*
X55323D02*
D03*
X60323D02*
D03*
X65323D02*
D03*
X70323D02*
D03*
X75323D02*
D03*
X80323D02*
D03*
X-192177D02*
D03*
X-197177D02*
D03*
X-202177D02*
D03*
X-207177D02*
D03*
X-212177D02*
D03*
X-217177D02*
D03*
X-222177D02*
D03*
X-227177D02*
D03*
X-192177Y-363146D02*
D03*
X-197177D02*
D03*
X-202177D02*
D03*
X-207177D02*
D03*
X-212177D02*
D03*
X-217177D02*
D03*
X-222177D02*
D03*
X-227177D02*
D03*
D26*
X-290052Y-291240D02*
D03*
X-286311Y-299705D02*
D03*
X-293792D02*
D03*
X27559Y-291240D02*
D03*
X31299Y-299705D02*
D03*
X23819D02*
D03*
X-230996Y-291240D02*
D03*
X-227256Y-299705D02*
D03*
X-234736D02*
D03*
X-171941Y-291240D02*
D03*
X-168201Y-299705D02*
D03*
X-175681D02*
D03*
X-112886Y-291240D02*
D03*
X-109146Y-299705D02*
D03*
X-116626D02*
D03*
X-53831Y-291240D02*
D03*
X-50091Y-299705D02*
D03*
X-57571D02*
D03*
X64279Y-291240D02*
D03*
X68020Y-299705D02*
D03*
X60539D02*
D03*
X123335Y-291240D02*
D03*
X127075Y-299705D02*
D03*
X119594D02*
D03*
X182390Y-291240D02*
D03*
X186130Y-299705D02*
D03*
X178649D02*
D03*
X241445Y-291240D02*
D03*
X245185Y-299705D02*
D03*
X237705D02*
D03*
X300500Y-290768D02*
D03*
X304240Y-299232D02*
D03*
X296760D02*
D03*
D27*
X-300245Y-242634D02*
D03*
Y-230035D02*
D03*
Y-183634D02*
D03*
Y-171035D02*
D03*
Y-124634D02*
D03*
Y-112035D02*
D03*
Y-65634D02*
D03*
Y-53035D02*
D03*
Y-6134D02*
D03*
Y6465D02*
D03*
Y52366D02*
D03*
Y64965D02*
D03*
Y111366D02*
D03*
Y123965D02*
D03*
Y170366D02*
D03*
Y182965D02*
D03*
Y229366D02*
D03*
Y241965D02*
D03*
Y288366D02*
D03*
Y300965D02*
D03*
D28*
X-290276Y265748D02*
D03*
X-231221D02*
D03*
X-172166D02*
D03*
X-113111D02*
D03*
X-54056D02*
D03*
X5000D02*
D03*
X64055D02*
D03*
X123110D02*
D03*
X182165D02*
D03*
X241220D02*
D03*
X300275D02*
D03*
X-290276Y206693D02*
D03*
X-231221Y206693D02*
D03*
X-172166Y206693D02*
D03*
X-113111D02*
D03*
X-54056D02*
D03*
X5000D02*
D03*
X64055D02*
D03*
X123110D02*
D03*
X182165D02*
D03*
X241220D02*
D03*
X300275D02*
D03*
X-290276Y147638D02*
D03*
X-231221D02*
D03*
X-172166D02*
D03*
X-113111D02*
D03*
X-54056D02*
D03*
X5000D02*
D03*
X64055D02*
D03*
X123110D02*
D03*
X182165D02*
D03*
X241220D02*
D03*
X300275D02*
D03*
X-290276Y88583D02*
D03*
X-231221D02*
D03*
X-172166D02*
D03*
X-113111D02*
D03*
X-54056D02*
D03*
X5000D02*
D03*
X64055D02*
D03*
X123110D02*
D03*
X182165D02*
D03*
X241220D02*
D03*
X300275D02*
D03*
X-290276Y29528D02*
D03*
X-231221D02*
D03*
X-172166D02*
D03*
X-113111D02*
D03*
X-54056D02*
D03*
X5000D02*
D03*
X64055D02*
D03*
X123110D02*
D03*
X182165D02*
D03*
X241220D02*
D03*
X300275D02*
D03*
X-290276Y-29528D02*
D03*
X-231221D02*
D03*
X-172166D02*
D03*
X-113111D02*
D03*
X-54056D02*
D03*
X5000D02*
D03*
X64055D02*
D03*
X123110D02*
D03*
X182165D02*
D03*
X241220D02*
D03*
X300275D02*
D03*
X-290276Y-88583D02*
D03*
X-231221D02*
D03*
X-172166D02*
D03*
X-113111D02*
D03*
X-54056D02*
D03*
X5000D02*
D03*
X64055D02*
D03*
X123110D02*
D03*
X182165D02*
D03*
X241220D02*
D03*
X300275D02*
D03*
X-290276Y-147638D02*
D03*
X-231221D02*
D03*
X-172166D02*
D03*
X-113111D02*
D03*
X-54056D02*
D03*
X5000D02*
D03*
X64055D02*
D03*
X123110D02*
D03*
X182165D02*
D03*
X241220D02*
D03*
X300275D02*
D03*
X-290276Y-206693D02*
D03*
X-231221D02*
D03*
X-172166D02*
D03*
X-113111D02*
D03*
X-54056D02*
D03*
X5000D02*
D03*
X64055D02*
D03*
X123110D02*
D03*
X182165D02*
D03*
X241220D02*
D03*
X300275D02*
D03*
X-290276Y-265748D02*
D03*
X-231221D02*
D03*
X-172166D02*
D03*
X-113111D02*
D03*
X-54056D02*
D03*
X5000D02*
D03*
X64055D02*
D03*
X123110D02*
D03*
X182165D02*
D03*
X241220D02*
D03*
X300275D02*
D03*
D29*
X-300276Y265748D02*
D03*
X-241221D02*
D03*
X-182166D02*
D03*
X-123111D02*
D03*
X-64056D02*
D03*
X-5000D02*
D03*
X54055D02*
D03*
X113110D02*
D03*
X172165D02*
D03*
X231220D02*
D03*
X290275D02*
D03*
X-300276Y206693D02*
D03*
X-241221Y206693D02*
D03*
X-182166Y206693D02*
D03*
X-123111D02*
D03*
X-64056D02*
D03*
X-5000D02*
D03*
X54055D02*
D03*
X113110D02*
D03*
X172165D02*
D03*
X231220D02*
D03*
X290275D02*
D03*
X-300276Y147638D02*
D03*
X-241221D02*
D03*
X-182166D02*
D03*
X-123111D02*
D03*
X-64056D02*
D03*
X-5000D02*
D03*
X54055D02*
D03*
X113110D02*
D03*
X172165D02*
D03*
X231220D02*
D03*
X290275D02*
D03*
X-300276Y88583D02*
D03*
X-241221D02*
D03*
X-182166D02*
D03*
X-123111D02*
D03*
X-64056D02*
D03*
X-5000D02*
D03*
X54055D02*
D03*
X113110D02*
D03*
X172165D02*
D03*
X231220D02*
D03*
X290275D02*
D03*
X-300276Y29528D02*
D03*
X-241221D02*
D03*
X-182166D02*
D03*
X-123111D02*
D03*
X-64056D02*
D03*
X-5000D02*
D03*
X54055D02*
D03*
X113110D02*
D03*
X172165D02*
D03*
X231220D02*
D03*
X290275D02*
D03*
X-300276Y-29528D02*
D03*
X-241221D02*
D03*
X-182166D02*
D03*
X-123111D02*
D03*
X-64056D02*
D03*
X-5000D02*
D03*
X54055D02*
D03*
X113110D02*
D03*
X172165D02*
D03*
X231220D02*
D03*
X290275D02*
D03*
X-300276Y-88583D02*
D03*
X-241221D02*
D03*
X-182166D02*
D03*
X-123111D02*
D03*
X-64056D02*
D03*
X-5000D02*
D03*
X54055D02*
D03*
X113110D02*
D03*
X172165D02*
D03*
X231220D02*
D03*
X290275D02*
D03*
X-300276Y-147638D02*
D03*
X-241221D02*
D03*
X-182166D02*
D03*
X-123111D02*
D03*
X-64056D02*
D03*
X-5000D02*
D03*
X54055D02*
D03*
X113110D02*
D03*
X172165D02*
D03*
X231220D02*
D03*
X290275D02*
D03*
X-300276Y-206693D02*
D03*
X-241221D02*
D03*
X-182166D02*
D03*
X-123111D02*
D03*
X-64056D02*
D03*
X-5000D02*
D03*
X54055D02*
D03*
X113110D02*
D03*
X172165D02*
D03*
X231220D02*
D03*
X290275D02*
D03*
X-300276Y-265748D02*
D03*
X-241221D02*
D03*
X-182166D02*
D03*
X-123111D02*
D03*
X-64056D02*
D03*
X-5000D02*
D03*
X54055D02*
D03*
X113110D02*
D03*
X172165D02*
D03*
X231220D02*
D03*
X290275D02*
D03*
D30*
X-79724Y-347441D02*
D03*
X-54134D02*
D03*
X-79724Y-329724D02*
D03*
X-54134D02*
D03*
X-130905Y-347441D02*
D03*
X-105315D02*
D03*
X-130905Y-329724D02*
D03*
X-105315D02*
D03*
D31*
X-338583Y307087D02*
D03*
X338583D02*
D03*
Y-275590D02*
D03*
X-338583D02*
D03*
X0Y307087D02*
D03*
X-338583Y11811D02*
D03*
X338583D02*
D03*
X0Y-303150D02*
D03*
D32*
X195200Y-378200D02*
D03*
X205200D02*
D03*
X215200D02*
D03*
X225200D02*
D03*
X235200D02*
D03*
X245200D02*
D03*
X255200D02*
D03*
X265200D02*
D03*
X275200D02*
D03*
X285200D02*
D03*
X295200D02*
D03*
X305200D02*
D03*
X315200D02*
D03*
X325200D02*
D03*
X335200D02*
D03*
X205200Y-318200D02*
D03*
X215200D02*
D03*
X225200D02*
D03*
X245200D02*
D03*
X235200D02*
D03*
X265200D02*
D03*
X255200D02*
D03*
X285200D02*
D03*
X275200D02*
D03*
X305200D02*
D03*
X295200D02*
D03*
X325200D02*
D03*
X315200D02*
D03*
X335200D02*
D03*
D33*
X195200D02*
D03*
D34*
X106200Y-363300D02*
D03*
X257300Y-299700D02*
D03*
X173000Y-373700D02*
D03*
X164000Y-372323D02*
D03*
X134500Y-353500D02*
D03*
X-212177Y-372323D02*
D03*
X-328677D02*
D03*
X-298177Y-364000D02*
D03*
X-338677Y-372323D02*
D03*
X-234677Y-364000D02*
D03*
X199000Y-300000D02*
D03*
X-286311Y-306276D02*
D03*
X-227256Y-305760D02*
D03*
X-168201Y-306260D02*
D03*
X-109146D02*
D03*
X-50091D02*
D03*
X68020D02*
D03*
X127075Y-305760D02*
D03*
X304240Y-306276D02*
D03*
X20823Y-364000D02*
D03*
X-181677D02*
D03*
X-207000Y241000D02*
D03*
X-202000Y300500D02*
D03*
X-212035Y182965D02*
D03*
X-19500Y-358000D02*
D03*
X31000Y-306000D02*
D03*
X-207000Y-284000D02*
D03*
X-202000Y-293500D02*
D03*
X-212000D02*
D03*
X60323Y-372323D02*
D03*
X55300Y-380400D02*
D03*
X-217200Y-380500D02*
D03*
X-333700D02*
D03*
M02*
