G04 Layer_Physical_Order=2*
G04 Layer_Color=26163*
%FSLAX25Y25*%
%MOIN*%
G70*
G01*
G75*
%ADD13C,0.04000*%
%ADD14C,0.02000*%
%ADD15R,0.06000X0.15000*%
%ADD16O,0.06000X0.15000*%
%ADD17C,0.07500*%
%ADD18C,0.15748*%
%ADD19O,0.07000X0.12000*%
%ADD20R,0.07000X0.12000*%
%ADD21C,0.05000*%
G36*
X327654Y315539D02*
X328494Y313349D01*
X327970Y312494D01*
X327255Y310767D01*
X326819Y308950D01*
X326672Y307087D01*
X326819Y305223D01*
X327255Y303406D01*
X327970Y301679D01*
X328947Y300086D01*
X330160Y298664D01*
X331582Y297451D01*
X333175Y296474D01*
X334902Y295759D01*
X336719Y295322D01*
X338583Y295176D01*
X340446Y295322D01*
X342263Y295759D01*
X343990Y296474D01*
X344845Y296998D01*
X347035Y296158D01*
X347845Y295437D01*
Y23461D01*
X347035Y22740D01*
X344845Y21900D01*
X343990Y22424D01*
X342263Y23139D01*
X340446Y23575D01*
X338583Y23722D01*
X336719Y23575D01*
X334902Y23139D01*
X333175Y22424D01*
X331582Y21447D01*
X330160Y20233D01*
X328947Y18812D01*
X327970Y17218D01*
X327255Y15492D01*
X326819Y13674D01*
X326672Y11811D01*
X326819Y9948D01*
X327255Y8130D01*
X327970Y6404D01*
X328947Y4810D01*
X330160Y3389D01*
X331582Y2175D01*
X333175Y1199D01*
X334902Y483D01*
X336719Y47D01*
X338583Y-100D01*
X340446Y47D01*
X342263Y483D01*
X343990Y1199D01*
X344845Y1722D01*
X347035Y882D01*
X347845Y161D01*
Y-263941D01*
X347035Y-264662D01*
X344845Y-265502D01*
X343990Y-264978D01*
X342263Y-264263D01*
X340446Y-263826D01*
X338583Y-263680D01*
X336719Y-263826D01*
X334902Y-264263D01*
X333175Y-264978D01*
X331582Y-265955D01*
X330160Y-267168D01*
X328947Y-268590D01*
X327970Y-270183D01*
X327255Y-271910D01*
X326819Y-273727D01*
X326672Y-275590D01*
X326819Y-277454D01*
X327255Y-279271D01*
X327970Y-280998D01*
X328947Y-282592D01*
X330160Y-284013D01*
X331582Y-285226D01*
X333175Y-286203D01*
X334902Y-286918D01*
X336719Y-287355D01*
X338583Y-287501D01*
X340446Y-287355D01*
X342263Y-286918D01*
X343990Y-286203D01*
X344845Y-285679D01*
X347035Y-286519D01*
X347845Y-287241D01*
Y-382591D01*
X344845Y-382959D01*
X342736Y-380700D01*
Y-375700D01*
X342592Y-374230D01*
X342163Y-372816D01*
X341466Y-371513D01*
X340529Y-370371D01*
X339387Y-369434D01*
X338084Y-368737D01*
X336670Y-368308D01*
X335200Y-368164D01*
X333730Y-368308D01*
X332316Y-368737D01*
X331013Y-369434D01*
X330200Y-370101D01*
X329387Y-369434D01*
X328084Y-368737D01*
X326670Y-368308D01*
X325200Y-368164D01*
X323730Y-368308D01*
X322316Y-368737D01*
X321013Y-369434D01*
X320200Y-370101D01*
X319387Y-369434D01*
X318084Y-368737D01*
X316670Y-368308D01*
X315200Y-368164D01*
X313730Y-368308D01*
X312316Y-368737D01*
X311013Y-369434D01*
X310200Y-370101D01*
X309387Y-369434D01*
X308084Y-368737D01*
X306670Y-368308D01*
X305200Y-368164D01*
X303730Y-368308D01*
X302316Y-368737D01*
X301013Y-369434D01*
X300200Y-370101D01*
X299387Y-369434D01*
X298084Y-368737D01*
X296670Y-368308D01*
X295200Y-368164D01*
X293730Y-368308D01*
X292316Y-368737D01*
X291013Y-369434D01*
X290200Y-370101D01*
X289387Y-369434D01*
X288084Y-368737D01*
X286670Y-368308D01*
X285200Y-368164D01*
X283730Y-368308D01*
X282316Y-368737D01*
X281013Y-369434D01*
X280200Y-370101D01*
X279387Y-369434D01*
X278084Y-368737D01*
X276670Y-368308D01*
X275200Y-368164D01*
X273730Y-368308D01*
X272316Y-368737D01*
X271013Y-369434D01*
X270200Y-370101D01*
X269387Y-369434D01*
X268084Y-368737D01*
X266670Y-368308D01*
X265200Y-368164D01*
X263730Y-368308D01*
X262316Y-368737D01*
X261013Y-369434D01*
X260200Y-370101D01*
X259387Y-369434D01*
X258084Y-368737D01*
X256670Y-368308D01*
X255200Y-368164D01*
X253730Y-368308D01*
X252316Y-368737D01*
X251013Y-369434D01*
X250200Y-370101D01*
X249387Y-369434D01*
X248084Y-368737D01*
X246670Y-368308D01*
X245200Y-368164D01*
X243730Y-368308D01*
X242316Y-368737D01*
X241013Y-369434D01*
X240200Y-370101D01*
X239387Y-369434D01*
X238084Y-368737D01*
X236670Y-368308D01*
X235200Y-368164D01*
X233730Y-368308D01*
X232316Y-368737D01*
X232235Y-368781D01*
X229426Y-367331D01*
X229235Y-367077D01*
Y-359700D01*
X229212Y-359526D01*
X230576Y-357321D01*
X231457Y-356526D01*
X325200D01*
X325983Y-356423D01*
X326713Y-356120D01*
X327340Y-355640D01*
X327820Y-355013D01*
X328123Y-354283D01*
X328226Y-353500D01*
Y-328485D01*
X330946Y-326911D01*
X331013Y-326966D01*
X332316Y-327663D01*
X333730Y-328092D01*
X335200Y-328236D01*
X336670Y-328092D01*
X338084Y-327663D01*
X339387Y-326966D01*
X340529Y-326029D01*
X341466Y-324887D01*
X342163Y-323584D01*
X342592Y-322170D01*
X342736Y-320700D01*
Y-315700D01*
X342592Y-314230D01*
X342163Y-312816D01*
X341466Y-311513D01*
X340529Y-310371D01*
X339387Y-309434D01*
X338084Y-308737D01*
X336670Y-308309D01*
X335200Y-308164D01*
X333730Y-308309D01*
X332316Y-308737D01*
X331013Y-309434D01*
X330200Y-310101D01*
X329387Y-309434D01*
X328084Y-308737D01*
X326670Y-308309D01*
X325200Y-308164D01*
X323730Y-308309D01*
X322316Y-308737D01*
X321013Y-309434D01*
X320200Y-310101D01*
X319387Y-309434D01*
X318084Y-308737D01*
X316670Y-308309D01*
X315200Y-308164D01*
X313730Y-308309D01*
X312316Y-308737D01*
X311013Y-309434D01*
X310560Y-309806D01*
X308106Y-308138D01*
X308137Y-307320D01*
X308275Y-306276D01*
X308137Y-305231D01*
X307734Y-304258D01*
X307093Y-303423D01*
X306257Y-302782D01*
X305284Y-302379D01*
X304240Y-302241D01*
X261334D01*
Y-299700D01*
X261197Y-298656D01*
X260794Y-297683D01*
X260153Y-296847D01*
X259317Y-296206D01*
X258344Y-295803D01*
X257300Y-295666D01*
X256256Y-295803D01*
X255283Y-296206D01*
X254447Y-296847D01*
X253806Y-297683D01*
X253403Y-298656D01*
X253266Y-299700D01*
Y-302241D01*
X224800D01*
X224800Y-302241D01*
X224800Y-302241D01*
X203034D01*
Y-300000D01*
X202897Y-298956D01*
X202494Y-297983D01*
X201853Y-297147D01*
X201017Y-296506D01*
X200044Y-296103D01*
X199000Y-295966D01*
X197956Y-296103D01*
X196983Y-296506D01*
X196147Y-297147D01*
X195506Y-297983D01*
X195103Y-298956D01*
X194966Y-300000D01*
Y-302241D01*
X35034D01*
Y-288000D01*
X34897Y-286956D01*
X34494Y-285983D01*
X33853Y-285147D01*
X33017Y-284506D01*
X32044Y-284103D01*
X31000Y-283965D01*
X-50000D01*
X-51044Y-284103D01*
X-52017Y-284506D01*
X-52853Y-285147D01*
X-53494Y-285983D01*
X-53897Y-286956D01*
X-54035Y-288000D01*
Y-302466D01*
X-166909D01*
X-167157Y-302363D01*
X-168201Y-302225D01*
X-169245Y-302363D01*
X-169494Y-302466D01*
X-198829D01*
X-199501Y-299534D01*
X-198371Y-298931D01*
X-197382Y-298118D01*
X-196569Y-297129D01*
X-195966Y-296000D01*
X-195594Y-294774D01*
X-195469Y-293500D01*
X-195594Y-292226D01*
X-195966Y-291001D01*
X-196569Y-289871D01*
X-197382Y-288882D01*
X-198371Y-288069D01*
X-198974Y-287747D01*
Y294747D01*
X-198371Y295069D01*
X-197382Y295882D01*
X-196569Y296871D01*
X-195966Y298001D01*
X-195594Y299226D01*
X-195469Y300500D01*
X-195594Y301774D01*
X-195966Y302999D01*
X-196569Y304129D01*
X-197382Y305118D01*
X-198371Y305931D01*
X-199501Y306534D01*
X-200726Y306906D01*
X-202000Y307031D01*
X-203274Y306906D01*
X-204500Y306534D01*
X-205629Y305931D01*
X-206618Y305118D01*
X-207431Y304129D01*
X-208034Y302999D01*
X-208406Y301774D01*
X-208531Y300500D01*
X-208406Y299226D01*
X-208034Y298001D01*
X-207431Y296871D01*
X-206618Y295882D01*
X-205629Y295069D01*
X-205026Y294747D01*
Y250175D01*
X-207000Y247531D01*
X-208274Y247406D01*
X-209500Y247034D01*
X-210629Y246431D01*
X-211618Y245618D01*
X-212431Y244629D01*
X-213034Y243499D01*
X-213406Y242274D01*
X-213531Y241000D01*
X-213406Y239726D01*
X-213034Y238500D01*
X-212431Y237371D01*
X-211618Y236382D01*
X-210629Y235569D01*
X-210026Y235247D01*
Y192120D01*
X-212035Y189496D01*
X-213310Y189371D01*
X-214535Y188999D01*
X-215664Y188395D01*
X-216654Y187583D01*
X-217466Y186593D01*
X-218070Y185464D01*
X-218441Y184239D01*
X-218567Y182965D01*
X-218441Y181690D01*
X-218070Y180465D01*
X-217466Y179336D01*
X-216654Y178346D01*
X-215664Y177534D01*
X-215026Y177193D01*
Y-287747D01*
X-215629Y-288069D01*
X-216618Y-288882D01*
X-217431Y-289871D01*
X-218034Y-291001D01*
X-218406Y-292226D01*
X-218531Y-293500D01*
X-218406Y-294774D01*
X-218034Y-296000D01*
X-217431Y-297129D01*
X-216618Y-298118D01*
X-215629Y-298931D01*
X-214499Y-299534D01*
X-215171Y-302466D01*
X-285057D01*
X-285267Y-302379D01*
X-286311Y-302241D01*
X-287356Y-302379D01*
X-288329Y-302782D01*
X-289164Y-303423D01*
X-289805Y-304258D01*
X-290208Y-305231D01*
X-290346Y-306276D01*
X-290208Y-307320D01*
X-289805Y-308293D01*
X-289164Y-309128D01*
X-288940Y-309353D01*
X-288940Y-309353D01*
X-288104Y-309994D01*
X-287131Y-310397D01*
X-286087Y-310535D01*
X-172236D01*
Y-347441D01*
X-172098Y-348485D01*
X-171695Y-349458D01*
X-171054Y-350294D01*
X-170218Y-350935D01*
X-169245Y-351338D01*
X-168201Y-351476D01*
X-130905D01*
X-129861Y-351338D01*
X-128888Y-350935D01*
X-128053Y-350294D01*
X-127411Y-349458D01*
X-127008Y-348485D01*
X-126871Y-347441D01*
X-127008Y-346397D01*
X-127411Y-345424D01*
X-128053Y-344588D01*
X-128888Y-343947D01*
X-129861Y-343544D01*
X-130905Y-343406D01*
X-164166D01*
Y-310535D01*
X-50091D01*
X-49046Y-310397D01*
X-48074Y-309994D01*
X-47238Y-309353D01*
X-46597Y-308517D01*
X-46194Y-307544D01*
X-46193Y-307536D01*
X-46103Y-307320D01*
X-45965Y-306276D01*
Y-292035D01*
X-9888D01*
X-8907Y-293837D01*
X-8684Y-295035D01*
X-9636Y-296149D01*
X-10612Y-297742D01*
X-11328Y-299469D01*
X-11764Y-301286D01*
X-11911Y-303150D01*
X-11764Y-305013D01*
X-11328Y-306830D01*
X-10612Y-308557D01*
X-9636Y-310151D01*
X-8422Y-311572D01*
X-7001Y-312786D01*
X-5407Y-313762D01*
X-3681Y-314477D01*
X-1863Y-314914D01*
X0Y-315060D01*
X1863Y-314914D01*
X3681Y-314477D01*
X5407Y-313762D01*
X7001Y-312786D01*
X8422Y-311572D01*
X9636Y-310151D01*
X10612Y-308557D01*
X11328Y-306830D01*
X11764Y-305013D01*
X11911Y-303150D01*
X11764Y-301286D01*
X11328Y-299469D01*
X10612Y-297742D01*
X9636Y-296149D01*
X8684Y-295035D01*
X8907Y-293837D01*
X9888Y-292035D01*
X26965D01*
Y-306276D01*
X27103Y-307320D01*
X27506Y-308293D01*
X28147Y-309128D01*
X28983Y-309770D01*
X29956Y-310173D01*
X31000Y-310310D01*
X187700D01*
Y-328200D01*
X202700D01*
Y-328200D01*
X205200Y-328236D01*
X205695Y-328188D01*
X206670Y-328092D01*
X208084Y-327663D01*
X209387Y-326966D01*
X210200Y-326299D01*
X211013Y-326966D01*
X212316Y-327663D01*
X213730Y-328092D01*
X215200Y-328236D01*
X216670Y-328092D01*
X218084Y-327663D01*
X219387Y-326966D01*
X220529Y-326029D01*
X221466Y-324887D01*
X223262Y-323856D01*
X224286Y-324110D01*
X224700Y-324164D01*
Y-318200D01*
X225700D01*
Y-324164D01*
X226114Y-324110D01*
X227138Y-323856D01*
X228934Y-324887D01*
X229871Y-326029D01*
X231013Y-326966D01*
X232316Y-327663D01*
X233730Y-328092D01*
X235200Y-328236D01*
X236670Y-328092D01*
X238084Y-327663D01*
X239387Y-326966D01*
X240200Y-326299D01*
X241013Y-326966D01*
X242316Y-327663D01*
X243730Y-328092D01*
X245200Y-328236D01*
X246670Y-328092D01*
X248084Y-327663D01*
X249387Y-326966D01*
X250200Y-326299D01*
X251013Y-326966D01*
X252316Y-327663D01*
X253730Y-328092D01*
X255200Y-328236D01*
X256670Y-328092D01*
X258084Y-327663D01*
X259387Y-326966D01*
X260200Y-326299D01*
X261013Y-326966D01*
X262316Y-327663D01*
X263730Y-328092D01*
X265200Y-328236D01*
X266670Y-328092D01*
X268084Y-327663D01*
X269387Y-326966D01*
X270200Y-326299D01*
X271013Y-326966D01*
X272316Y-327663D01*
X273730Y-328092D01*
X275200Y-328236D01*
X276670Y-328092D01*
X278084Y-327663D01*
X279387Y-326966D01*
X280200Y-326299D01*
X281013Y-326966D01*
X282316Y-327663D01*
X283730Y-328092D01*
X285200Y-328236D01*
X286670Y-328092D01*
X288084Y-327663D01*
X289387Y-326966D01*
X290200Y-326299D01*
X291013Y-326966D01*
X292316Y-327663D01*
X293730Y-328092D01*
X295200Y-328236D01*
X296670Y-328092D01*
X298084Y-327663D01*
X299387Y-326966D01*
X300200Y-326299D01*
X301013Y-326966D01*
X302316Y-327663D01*
X303730Y-328092D01*
X305200Y-328236D01*
X306670Y-328092D01*
X308084Y-327663D01*
X309387Y-326966D01*
X309454Y-326911D01*
X312174Y-328485D01*
Y-344974D01*
X184026D01*
Y-322500D01*
X183923Y-321717D01*
X183621Y-320987D01*
X183140Y-320360D01*
X182513Y-319880D01*
X181783Y-319577D01*
X181000Y-319474D01*
X-105000D01*
X-105783Y-319577D01*
X-106513Y-319880D01*
X-107140Y-320360D01*
X-107621Y-320987D01*
X-107923Y-321717D01*
X-108019Y-322446D01*
X-108295Y-322530D01*
X-109642Y-323249D01*
X-110822Y-324218D01*
X-111790Y-325398D01*
X-112485Y-326698D01*
X-123735D01*
X-124430Y-325398D01*
X-125399Y-324218D01*
X-126579Y-323249D01*
X-127925Y-322530D01*
X-129386Y-322087D01*
X-130905Y-321937D01*
X-132425Y-322087D01*
X-133886Y-322530D01*
X-135232Y-323249D01*
X-136412Y-324218D01*
X-137381Y-325398D01*
X-138100Y-326744D01*
X-138543Y-328205D01*
X-138693Y-329724D01*
X-138543Y-331244D01*
X-138100Y-332705D01*
X-137381Y-334051D01*
X-136412Y-335231D01*
X-135232Y-336199D01*
X-133886Y-336919D01*
X-132425Y-337362D01*
X-130905Y-337512D01*
X-129386Y-337362D01*
X-127925Y-336919D01*
X-126579Y-336199D01*
X-125399Y-335231D01*
X-124430Y-334051D01*
X-123735Y-332750D01*
X-112485D01*
X-111790Y-334051D01*
X-110822Y-335231D01*
X-109642Y-336199D01*
X-108295Y-336919D01*
X-106834Y-337362D01*
X-105315Y-337512D01*
X-103796Y-337362D01*
X-102335Y-336919D01*
X-100988Y-336199D01*
X-99808Y-335231D01*
X-98840Y-334051D01*
X-98120Y-332705D01*
X-97677Y-331244D01*
X-97527Y-329724D01*
X-97645Y-328526D01*
X-97531Y-328022D01*
X-95535Y-325526D01*
X-89505D01*
X-87509Y-328022D01*
X-87394Y-328526D01*
X-87512Y-329724D01*
X-87362Y-331244D01*
X-86919Y-332705D01*
X-86199Y-334051D01*
X-85231Y-335231D01*
X-84051Y-336199D01*
X-82705Y-336919D01*
X-81244Y-337362D01*
X-79724Y-337512D01*
X-78205Y-337362D01*
X-76744Y-336919D01*
X-75398Y-336199D01*
X-74218Y-335231D01*
X-73249Y-334051D01*
X-72554Y-332750D01*
X-61304D01*
X-60609Y-334051D01*
X-59640Y-335231D01*
X-58460Y-336199D01*
X-57114Y-336919D01*
X-55653Y-337362D01*
X-54134Y-337512D01*
X-52615Y-337362D01*
X-51154Y-336919D01*
X-49807Y-336199D01*
X-48627Y-335231D01*
X-47659Y-334051D01*
X-46939Y-332705D01*
X-46885Y-332526D01*
X17551D01*
X18847Y-335215D01*
X18826Y-335526D01*
X18147Y-336047D01*
X17506Y-336883D01*
X17103Y-337856D01*
X16965Y-338900D01*
Y-353965D01*
X-14402D01*
X-14882Y-353382D01*
X-15871Y-352569D01*
X-17000Y-351966D01*
X-18226Y-351594D01*
X-19500Y-351469D01*
X-20774Y-351594D01*
X-22000Y-351966D01*
X-23129Y-352569D01*
X-24118Y-353382D01*
X-24931Y-354371D01*
X-25534Y-355501D01*
X-25906Y-356726D01*
X-26032Y-358000D01*
X-25906Y-359274D01*
X-25534Y-360500D01*
X-24931Y-361629D01*
X-24118Y-362618D01*
X-23129Y-363431D01*
X-22000Y-364034D01*
X-20774Y-364406D01*
X-19500Y-364531D01*
X-18226Y-364406D01*
X-17000Y-364034D01*
X-15871Y-363431D01*
X-14882Y-362618D01*
X-14402Y-362035D01*
X11644D01*
X14291Y-364000D01*
X14417Y-365274D01*
X14643Y-366021D01*
X13960Y-367517D01*
X12735Y-369021D01*
X-173589D01*
X-174815Y-367517D01*
X-175498Y-366021D01*
X-175271Y-365274D01*
X-175146Y-364000D01*
X-175271Y-362726D01*
X-175643Y-361501D01*
X-176247Y-360371D01*
X-177059Y-359382D01*
X-178049Y-358569D01*
X-179178Y-357966D01*
X-180403Y-357594D01*
X-181677Y-357469D01*
X-182951Y-357594D01*
X-184177Y-357966D01*
X-185306Y-358569D01*
X-186296Y-359382D01*
X-186775Y-359965D01*
X-229580D01*
X-230059Y-359382D01*
X-231048Y-358569D01*
X-232178Y-357966D01*
X-233403Y-357594D01*
X-234677Y-357469D01*
X-235951Y-357594D01*
X-237177Y-357966D01*
X-238306Y-358569D01*
X-239296Y-359382D01*
X-239775Y-359965D01*
X-293080D01*
X-293559Y-359382D01*
X-294549Y-358569D01*
X-295678Y-357966D01*
X-296903Y-357594D01*
X-298177Y-357469D01*
X-299451Y-357594D01*
X-300677Y-357966D01*
X-301806Y-358569D01*
X-302796Y-359382D01*
X-303275Y-359965D01*
X-338500D01*
X-339544Y-360103D01*
X-340517Y-360506D01*
X-341353Y-361147D01*
X-341994Y-361983D01*
X-342397Y-362956D01*
X-342534Y-364000D01*
Y-367080D01*
X-343296Y-367704D01*
X-344108Y-368694D01*
X-344711Y-369823D01*
X-344845Y-370263D01*
X-347845Y-369818D01*
Y-287241D01*
X-347035Y-286519D01*
X-344845Y-285679D01*
X-343990Y-286203D01*
X-342263Y-286918D01*
X-340446Y-287355D01*
X-338583Y-287501D01*
X-336719Y-287355D01*
X-334902Y-286918D01*
X-333175Y-286203D01*
X-331582Y-285226D01*
X-330160Y-284013D01*
X-328947Y-282592D01*
X-327970Y-280998D01*
X-327255Y-279271D01*
X-326819Y-277454D01*
X-326672Y-275590D01*
X-326819Y-273727D01*
X-327255Y-271910D01*
X-327970Y-270183D01*
X-328947Y-268590D01*
X-330160Y-267168D01*
X-331582Y-265955D01*
X-333175Y-264978D01*
X-334902Y-264263D01*
X-336719Y-263826D01*
X-338583Y-263680D01*
X-340446Y-263826D01*
X-342263Y-264263D01*
X-343990Y-264978D01*
X-344845Y-265502D01*
X-347035Y-264662D01*
X-347845Y-263941D01*
Y161D01*
X-347035Y882D01*
X-344845Y1722D01*
X-343990Y1199D01*
X-342263Y483D01*
X-340446Y47D01*
X-338583Y-100D01*
X-336719Y47D01*
X-334902Y483D01*
X-333175Y1199D01*
X-331582Y2175D01*
X-330160Y3389D01*
X-328947Y4810D01*
X-327970Y6404D01*
X-327255Y8130D01*
X-326819Y9948D01*
X-326672Y11811D01*
X-326819Y13674D01*
X-327255Y15492D01*
X-327970Y17218D01*
X-328947Y18812D01*
X-330160Y20233D01*
X-331582Y21447D01*
X-333175Y22424D01*
X-334902Y23139D01*
X-336719Y23575D01*
X-338583Y23722D01*
X-340446Y23575D01*
X-342263Y23139D01*
X-343990Y22424D01*
X-344845Y21900D01*
X-347035Y22740D01*
X-347845Y23461D01*
Y295437D01*
X-347035Y296158D01*
X-344845Y296998D01*
X-343990Y296474D01*
X-342263Y295759D01*
X-340446Y295322D01*
X-338583Y295176D01*
X-336719Y295322D01*
X-334902Y295759D01*
X-333175Y296474D01*
X-331582Y297451D01*
X-330160Y298664D01*
X-328947Y300086D01*
X-327970Y301679D01*
X-327255Y303406D01*
X-326819Y305223D01*
X-326672Y307087D01*
X-326819Y308950D01*
X-327255Y310767D01*
X-327970Y312494D01*
X-328494Y313349D01*
X-327654Y315539D01*
X-326933Y316349D01*
X-11650D01*
X-10929Y315539D01*
X-10089Y313349D01*
X-10612Y312494D01*
X-11328Y310767D01*
X-11764Y308950D01*
X-11911Y307087D01*
X-11764Y305223D01*
X-11328Y303406D01*
X-10612Y301679D01*
X-9636Y300086D01*
X-8422Y298664D01*
X-7001Y297451D01*
X-5407Y296474D01*
X-3681Y295759D01*
X-1863Y295322D01*
X0Y295176D01*
X1863Y295322D01*
X3681Y295759D01*
X5407Y296474D01*
X7001Y297451D01*
X8422Y298664D01*
X9636Y300086D01*
X10612Y301679D01*
X11328Y303406D01*
X11764Y305223D01*
X11911Y307087D01*
X11764Y308950D01*
X11328Y310767D01*
X10612Y312494D01*
X10089Y313349D01*
X10929Y315539D01*
X11650Y316349D01*
X326933D01*
X327654Y315539D01*
D02*
G37*
%LPC*%
G36*
X290275Y277282D02*
X288903Y277147D01*
X287584Y276747D01*
X286368Y276097D01*
X285302Y275222D01*
X284427Y274156D01*
X283777Y272940D01*
X283377Y271620D01*
X283242Y270248D01*
Y261248D01*
X283377Y259876D01*
X283777Y258556D01*
X284427Y257340D01*
X285302Y256274D01*
X286368Y255400D01*
X287584Y254750D01*
X288903Y254349D01*
X290275Y254214D01*
X290289Y254216D01*
X293241Y254248D01*
X293367Y254245D01*
X296241Y254165D01*
Y218276D01*
X293367Y218196D01*
X293241Y218193D01*
X290289Y218226D01*
X290275Y218227D01*
X288903Y218092D01*
X287584Y217691D01*
X286368Y217041D01*
X285302Y216167D01*
X284427Y215101D01*
X283777Y213885D01*
X283377Y212565D01*
X283242Y211193D01*
Y202193D01*
X283377Y200821D01*
X283777Y199501D01*
X284427Y198285D01*
X285302Y197219D01*
X286368Y196344D01*
X287584Y195694D01*
X288903Y195294D01*
X290275Y195159D01*
X290289Y195160D01*
X293241Y195193D01*
X293367Y195190D01*
X296241Y195109D01*
Y159221D01*
X293367Y159140D01*
X293241Y159138D01*
X290289Y159170D01*
X290275Y159172D01*
X288903Y159037D01*
X287584Y158636D01*
X286368Y157986D01*
X285302Y157112D01*
X284427Y156046D01*
X283777Y154830D01*
X283377Y153510D01*
X283242Y152138D01*
Y143138D01*
X283377Y141766D01*
X283777Y140446D01*
X284427Y139230D01*
X285302Y138164D01*
X286368Y137289D01*
X287584Y136639D01*
X288903Y136239D01*
X290275Y136104D01*
X290289Y136105D01*
X293241Y136137D01*
X293367Y136135D01*
X296241Y136054D01*
Y100166D01*
X293367Y100085D01*
X293241Y100083D01*
X290289Y100115D01*
X290275Y100117D01*
X288903Y99981D01*
X287584Y99581D01*
X286368Y98931D01*
X285302Y98056D01*
X284427Y96991D01*
X283777Y95774D01*
X283377Y94455D01*
X283242Y93083D01*
Y84083D01*
X283377Y82710D01*
X283777Y81391D01*
X284427Y80175D01*
X285302Y79109D01*
X286368Y78234D01*
X287584Y77584D01*
X288903Y77184D01*
X290275Y77049D01*
X290289Y77050D01*
X293241Y77082D01*
X293367Y77080D01*
X296241Y76999D01*
Y41111D01*
X293367Y41030D01*
X293241Y41028D01*
X290289Y41060D01*
X290275Y41061D01*
X288903Y40926D01*
X287584Y40526D01*
X286368Y39876D01*
X285302Y39001D01*
X284427Y37935D01*
X283777Y36719D01*
X283377Y35400D01*
X283242Y34028D01*
Y25028D01*
X283377Y23655D01*
X283777Y22336D01*
X284427Y21120D01*
X285302Y20054D01*
X286368Y19179D01*
X287584Y18529D01*
X288903Y18129D01*
X290275Y17994D01*
X290289Y17995D01*
X293241Y18027D01*
X293367Y18025D01*
X296241Y17944D01*
Y-17944D01*
X293367Y-18025D01*
X293241Y-18027D01*
X290289Y-17995D01*
X290275Y-17994D01*
X288903Y-18129D01*
X287584Y-18529D01*
X286368Y-19179D01*
X285302Y-20054D01*
X284427Y-21120D01*
X283777Y-22336D01*
X283377Y-23655D01*
X283242Y-25028D01*
Y-34028D01*
X283377Y-35400D01*
X283777Y-36719D01*
X284427Y-37935D01*
X285302Y-39001D01*
X286368Y-39876D01*
X287584Y-40526D01*
X288903Y-40926D01*
X290275Y-41061D01*
X290289Y-41060D01*
X293241Y-41028D01*
X293367Y-41030D01*
X296241Y-41111D01*
Y-76999D01*
X293367Y-77080D01*
X293241Y-77082D01*
X290289Y-77050D01*
X290275Y-77049D01*
X288903Y-77184D01*
X287584Y-77584D01*
X286368Y-78234D01*
X285302Y-79109D01*
X284427Y-80175D01*
X283777Y-81391D01*
X283377Y-82710D01*
X283242Y-84083D01*
Y-93083D01*
X283377Y-94455D01*
X283777Y-95774D01*
X284427Y-96991D01*
X285302Y-98056D01*
X286368Y-98931D01*
X287584Y-99581D01*
X288903Y-99981D01*
X290275Y-100117D01*
X290289Y-100115D01*
X293241Y-100083D01*
X293367Y-100085D01*
X296241Y-100166D01*
Y-136054D01*
X293367Y-136135D01*
X293241Y-136137D01*
X290289Y-136105D01*
X290275Y-136104D01*
X288903Y-136239D01*
X287584Y-136639D01*
X286368Y-137289D01*
X285302Y-138164D01*
X284427Y-139230D01*
X283777Y-140446D01*
X283377Y-141766D01*
X283242Y-143138D01*
Y-152138D01*
X283377Y-153510D01*
X283777Y-154830D01*
X284427Y-156046D01*
X285302Y-157112D01*
X286368Y-157986D01*
X287584Y-158636D01*
X288903Y-159037D01*
X290275Y-159172D01*
X290289Y-159170D01*
X293241Y-159138D01*
X293367Y-159140D01*
X296241Y-159221D01*
Y-195109D01*
X293367Y-195190D01*
X293241Y-195193D01*
X290289Y-195160D01*
X290275Y-195159D01*
X288903Y-195294D01*
X287584Y-195694D01*
X286368Y-196344D01*
X285302Y-197219D01*
X284427Y-198285D01*
X283777Y-199501D01*
X283377Y-200821D01*
X283242Y-202193D01*
Y-211193D01*
X283377Y-212565D01*
X283777Y-213885D01*
X284427Y-215101D01*
X285302Y-216167D01*
X286368Y-217041D01*
X287584Y-217691D01*
X288903Y-218092D01*
X290275Y-218227D01*
X290289Y-218226D01*
X293241Y-218193D01*
X293367Y-218196D01*
X296241Y-218276D01*
Y-254165D01*
X293367Y-254245D01*
X293241Y-254248D01*
X290289Y-254216D01*
X290275Y-254214D01*
X288903Y-254349D01*
X287584Y-254750D01*
X286368Y-255400D01*
X285302Y-256274D01*
X284427Y-257340D01*
X283777Y-258556D01*
X283377Y-259876D01*
X283242Y-261248D01*
Y-270248D01*
X283377Y-271620D01*
X283777Y-272940D01*
X284427Y-274156D01*
X285302Y-275222D01*
X286368Y-276097D01*
X287584Y-276747D01*
X288903Y-277147D01*
X290275Y-277282D01*
X290289Y-277281D01*
X293275Y-277248D01*
Y-277248D01*
X307275D01*
Y-254248D01*
X304310D01*
Y-218193D01*
X307275D01*
Y-195193D01*
X304310D01*
Y-159138D01*
X307275D01*
Y-136138D01*
X304310D01*
Y-100083D01*
X307275D01*
Y-77083D01*
X304310D01*
Y-41028D01*
X307275D01*
Y-18028D01*
X304310D01*
Y18028D01*
X307275D01*
Y41028D01*
X304310D01*
Y77083D01*
X307275D01*
Y100083D01*
X304310D01*
Y136138D01*
X307275D01*
Y159138D01*
X304310D01*
Y195193D01*
X307275D01*
Y218193D01*
X304310D01*
Y254248D01*
X307275D01*
Y277248D01*
X293275D01*
X293275Y277248D01*
X290289Y277281D01*
X290275Y277282D01*
D02*
G37*
G36*
X231220D02*
X229848Y277147D01*
X228529Y276747D01*
X227313Y276097D01*
X226247Y275222D01*
X225372Y274156D01*
X224722Y272940D01*
X224322Y271620D01*
X224186Y270248D01*
Y261248D01*
X224322Y259876D01*
X224722Y258556D01*
X225372Y257340D01*
X226247Y256274D01*
X227313Y255400D01*
X228529Y254750D01*
X229848Y254349D01*
X231220Y254214D01*
X231234Y254216D01*
X234186Y254248D01*
X234312Y254245D01*
X237186Y254165D01*
Y218276D01*
X234312Y218196D01*
X234186Y218193D01*
X231234Y218226D01*
X231220Y218227D01*
X229848Y218092D01*
X228529Y217691D01*
X227313Y217041D01*
X226247Y216167D01*
X225372Y215101D01*
X224722Y213885D01*
X224322Y212565D01*
X224186Y211193D01*
Y202193D01*
X224322Y200821D01*
X224722Y199501D01*
X225372Y198285D01*
X226247Y197219D01*
X227313Y196344D01*
X228529Y195694D01*
X229848Y195294D01*
X231220Y195159D01*
X231234Y195160D01*
X234186Y195193D01*
X234312Y195190D01*
X237186Y195109D01*
Y159221D01*
X234312Y159140D01*
X234186Y159138D01*
X231234Y159170D01*
X231220Y159172D01*
X229848Y159037D01*
X228529Y158636D01*
X227313Y157986D01*
X226247Y157112D01*
X225372Y156046D01*
X224722Y154830D01*
X224322Y153510D01*
X224186Y152138D01*
Y143138D01*
X224322Y141766D01*
X224722Y140446D01*
X225372Y139230D01*
X226247Y138164D01*
X227313Y137289D01*
X228529Y136639D01*
X229848Y136239D01*
X231220Y136104D01*
X231234Y136105D01*
X234186Y136137D01*
X234312Y136135D01*
X237186Y136054D01*
Y100166D01*
X234312Y100085D01*
X234186Y100083D01*
X231234Y100115D01*
X231220Y100117D01*
X229848Y99981D01*
X228529Y99581D01*
X227313Y98931D01*
X226247Y98056D01*
X225372Y96991D01*
X224722Y95774D01*
X224322Y94455D01*
X224186Y93083D01*
Y84083D01*
X224322Y82710D01*
X224722Y81391D01*
X225372Y80175D01*
X226247Y79109D01*
X227313Y78234D01*
X228529Y77584D01*
X229848Y77184D01*
X231220Y77049D01*
X231234Y77050D01*
X234186Y77082D01*
X234312Y77080D01*
X237186Y76999D01*
Y41111D01*
X234312Y41030D01*
X234186Y41028D01*
X231234Y41060D01*
X231220Y41061D01*
X229848Y40926D01*
X228529Y40526D01*
X227313Y39876D01*
X226247Y39001D01*
X225372Y37935D01*
X224722Y36719D01*
X224322Y35400D01*
X224186Y34028D01*
Y25028D01*
X224322Y23655D01*
X224722Y22336D01*
X225372Y21120D01*
X226247Y20054D01*
X227313Y19179D01*
X228529Y18529D01*
X229848Y18129D01*
X231220Y17994D01*
X231234Y17995D01*
X234186Y18027D01*
X234312Y18025D01*
X237186Y17944D01*
Y-17944D01*
X234312Y-18025D01*
X234186Y-18027D01*
X231234Y-17995D01*
X231220Y-17994D01*
X229848Y-18129D01*
X228529Y-18529D01*
X227313Y-19179D01*
X226247Y-20054D01*
X225372Y-21120D01*
X224722Y-22336D01*
X224322Y-23655D01*
X224186Y-25028D01*
Y-34028D01*
X224322Y-35400D01*
X224722Y-36719D01*
X225372Y-37935D01*
X226247Y-39001D01*
X227313Y-39876D01*
X228529Y-40526D01*
X229848Y-40926D01*
X231220Y-41061D01*
X231234Y-41060D01*
X234186Y-41028D01*
X234312Y-41030D01*
X237186Y-41111D01*
Y-76999D01*
X234312Y-77080D01*
X234186Y-77082D01*
X231234Y-77050D01*
X231220Y-77049D01*
X229848Y-77184D01*
X228529Y-77584D01*
X227313Y-78234D01*
X226247Y-79109D01*
X225372Y-80175D01*
X224722Y-81391D01*
X224322Y-82710D01*
X224186Y-84083D01*
Y-93083D01*
X224322Y-94455D01*
X224722Y-95774D01*
X225372Y-96991D01*
X226247Y-98056D01*
X227313Y-98931D01*
X228529Y-99581D01*
X229848Y-99981D01*
X231220Y-100117D01*
X231234Y-100115D01*
X234186Y-100083D01*
X234312Y-100085D01*
X237186Y-100166D01*
Y-136054D01*
X234312Y-136135D01*
X234186Y-136137D01*
X231234Y-136105D01*
X231220Y-136104D01*
X229848Y-136239D01*
X228529Y-136639D01*
X227313Y-137289D01*
X226247Y-138164D01*
X225372Y-139230D01*
X224722Y-140446D01*
X224322Y-141766D01*
X224186Y-143138D01*
Y-152138D01*
X224322Y-153510D01*
X224722Y-154830D01*
X225372Y-156046D01*
X226247Y-157112D01*
X227313Y-157986D01*
X228529Y-158636D01*
X229848Y-159037D01*
X231220Y-159172D01*
X231234Y-159170D01*
X234186Y-159138D01*
X234312Y-159140D01*
X237186Y-159221D01*
Y-195109D01*
X234312Y-195190D01*
X234186Y-195193D01*
X231234Y-195160D01*
X231220Y-195159D01*
X229848Y-195294D01*
X228529Y-195694D01*
X227313Y-196344D01*
X226247Y-197219D01*
X225372Y-198285D01*
X224722Y-199501D01*
X224322Y-200821D01*
X224186Y-202193D01*
Y-211193D01*
X224322Y-212565D01*
X224722Y-213885D01*
X225372Y-215101D01*
X226247Y-216167D01*
X227313Y-217041D01*
X228529Y-217691D01*
X229848Y-218092D01*
X231220Y-218227D01*
X231234Y-218226D01*
X234186Y-218193D01*
X234312Y-218196D01*
X237186Y-218276D01*
Y-254165D01*
X234312Y-254245D01*
X234186Y-254248D01*
X231234Y-254216D01*
X231220Y-254214D01*
X229848Y-254349D01*
X228529Y-254750D01*
X227313Y-255400D01*
X226247Y-256274D01*
X225372Y-257340D01*
X224722Y-258556D01*
X224322Y-259876D01*
X224186Y-261248D01*
Y-270248D01*
X224322Y-271620D01*
X224722Y-272940D01*
X225372Y-274156D01*
X226247Y-275222D01*
X227313Y-276097D01*
X228529Y-276747D01*
X229848Y-277147D01*
X231220Y-277282D01*
X231234Y-277281D01*
X234220Y-277248D01*
Y-277248D01*
X248220D01*
Y-254248D01*
X245255D01*
Y-218193D01*
X248220D01*
Y-195193D01*
X245255D01*
Y-159138D01*
X248220D01*
Y-136138D01*
X245255D01*
Y-100083D01*
X248220D01*
Y-77083D01*
X245255D01*
Y-41028D01*
X248220D01*
Y-18028D01*
X245255D01*
Y18028D01*
X248220D01*
Y41028D01*
X245255D01*
Y77083D01*
X248220D01*
Y100083D01*
X245255D01*
Y136138D01*
X248220D01*
Y159138D01*
X245255D01*
Y195193D01*
X248220D01*
Y218193D01*
X245255D01*
Y254248D01*
X248220D01*
Y277248D01*
X234220D01*
X234220Y277248D01*
X231234Y277281D01*
X231220Y277282D01*
D02*
G37*
G36*
X172165D02*
X170793Y277147D01*
X169473Y276747D01*
X168257Y276097D01*
X167191Y275222D01*
X166317Y274156D01*
X165667Y272940D01*
X165266Y271620D01*
X165131Y270248D01*
Y261248D01*
X165266Y259876D01*
X165667Y258556D01*
X166317Y257340D01*
X167191Y256274D01*
X168257Y255400D01*
X169473Y254750D01*
X170793Y254349D01*
X172165Y254214D01*
X172179Y254216D01*
X175131Y254248D01*
X175257Y254245D01*
X178131Y254165D01*
Y218276D01*
X175257Y218196D01*
X175131Y218193D01*
X172179Y218226D01*
X172165Y218227D01*
X170793Y218092D01*
X169473Y217691D01*
X168257Y217041D01*
X167191Y216167D01*
X166317Y215101D01*
X165667Y213885D01*
X165266Y212565D01*
X165131Y211193D01*
Y202193D01*
X165266Y200821D01*
X165667Y199501D01*
X166317Y198285D01*
X167191Y197219D01*
X168257Y196344D01*
X169473Y195694D01*
X170793Y195294D01*
X172165Y195159D01*
X172179Y195160D01*
X175131Y195193D01*
X175257Y195190D01*
X178131Y195109D01*
Y159221D01*
X175257Y159140D01*
X175131Y159138D01*
X172179Y159170D01*
X172165Y159172D01*
X170793Y159037D01*
X169473Y158636D01*
X168257Y157986D01*
X167191Y157112D01*
X166317Y156046D01*
X165667Y154830D01*
X165266Y153510D01*
X165131Y152138D01*
Y143138D01*
X165266Y141766D01*
X165667Y140446D01*
X166317Y139230D01*
X167191Y138164D01*
X168257Y137289D01*
X169473Y136639D01*
X170793Y136239D01*
X172165Y136104D01*
X172179Y136105D01*
X175131Y136137D01*
X175257Y136135D01*
X178131Y136054D01*
Y100166D01*
X175257Y100085D01*
X175131Y100083D01*
X172179Y100115D01*
X172165Y100117D01*
X170793Y99981D01*
X169473Y99581D01*
X168257Y98931D01*
X167191Y98056D01*
X166317Y96991D01*
X165667Y95774D01*
X165266Y94455D01*
X165131Y93083D01*
Y84083D01*
X165266Y82710D01*
X165667Y81391D01*
X166317Y80175D01*
X167191Y79109D01*
X168257Y78234D01*
X169473Y77584D01*
X170793Y77184D01*
X172165Y77049D01*
X172179Y77050D01*
X175131Y77082D01*
X175257Y77080D01*
X178131Y76999D01*
Y41111D01*
X175257Y41030D01*
X175131Y41028D01*
X172179Y41060D01*
X172165Y41061D01*
X170793Y40926D01*
X169473Y40526D01*
X168257Y39876D01*
X167191Y39001D01*
X166317Y37935D01*
X165667Y36719D01*
X165266Y35400D01*
X165131Y34028D01*
Y25028D01*
X165266Y23655D01*
X165667Y22336D01*
X166317Y21120D01*
X167191Y20054D01*
X168257Y19179D01*
X169473Y18529D01*
X170793Y18129D01*
X172165Y17994D01*
X172179Y17995D01*
X175131Y18027D01*
X175257Y18025D01*
X178131Y17944D01*
Y-17944D01*
X175257Y-18025D01*
X175131Y-18027D01*
X172179Y-17995D01*
X172165Y-17994D01*
X170793Y-18129D01*
X169473Y-18529D01*
X168257Y-19179D01*
X167191Y-20054D01*
X166317Y-21120D01*
X165667Y-22336D01*
X165266Y-23655D01*
X165131Y-25028D01*
Y-34028D01*
X165266Y-35400D01*
X165667Y-36719D01*
X166317Y-37935D01*
X167191Y-39001D01*
X168257Y-39876D01*
X169473Y-40526D01*
X170793Y-40926D01*
X172165Y-41061D01*
X172179Y-41060D01*
X175131Y-41028D01*
X175257Y-41030D01*
X178131Y-41111D01*
Y-76999D01*
X175257Y-77080D01*
X175131Y-77082D01*
X172179Y-77050D01*
X172165Y-77049D01*
X170793Y-77184D01*
X169473Y-77584D01*
X168257Y-78234D01*
X167191Y-79109D01*
X166317Y-80175D01*
X165667Y-81391D01*
X165266Y-82710D01*
X165131Y-84083D01*
Y-93083D01*
X165266Y-94455D01*
X165667Y-95774D01*
X166317Y-96991D01*
X167191Y-98056D01*
X168257Y-98931D01*
X169473Y-99581D01*
X170793Y-99981D01*
X172165Y-100117D01*
X172179Y-100115D01*
X175131Y-100083D01*
X175257Y-100085D01*
X178131Y-100166D01*
Y-136054D01*
X175257Y-136135D01*
X175131Y-136137D01*
X172179Y-136105D01*
X172165Y-136104D01*
X170793Y-136239D01*
X169473Y-136639D01*
X168257Y-137289D01*
X167191Y-138164D01*
X166317Y-139230D01*
X165667Y-140446D01*
X165266Y-141766D01*
X165131Y-143138D01*
Y-152138D01*
X165266Y-153510D01*
X165667Y-154830D01*
X166317Y-156046D01*
X167191Y-157112D01*
X168257Y-157986D01*
X169473Y-158636D01*
X170793Y-159037D01*
X172165Y-159172D01*
X172179Y-159170D01*
X175131Y-159138D01*
X175257Y-159140D01*
X178131Y-159221D01*
Y-195109D01*
X175257Y-195190D01*
X175131Y-195193D01*
X172179Y-195160D01*
X172165Y-195159D01*
X170793Y-195294D01*
X169473Y-195694D01*
X168257Y-196344D01*
X167191Y-197219D01*
X166317Y-198285D01*
X165667Y-199501D01*
X165266Y-200821D01*
X165131Y-202193D01*
Y-211193D01*
X165266Y-212565D01*
X165667Y-213885D01*
X166317Y-215101D01*
X167191Y-216167D01*
X168257Y-217041D01*
X169473Y-217691D01*
X170793Y-218092D01*
X172165Y-218227D01*
X172179Y-218226D01*
X175131Y-218193D01*
X175257Y-218196D01*
X178131Y-218276D01*
Y-254165D01*
X175257Y-254245D01*
X175131Y-254248D01*
X172179Y-254216D01*
X172165Y-254214D01*
X170793Y-254349D01*
X169473Y-254750D01*
X168257Y-255400D01*
X167191Y-256274D01*
X166317Y-257340D01*
X165667Y-258556D01*
X165266Y-259876D01*
X165131Y-261248D01*
Y-270248D01*
X165266Y-271620D01*
X165667Y-272940D01*
X166317Y-274156D01*
X167191Y-275222D01*
X168257Y-276097D01*
X169473Y-276747D01*
X170793Y-277147D01*
X172165Y-277282D01*
X172179Y-277281D01*
X175165Y-277248D01*
Y-277248D01*
X189165D01*
Y-254248D01*
X186200D01*
Y-218193D01*
X189165D01*
Y-195193D01*
X186200D01*
Y-159138D01*
X189165D01*
Y-136138D01*
X186200D01*
Y-100083D01*
X189165D01*
Y-77083D01*
X186200D01*
Y-41028D01*
X189165D01*
Y-18028D01*
X186200D01*
Y18028D01*
X189165D01*
Y41028D01*
X186200D01*
Y77083D01*
X189165D01*
Y100083D01*
X186200D01*
Y136138D01*
X189165D01*
Y159138D01*
X186200D01*
Y195193D01*
X189165D01*
Y218193D01*
X186200D01*
Y254248D01*
X189165D01*
Y277248D01*
X175165D01*
X175165Y277248D01*
X172179Y277281D01*
X172165Y277282D01*
D02*
G37*
G36*
X113110D02*
X111738Y277147D01*
X110418Y276747D01*
X109202Y276097D01*
X108136Y275222D01*
X107262Y274156D01*
X106612Y272940D01*
X106211Y271620D01*
X106076Y270248D01*
Y261248D01*
X106211Y259876D01*
X106612Y258556D01*
X107262Y257340D01*
X108136Y256274D01*
X109202Y255400D01*
X110418Y254750D01*
X111738Y254349D01*
X113110Y254214D01*
X113124Y254216D01*
X116076Y254248D01*
X116202Y254245D01*
X119076Y254165D01*
Y218276D01*
X116202Y218196D01*
X116076Y218193D01*
X113124Y218226D01*
X113110Y218227D01*
X111738Y218092D01*
X110418Y217691D01*
X109202Y217041D01*
X108136Y216167D01*
X107262Y215101D01*
X106612Y213885D01*
X106211Y212565D01*
X106076Y211193D01*
Y202193D01*
X106211Y200821D01*
X106612Y199501D01*
X107262Y198285D01*
X108136Y197219D01*
X109202Y196344D01*
X110418Y195694D01*
X111738Y195294D01*
X113110Y195159D01*
X113124Y195160D01*
X116076Y195193D01*
X116202Y195190D01*
X119076Y195109D01*
Y159221D01*
X116202Y159140D01*
X116076Y159138D01*
X113124Y159170D01*
X113110Y159172D01*
X111738Y159037D01*
X110418Y158636D01*
X109202Y157986D01*
X108136Y157112D01*
X107262Y156046D01*
X106612Y154830D01*
X106211Y153510D01*
X106076Y152138D01*
Y143138D01*
X106211Y141766D01*
X106612Y140446D01*
X107262Y139230D01*
X108136Y138164D01*
X109202Y137289D01*
X110418Y136639D01*
X111738Y136239D01*
X113110Y136104D01*
X113124Y136105D01*
X116076Y136137D01*
X116202Y136135D01*
X119076Y136054D01*
Y100166D01*
X116202Y100085D01*
X116076Y100083D01*
X113124Y100115D01*
X113110Y100117D01*
X111738Y99981D01*
X110418Y99581D01*
X109202Y98931D01*
X108136Y98056D01*
X107262Y96991D01*
X106612Y95774D01*
X106211Y94455D01*
X106076Y93083D01*
Y84083D01*
X106211Y82710D01*
X106612Y81391D01*
X107262Y80175D01*
X108136Y79109D01*
X109202Y78234D01*
X110418Y77584D01*
X111738Y77184D01*
X113110Y77049D01*
X113124Y77050D01*
X116076Y77082D01*
X116202Y77080D01*
X119076Y76999D01*
Y41111D01*
X116202Y41030D01*
X116076Y41028D01*
X113124Y41060D01*
X113110Y41061D01*
X111738Y40926D01*
X110418Y40526D01*
X109202Y39876D01*
X108136Y39001D01*
X107262Y37935D01*
X106612Y36719D01*
X106211Y35400D01*
X106076Y34028D01*
Y25028D01*
X106211Y23655D01*
X106612Y22336D01*
X107262Y21120D01*
X108136Y20054D01*
X109202Y19179D01*
X110418Y18529D01*
X111738Y18129D01*
X113110Y17994D01*
X113124Y17995D01*
X116076Y18027D01*
X116202Y18025D01*
X119076Y17944D01*
Y-17944D01*
X116202Y-18025D01*
X116076Y-18027D01*
X113124Y-17995D01*
X113110Y-17994D01*
X111738Y-18129D01*
X110418Y-18529D01*
X109202Y-19179D01*
X108136Y-20054D01*
X107262Y-21120D01*
X106612Y-22336D01*
X106211Y-23655D01*
X106076Y-25028D01*
Y-34028D01*
X106211Y-35400D01*
X106612Y-36719D01*
X107262Y-37935D01*
X108136Y-39001D01*
X109202Y-39876D01*
X110418Y-40526D01*
X111738Y-40926D01*
X113110Y-41061D01*
X113124Y-41060D01*
X116076Y-41028D01*
X116202Y-41030D01*
X119076Y-41111D01*
Y-76999D01*
X116202Y-77080D01*
X116076Y-77082D01*
X113124Y-77050D01*
X113110Y-77049D01*
X111738Y-77184D01*
X110418Y-77584D01*
X109202Y-78234D01*
X108136Y-79109D01*
X107262Y-80175D01*
X106612Y-81391D01*
X106211Y-82710D01*
X106076Y-84083D01*
Y-93083D01*
X106211Y-94455D01*
X106612Y-95774D01*
X107262Y-96991D01*
X108136Y-98056D01*
X109202Y-98931D01*
X110418Y-99581D01*
X111738Y-99981D01*
X113110Y-100117D01*
X113124Y-100115D01*
X116076Y-100083D01*
X116202Y-100085D01*
X119076Y-100166D01*
Y-136054D01*
X116202Y-136135D01*
X116076Y-136137D01*
X113124Y-136105D01*
X113110Y-136104D01*
X111738Y-136239D01*
X110418Y-136639D01*
X109202Y-137289D01*
X108136Y-138164D01*
X107262Y-139230D01*
X106612Y-140446D01*
X106211Y-141766D01*
X106076Y-143138D01*
Y-152138D01*
X106211Y-153510D01*
X106612Y-154830D01*
X107262Y-156046D01*
X108136Y-157112D01*
X109202Y-157986D01*
X110418Y-158636D01*
X111738Y-159037D01*
X113110Y-159172D01*
X113124Y-159170D01*
X116076Y-159138D01*
X116202Y-159140D01*
X119076Y-159221D01*
Y-195109D01*
X116202Y-195190D01*
X116076Y-195193D01*
X113124Y-195160D01*
X113110Y-195159D01*
X111738Y-195294D01*
X110418Y-195694D01*
X109202Y-196344D01*
X108136Y-197219D01*
X107262Y-198285D01*
X106612Y-199501D01*
X106211Y-200821D01*
X106076Y-202193D01*
Y-211193D01*
X106211Y-212565D01*
X106612Y-213885D01*
X107262Y-215101D01*
X108136Y-216167D01*
X109202Y-217041D01*
X110418Y-217691D01*
X111738Y-218092D01*
X113110Y-218227D01*
X113124Y-218226D01*
X116076Y-218193D01*
X116202Y-218196D01*
X119076Y-218276D01*
Y-254165D01*
X116202Y-254245D01*
X116076Y-254248D01*
X113124Y-254216D01*
X113110Y-254214D01*
X111738Y-254349D01*
X110418Y-254750D01*
X109202Y-255400D01*
X108136Y-256274D01*
X107262Y-257340D01*
X106612Y-258556D01*
X106211Y-259876D01*
X106076Y-261248D01*
Y-270248D01*
X106211Y-271620D01*
X106612Y-272940D01*
X107262Y-274156D01*
X108136Y-275222D01*
X109202Y-276097D01*
X110418Y-276747D01*
X111738Y-277147D01*
X113110Y-277282D01*
X113124Y-277281D01*
X116110Y-277248D01*
Y-277248D01*
X130110D01*
Y-254248D01*
X127145D01*
Y-218193D01*
X130110D01*
Y-195193D01*
X127145D01*
Y-159138D01*
X130110D01*
Y-136138D01*
X127145D01*
Y-100083D01*
X130110D01*
Y-77083D01*
X127145D01*
Y-41028D01*
X130110D01*
Y-18028D01*
X127145D01*
Y18028D01*
X130110D01*
Y41028D01*
X127145D01*
Y77083D01*
X130110D01*
Y100083D01*
X127145D01*
Y136138D01*
X130110D01*
Y159138D01*
X127145D01*
Y195193D01*
X130110D01*
Y218193D01*
X127145D01*
Y254248D01*
X130110D01*
Y277248D01*
X116110D01*
X116110Y277248D01*
X113124Y277281D01*
X113110Y277282D01*
D02*
G37*
G36*
X54055D02*
X52682Y277147D01*
X51363Y276747D01*
X50147Y276097D01*
X49081Y275222D01*
X48206Y274156D01*
X47556Y272940D01*
X47156Y271620D01*
X47021Y270248D01*
Y261248D01*
X47156Y259876D01*
X47556Y258556D01*
X48206Y257340D01*
X49081Y256274D01*
X50147Y255400D01*
X51363Y254750D01*
X52682Y254349D01*
X54055Y254214D01*
X54068Y254216D01*
X57020Y254248D01*
X57147Y254245D01*
X60020Y254165D01*
Y218276D01*
X57147Y218196D01*
X57020Y218193D01*
X54068Y218226D01*
X54055Y218227D01*
X52682Y218092D01*
X51363Y217691D01*
X50147Y217041D01*
X49081Y216167D01*
X48206Y215101D01*
X47556Y213885D01*
X47156Y212565D01*
X47021Y211193D01*
Y202193D01*
X47156Y200821D01*
X47556Y199501D01*
X48206Y198285D01*
X49081Y197219D01*
X50147Y196344D01*
X51363Y195694D01*
X52682Y195294D01*
X54055Y195159D01*
X54068Y195160D01*
X57020Y195193D01*
X57147Y195190D01*
X60020Y195109D01*
Y159221D01*
X57147Y159140D01*
X57020Y159138D01*
X54068Y159170D01*
X54055Y159172D01*
X52682Y159037D01*
X51363Y158636D01*
X50147Y157986D01*
X49081Y157112D01*
X48206Y156046D01*
X47556Y154830D01*
X47156Y153510D01*
X47021Y152138D01*
Y143138D01*
X47156Y141766D01*
X47556Y140446D01*
X48206Y139230D01*
X49081Y138164D01*
X50147Y137289D01*
X51363Y136639D01*
X52682Y136239D01*
X54055Y136104D01*
X54068Y136105D01*
X57020Y136137D01*
X57147Y136135D01*
X60020Y136054D01*
Y100166D01*
X57147Y100085D01*
X57020Y100083D01*
X54068Y100115D01*
X54055Y100117D01*
X52682Y99981D01*
X51363Y99581D01*
X50147Y98931D01*
X49081Y98056D01*
X48206Y96991D01*
X47556Y95774D01*
X47156Y94455D01*
X47021Y93083D01*
Y84083D01*
X47156Y82710D01*
X47556Y81391D01*
X48206Y80175D01*
X49081Y79109D01*
X50147Y78234D01*
X51363Y77584D01*
X52682Y77184D01*
X54055Y77049D01*
X54068Y77050D01*
X57020Y77082D01*
X57147Y77080D01*
X60020Y76999D01*
Y41111D01*
X57147Y41030D01*
X57020Y41028D01*
X54068Y41060D01*
X54055Y41061D01*
X52682Y40926D01*
X51363Y40526D01*
X50147Y39876D01*
X49081Y39001D01*
X48206Y37935D01*
X47556Y36719D01*
X47156Y35400D01*
X47021Y34028D01*
Y25028D01*
X47156Y23655D01*
X47556Y22336D01*
X48206Y21120D01*
X49081Y20054D01*
X50147Y19179D01*
X51363Y18529D01*
X52682Y18129D01*
X54055Y17994D01*
X54068Y17995D01*
X57020Y18027D01*
X57147Y18025D01*
X60020Y17944D01*
Y-17944D01*
X57147Y-18025D01*
X57020Y-18027D01*
X54068Y-17995D01*
X54055Y-17994D01*
X52682Y-18129D01*
X51363Y-18529D01*
X50147Y-19179D01*
X49081Y-20054D01*
X48206Y-21120D01*
X47556Y-22336D01*
X47156Y-23655D01*
X47021Y-25028D01*
Y-34028D01*
X47156Y-35400D01*
X47556Y-36719D01*
X48206Y-37935D01*
X49081Y-39001D01*
X50147Y-39876D01*
X51363Y-40526D01*
X52682Y-40926D01*
X54055Y-41061D01*
X54068Y-41060D01*
X57020Y-41028D01*
X57147Y-41030D01*
X60020Y-41111D01*
Y-76999D01*
X57147Y-77080D01*
X57020Y-77082D01*
X54068Y-77050D01*
X54055Y-77049D01*
X52682Y-77184D01*
X51363Y-77584D01*
X50147Y-78234D01*
X49081Y-79109D01*
X48206Y-80175D01*
X47556Y-81391D01*
X47156Y-82710D01*
X47021Y-84083D01*
Y-93083D01*
X47156Y-94455D01*
X47556Y-95774D01*
X48206Y-96991D01*
X49081Y-98056D01*
X50147Y-98931D01*
X51363Y-99581D01*
X52682Y-99981D01*
X54055Y-100117D01*
X54068Y-100115D01*
X57020Y-100083D01*
X57147Y-100085D01*
X60020Y-100166D01*
Y-136054D01*
X57147Y-136135D01*
X57020Y-136137D01*
X54068Y-136105D01*
X54055Y-136104D01*
X52682Y-136239D01*
X51363Y-136639D01*
X50147Y-137289D01*
X49081Y-138164D01*
X48206Y-139230D01*
X47556Y-140446D01*
X47156Y-141766D01*
X47021Y-143138D01*
Y-152138D01*
X47156Y-153510D01*
X47556Y-154830D01*
X48206Y-156046D01*
X49081Y-157112D01*
X50147Y-157986D01*
X51363Y-158636D01*
X52682Y-159037D01*
X54055Y-159172D01*
X54068Y-159170D01*
X57020Y-159138D01*
X57147Y-159140D01*
X60020Y-159221D01*
Y-195109D01*
X57147Y-195190D01*
X57020Y-195193D01*
X54068Y-195160D01*
X54055Y-195159D01*
X52682Y-195294D01*
X51363Y-195694D01*
X50147Y-196344D01*
X49081Y-197219D01*
X48206Y-198285D01*
X47556Y-199501D01*
X47156Y-200821D01*
X47021Y-202193D01*
Y-211193D01*
X47156Y-212565D01*
X47556Y-213885D01*
X48206Y-215101D01*
X49081Y-216167D01*
X50147Y-217041D01*
X51363Y-217691D01*
X52682Y-218092D01*
X54055Y-218227D01*
X54068Y-218226D01*
X57020Y-218193D01*
X57147Y-218196D01*
X60020Y-218276D01*
Y-254165D01*
X57147Y-254245D01*
X57020Y-254248D01*
X54068Y-254216D01*
X54055Y-254214D01*
X52682Y-254349D01*
X51363Y-254750D01*
X50147Y-255400D01*
X49081Y-256274D01*
X48206Y-257340D01*
X47556Y-258556D01*
X47156Y-259876D01*
X47021Y-261248D01*
Y-270248D01*
X47156Y-271620D01*
X47556Y-272940D01*
X48206Y-274156D01*
X49081Y-275222D01*
X50147Y-276097D01*
X51363Y-276747D01*
X52682Y-277147D01*
X54055Y-277282D01*
X54068Y-277281D01*
X57055Y-277248D01*
Y-277248D01*
X71055D01*
Y-254248D01*
X68089D01*
Y-218193D01*
X71055D01*
Y-195193D01*
X68089D01*
Y-159138D01*
X71055D01*
Y-136138D01*
X68089D01*
Y-100083D01*
X71055D01*
Y-77083D01*
X68089D01*
Y-41028D01*
X71055D01*
Y-18028D01*
X68089D01*
Y18028D01*
X71055D01*
Y41028D01*
X68089D01*
Y77083D01*
X71055D01*
Y100083D01*
X68089D01*
Y136138D01*
X71055D01*
Y159138D01*
X68089D01*
Y195193D01*
X71055D01*
Y218193D01*
X68089D01*
Y254248D01*
X71055D01*
Y277248D01*
X57055D01*
X57055Y277248D01*
X54068Y277281D01*
X54055Y277282D01*
D02*
G37*
G36*
X-5000D02*
X-6373Y277147D01*
X-7692Y276747D01*
X-8908Y276097D01*
X-9974Y275222D01*
X-10849Y274156D01*
X-11499Y272940D01*
X-11899Y271620D01*
X-12034Y270248D01*
Y261248D01*
X-11899Y259876D01*
X-11499Y258556D01*
X-10849Y257340D01*
X-9974Y256274D01*
X-8908Y255400D01*
X-7692Y254750D01*
X-6373Y254349D01*
X-5000Y254214D01*
X-4987Y254216D01*
X-2035Y254248D01*
X-1909Y254245D01*
X965Y254165D01*
Y218276D01*
X-1908Y218196D01*
X-2035Y218193D01*
X-4987Y218226D01*
X-5000Y218227D01*
X-6373Y218092D01*
X-7692Y217691D01*
X-8908Y217041D01*
X-9974Y216167D01*
X-10849Y215101D01*
X-11499Y213885D01*
X-11899Y212565D01*
X-12034Y211193D01*
Y202193D01*
X-11899Y200821D01*
X-11499Y199501D01*
X-10849Y198285D01*
X-9974Y197219D01*
X-8908Y196344D01*
X-7692Y195694D01*
X-6373Y195294D01*
X-5000Y195159D01*
X-4987Y195160D01*
X-2035Y195193D01*
X-1909Y195190D01*
X965Y195109D01*
Y159221D01*
X-1908Y159140D01*
X-2035Y159138D01*
X-4987Y159170D01*
X-5000Y159172D01*
X-6373Y159037D01*
X-7692Y158636D01*
X-8908Y157986D01*
X-9974Y157112D01*
X-10849Y156046D01*
X-11499Y154830D01*
X-11899Y153510D01*
X-12034Y152138D01*
Y143138D01*
X-11899Y141766D01*
X-11499Y140446D01*
X-10849Y139230D01*
X-9974Y138164D01*
X-8908Y137289D01*
X-7692Y136639D01*
X-6373Y136239D01*
X-5000Y136104D01*
X-4987Y136105D01*
X-2035Y136137D01*
X-1909Y136135D01*
X965Y136054D01*
Y100166D01*
X-1908Y100085D01*
X-2035Y100083D01*
X-4987Y100115D01*
X-5000Y100117D01*
X-6373Y99981D01*
X-7692Y99581D01*
X-8908Y98931D01*
X-9974Y98056D01*
X-10849Y96991D01*
X-11499Y95774D01*
X-11899Y94455D01*
X-12034Y93083D01*
Y84083D01*
X-11899Y82710D01*
X-11499Y81391D01*
X-10849Y80175D01*
X-9974Y79109D01*
X-8908Y78234D01*
X-7692Y77584D01*
X-6373Y77184D01*
X-5000Y77049D01*
X-4987Y77050D01*
X-2035Y77082D01*
X-1909Y77080D01*
X965Y76999D01*
Y41111D01*
X-1908Y41030D01*
X-2035Y41028D01*
X-4987Y41060D01*
X-5000Y41061D01*
X-6373Y40926D01*
X-7692Y40526D01*
X-8908Y39876D01*
X-9974Y39001D01*
X-10849Y37935D01*
X-11499Y36719D01*
X-11899Y35400D01*
X-12034Y34028D01*
Y25028D01*
X-11899Y23655D01*
X-11499Y22336D01*
X-10849Y21120D01*
X-9974Y20054D01*
X-8908Y19179D01*
X-7692Y18529D01*
X-6373Y18129D01*
X-5000Y17994D01*
X-4987Y17995D01*
X-2035Y18027D01*
X-1909Y18025D01*
X965Y17944D01*
Y-17944D01*
X-1908Y-18025D01*
X-2035Y-18027D01*
X-4987Y-17995D01*
X-5000Y-17994D01*
X-6373Y-18129D01*
X-7692Y-18529D01*
X-8908Y-19179D01*
X-9974Y-20054D01*
X-10849Y-21120D01*
X-11499Y-22336D01*
X-11899Y-23655D01*
X-12034Y-25028D01*
Y-34028D01*
X-11899Y-35400D01*
X-11499Y-36719D01*
X-10849Y-37935D01*
X-9974Y-39001D01*
X-8908Y-39876D01*
X-7692Y-40526D01*
X-6373Y-40926D01*
X-5000Y-41061D01*
X-4987Y-41060D01*
X-2035Y-41028D01*
X-1909Y-41030D01*
X965Y-41111D01*
Y-76999D01*
X-1908Y-77080D01*
X-2035Y-77082D01*
X-4987Y-77050D01*
X-5000Y-77049D01*
X-6373Y-77184D01*
X-7692Y-77584D01*
X-8908Y-78234D01*
X-9974Y-79109D01*
X-10849Y-80175D01*
X-11499Y-81391D01*
X-11899Y-82710D01*
X-12034Y-84083D01*
Y-93083D01*
X-11899Y-94455D01*
X-11499Y-95774D01*
X-10849Y-96991D01*
X-9974Y-98056D01*
X-8908Y-98931D01*
X-7692Y-99581D01*
X-6373Y-99981D01*
X-5000Y-100117D01*
X-4987Y-100115D01*
X-2035Y-100083D01*
X-1909Y-100085D01*
X965Y-100166D01*
Y-136054D01*
X-1908Y-136135D01*
X-2035Y-136137D01*
X-4987Y-136105D01*
X-5000Y-136104D01*
X-6373Y-136239D01*
X-7692Y-136639D01*
X-8908Y-137289D01*
X-9974Y-138164D01*
X-10849Y-139230D01*
X-11499Y-140446D01*
X-11899Y-141766D01*
X-12034Y-143138D01*
Y-152138D01*
X-11899Y-153510D01*
X-11499Y-154830D01*
X-10849Y-156046D01*
X-9974Y-157112D01*
X-8908Y-157986D01*
X-7692Y-158636D01*
X-6373Y-159037D01*
X-5000Y-159172D01*
X-4987Y-159170D01*
X-2035Y-159138D01*
X-1909Y-159140D01*
X965Y-159221D01*
Y-195109D01*
X-1908Y-195190D01*
X-2035Y-195193D01*
X-4987Y-195160D01*
X-5000Y-195159D01*
X-6373Y-195294D01*
X-7692Y-195694D01*
X-8908Y-196344D01*
X-9974Y-197219D01*
X-10849Y-198285D01*
X-11499Y-199501D01*
X-11899Y-200821D01*
X-12034Y-202193D01*
Y-211193D01*
X-11899Y-212565D01*
X-11499Y-213885D01*
X-10849Y-215101D01*
X-9974Y-216167D01*
X-8908Y-217041D01*
X-7692Y-217691D01*
X-6373Y-218092D01*
X-5000Y-218227D01*
X-4987Y-218226D01*
X-2035Y-218193D01*
X-1909Y-218196D01*
X965Y-218276D01*
Y-254165D01*
X-1908Y-254245D01*
X-2035Y-254248D01*
X-4987Y-254216D01*
X-5000Y-254214D01*
X-6373Y-254349D01*
X-7692Y-254750D01*
X-8908Y-255400D01*
X-9974Y-256274D01*
X-10849Y-257340D01*
X-11499Y-258556D01*
X-11899Y-259876D01*
X-12034Y-261248D01*
Y-270248D01*
X-11899Y-271620D01*
X-11499Y-272940D01*
X-10849Y-274156D01*
X-9974Y-275222D01*
X-8908Y-276097D01*
X-7692Y-276747D01*
X-6373Y-277147D01*
X-5000Y-277282D01*
X-4987Y-277281D01*
X-2000Y-277248D01*
Y-277248D01*
X12000D01*
Y-254248D01*
X9034D01*
Y-218193D01*
X12000D01*
Y-195193D01*
X9034D01*
Y-159138D01*
X12000D01*
Y-136138D01*
X9034D01*
Y-100083D01*
X12000D01*
Y-77083D01*
X9034D01*
Y-41028D01*
X12000D01*
Y-18028D01*
X9034D01*
Y18028D01*
X12000D01*
Y41028D01*
X9034D01*
Y77083D01*
X12000D01*
Y100083D01*
X9034D01*
Y136138D01*
X12000D01*
Y159138D01*
X9034D01*
Y195193D01*
X12000D01*
Y218193D01*
X9034D01*
Y254248D01*
X12000D01*
Y277248D01*
X-2000D01*
X-2000Y277248D01*
X-4987Y277281D01*
X-5000Y277282D01*
D02*
G37*
G36*
X-64056D02*
X-65428Y277147D01*
X-66747Y276747D01*
X-67963Y276097D01*
X-69029Y275222D01*
X-69904Y274156D01*
X-70554Y272940D01*
X-70954Y271620D01*
X-71090Y270248D01*
Y261248D01*
X-70954Y259876D01*
X-70554Y258556D01*
X-69904Y257340D01*
X-69029Y256274D01*
X-67963Y255400D01*
X-66747Y254750D01*
X-65428Y254349D01*
X-64056Y254214D01*
X-64042Y254216D01*
X-61090Y254248D01*
X-60964Y254245D01*
X-58090Y254165D01*
Y218276D01*
X-60964Y218196D01*
X-61090Y218193D01*
X-64042Y218226D01*
X-64056Y218227D01*
X-65428Y218092D01*
X-66747Y217691D01*
X-67963Y217041D01*
X-69029Y216167D01*
X-69904Y215101D01*
X-70554Y213885D01*
X-70954Y212565D01*
X-71090Y211193D01*
Y202193D01*
X-70954Y200821D01*
X-70554Y199501D01*
X-69904Y198285D01*
X-69029Y197219D01*
X-67963Y196344D01*
X-66747Y195694D01*
X-65428Y195294D01*
X-64056Y195159D01*
X-64042Y195160D01*
X-61090Y195193D01*
X-60964Y195190D01*
X-58090Y195109D01*
Y159221D01*
X-60964Y159140D01*
X-61090Y159138D01*
X-64042Y159170D01*
X-64056Y159172D01*
X-65428Y159037D01*
X-66747Y158636D01*
X-67963Y157986D01*
X-69029Y157112D01*
X-69904Y156046D01*
X-70554Y154830D01*
X-70954Y153510D01*
X-71090Y152138D01*
Y143138D01*
X-70954Y141766D01*
X-70554Y140446D01*
X-69904Y139230D01*
X-69029Y138164D01*
X-67963Y137289D01*
X-66747Y136639D01*
X-65428Y136239D01*
X-64056Y136104D01*
X-64042Y136105D01*
X-61090Y136137D01*
X-60964Y136135D01*
X-58090Y136054D01*
Y100166D01*
X-60964Y100085D01*
X-61090Y100083D01*
X-64042Y100115D01*
X-64056Y100117D01*
X-65428Y99981D01*
X-66747Y99581D01*
X-67963Y98931D01*
X-69029Y98056D01*
X-69904Y96991D01*
X-70554Y95774D01*
X-70954Y94455D01*
X-71090Y93083D01*
Y84083D01*
X-70954Y82710D01*
X-70554Y81391D01*
X-69904Y80175D01*
X-69029Y79109D01*
X-67963Y78234D01*
X-66747Y77584D01*
X-65428Y77184D01*
X-64056Y77049D01*
X-64042Y77050D01*
X-61090Y77082D01*
X-60964Y77080D01*
X-58090Y76999D01*
Y41111D01*
X-60964Y41030D01*
X-61090Y41028D01*
X-64042Y41060D01*
X-64056Y41061D01*
X-65428Y40926D01*
X-66747Y40526D01*
X-67963Y39876D01*
X-69029Y39001D01*
X-69904Y37935D01*
X-70554Y36719D01*
X-70954Y35400D01*
X-71090Y34028D01*
Y25028D01*
X-70954Y23655D01*
X-70554Y22336D01*
X-69904Y21120D01*
X-69029Y20054D01*
X-67963Y19179D01*
X-66747Y18529D01*
X-65428Y18129D01*
X-64056Y17994D01*
X-64042Y17995D01*
X-61090Y18027D01*
X-60964Y18025D01*
X-58090Y17944D01*
Y-17944D01*
X-60964Y-18025D01*
X-61090Y-18027D01*
X-64042Y-17995D01*
X-64056Y-17994D01*
X-65428Y-18129D01*
X-66747Y-18529D01*
X-67963Y-19179D01*
X-69029Y-20054D01*
X-69904Y-21120D01*
X-70554Y-22336D01*
X-70954Y-23655D01*
X-71090Y-25028D01*
Y-34028D01*
X-70954Y-35400D01*
X-70554Y-36719D01*
X-69904Y-37935D01*
X-69029Y-39001D01*
X-67963Y-39876D01*
X-66747Y-40526D01*
X-65428Y-40926D01*
X-64056Y-41061D01*
X-64042Y-41060D01*
X-61090Y-41028D01*
X-60964Y-41030D01*
X-58090Y-41111D01*
Y-76999D01*
X-60964Y-77080D01*
X-61090Y-77082D01*
X-64042Y-77050D01*
X-64056Y-77049D01*
X-65428Y-77184D01*
X-66747Y-77584D01*
X-67963Y-78234D01*
X-69029Y-79109D01*
X-69904Y-80175D01*
X-70554Y-81391D01*
X-70954Y-82710D01*
X-71090Y-84083D01*
Y-93083D01*
X-70954Y-94455D01*
X-70554Y-95774D01*
X-69904Y-96991D01*
X-69029Y-98056D01*
X-67963Y-98931D01*
X-66747Y-99581D01*
X-65428Y-99981D01*
X-64056Y-100117D01*
X-64042Y-100115D01*
X-61090Y-100083D01*
X-60964Y-100085D01*
X-58090Y-100166D01*
Y-136054D01*
X-60964Y-136135D01*
X-61090Y-136137D01*
X-64042Y-136105D01*
X-64056Y-136104D01*
X-65428Y-136239D01*
X-66747Y-136639D01*
X-67963Y-137289D01*
X-69029Y-138164D01*
X-69904Y-139230D01*
X-70554Y-140446D01*
X-70954Y-141766D01*
X-71090Y-143138D01*
Y-152138D01*
X-70954Y-153510D01*
X-70554Y-154830D01*
X-69904Y-156046D01*
X-69029Y-157112D01*
X-67963Y-157986D01*
X-66747Y-158636D01*
X-65428Y-159037D01*
X-64056Y-159172D01*
X-64042Y-159170D01*
X-61090Y-159138D01*
X-60964Y-159140D01*
X-58090Y-159221D01*
Y-195109D01*
X-60964Y-195190D01*
X-61090Y-195193D01*
X-64042Y-195160D01*
X-64056Y-195159D01*
X-65428Y-195294D01*
X-66747Y-195694D01*
X-67963Y-196344D01*
X-69029Y-197219D01*
X-69904Y-198285D01*
X-70554Y-199501D01*
X-70954Y-200821D01*
X-71090Y-202193D01*
Y-211193D01*
X-70954Y-212565D01*
X-70554Y-213885D01*
X-69904Y-215101D01*
X-69029Y-216167D01*
X-67963Y-217041D01*
X-66747Y-217691D01*
X-65428Y-218092D01*
X-64056Y-218227D01*
X-64042Y-218226D01*
X-61090Y-218193D01*
X-60964Y-218196D01*
X-58090Y-218276D01*
Y-254165D01*
X-60964Y-254245D01*
X-61090Y-254248D01*
X-64042Y-254216D01*
X-64056Y-254214D01*
X-65428Y-254349D01*
X-66747Y-254750D01*
X-67963Y-255400D01*
X-69029Y-256274D01*
X-69904Y-257340D01*
X-70554Y-258556D01*
X-70954Y-259876D01*
X-71090Y-261248D01*
Y-270248D01*
X-70954Y-271620D01*
X-70554Y-272940D01*
X-69904Y-274156D01*
X-69029Y-275222D01*
X-67963Y-276097D01*
X-66747Y-276747D01*
X-65428Y-277147D01*
X-64056Y-277282D01*
X-64042Y-277281D01*
X-61056Y-277248D01*
Y-277248D01*
X-47056D01*
Y-254248D01*
X-50021D01*
Y-218193D01*
X-47056D01*
Y-195193D01*
X-50021D01*
Y-159138D01*
X-47056D01*
Y-136138D01*
X-50021D01*
Y-100083D01*
X-47056D01*
Y-77083D01*
X-50021D01*
Y-41028D01*
X-47056D01*
Y-18028D01*
X-50021D01*
Y18028D01*
X-47056D01*
Y41028D01*
X-50021D01*
Y77083D01*
X-47056D01*
Y100083D01*
X-50021D01*
Y136138D01*
X-47056D01*
Y159138D01*
X-50021D01*
Y195193D01*
X-47056D01*
Y218193D01*
X-50021D01*
Y254248D01*
X-47056D01*
Y277248D01*
X-61056D01*
X-61056Y277248D01*
X-64042Y277281D01*
X-64056Y277282D01*
D02*
G37*
G36*
X-123111D02*
X-124483Y277147D01*
X-125802Y276747D01*
X-127018Y276097D01*
X-128084Y275222D01*
X-128959Y274156D01*
X-129609Y272940D01*
X-130009Y271620D01*
X-130145Y270248D01*
Y261248D01*
X-130009Y259876D01*
X-129609Y258556D01*
X-128959Y257340D01*
X-128084Y256274D01*
X-127018Y255400D01*
X-125802Y254750D01*
X-124483Y254349D01*
X-123111Y254214D01*
X-123097Y254216D01*
X-120145Y254248D01*
X-120019Y254245D01*
X-117145Y254165D01*
Y218276D01*
X-120019Y218196D01*
X-120145Y218193D01*
X-123097Y218226D01*
X-123111Y218227D01*
X-124483Y218092D01*
X-125802Y217691D01*
X-127018Y217041D01*
X-128084Y216167D01*
X-128959Y215101D01*
X-129609Y213885D01*
X-130009Y212565D01*
X-130145Y211193D01*
Y202193D01*
X-130009Y200821D01*
X-129609Y199501D01*
X-128959Y198285D01*
X-128084Y197219D01*
X-127018Y196344D01*
X-125802Y195694D01*
X-124483Y195294D01*
X-123111Y195159D01*
X-123097Y195160D01*
X-120145Y195193D01*
X-120019Y195190D01*
X-117145Y195109D01*
Y159221D01*
X-120019Y159140D01*
X-120145Y159138D01*
X-123097Y159170D01*
X-123111Y159172D01*
X-124483Y159037D01*
X-125802Y158636D01*
X-127018Y157986D01*
X-128084Y157112D01*
X-128959Y156046D01*
X-129609Y154830D01*
X-130009Y153510D01*
X-130145Y152138D01*
Y143138D01*
X-130009Y141766D01*
X-129609Y140446D01*
X-128959Y139230D01*
X-128084Y138164D01*
X-127018Y137289D01*
X-125802Y136639D01*
X-124483Y136239D01*
X-123111Y136104D01*
X-123097Y136105D01*
X-120145Y136137D01*
X-120019Y136135D01*
X-117145Y136054D01*
Y100166D01*
X-120019Y100085D01*
X-120145Y100083D01*
X-123097Y100115D01*
X-123111Y100117D01*
X-124483Y99981D01*
X-125802Y99581D01*
X-127018Y98931D01*
X-128084Y98056D01*
X-128959Y96991D01*
X-129609Y95774D01*
X-130009Y94455D01*
X-130145Y93083D01*
Y84083D01*
X-130009Y82710D01*
X-129609Y81391D01*
X-128959Y80175D01*
X-128084Y79109D01*
X-127018Y78234D01*
X-125802Y77584D01*
X-124483Y77184D01*
X-123111Y77049D01*
X-123097Y77050D01*
X-120145Y77082D01*
X-120019Y77080D01*
X-117145Y76999D01*
Y41111D01*
X-120019Y41030D01*
X-120145Y41028D01*
X-123097Y41060D01*
X-123111Y41061D01*
X-124483Y40926D01*
X-125802Y40526D01*
X-127018Y39876D01*
X-128084Y39001D01*
X-128959Y37935D01*
X-129609Y36719D01*
X-130009Y35400D01*
X-130145Y34028D01*
Y25028D01*
X-130009Y23655D01*
X-129609Y22336D01*
X-128959Y21120D01*
X-128084Y20054D01*
X-127018Y19179D01*
X-125802Y18529D01*
X-124483Y18129D01*
X-123111Y17994D01*
X-123097Y17995D01*
X-120145Y18027D01*
X-120019Y18025D01*
X-117145Y17944D01*
Y-17944D01*
X-120019Y-18025D01*
X-120145Y-18027D01*
X-123097Y-17995D01*
X-123111Y-17994D01*
X-124483Y-18129D01*
X-125802Y-18529D01*
X-127018Y-19179D01*
X-128084Y-20054D01*
X-128959Y-21120D01*
X-129609Y-22336D01*
X-130009Y-23655D01*
X-130145Y-25028D01*
Y-34028D01*
X-130009Y-35400D01*
X-129609Y-36719D01*
X-128959Y-37935D01*
X-128084Y-39001D01*
X-127018Y-39876D01*
X-125802Y-40526D01*
X-124483Y-40926D01*
X-123111Y-41061D01*
X-123097Y-41060D01*
X-120145Y-41028D01*
X-120019Y-41030D01*
X-117145Y-41111D01*
Y-76999D01*
X-120019Y-77080D01*
X-120145Y-77082D01*
X-123097Y-77050D01*
X-123111Y-77049D01*
X-124483Y-77184D01*
X-125802Y-77584D01*
X-127018Y-78234D01*
X-128084Y-79109D01*
X-128959Y-80175D01*
X-129609Y-81391D01*
X-130009Y-82710D01*
X-130145Y-84083D01*
Y-93083D01*
X-130009Y-94455D01*
X-129609Y-95774D01*
X-128959Y-96991D01*
X-128084Y-98056D01*
X-127018Y-98931D01*
X-125802Y-99581D01*
X-124483Y-99981D01*
X-123111Y-100117D01*
X-123097Y-100115D01*
X-120145Y-100083D01*
X-120019Y-100085D01*
X-117145Y-100166D01*
Y-136054D01*
X-120019Y-136135D01*
X-120145Y-136137D01*
X-123097Y-136105D01*
X-123111Y-136104D01*
X-124483Y-136239D01*
X-125802Y-136639D01*
X-127018Y-137289D01*
X-128084Y-138164D01*
X-128959Y-139230D01*
X-129609Y-140446D01*
X-130009Y-141766D01*
X-130145Y-143138D01*
Y-152138D01*
X-130009Y-153510D01*
X-129609Y-154830D01*
X-128959Y-156046D01*
X-128084Y-157112D01*
X-127018Y-157986D01*
X-125802Y-158636D01*
X-124483Y-159037D01*
X-123111Y-159172D01*
X-123097Y-159170D01*
X-120145Y-159138D01*
X-120019Y-159140D01*
X-117145Y-159221D01*
Y-195109D01*
X-120019Y-195190D01*
X-120145Y-195193D01*
X-123097Y-195160D01*
X-123111Y-195159D01*
X-124483Y-195294D01*
X-125802Y-195694D01*
X-127018Y-196344D01*
X-128084Y-197219D01*
X-128959Y-198285D01*
X-129609Y-199501D01*
X-130009Y-200821D01*
X-130145Y-202193D01*
Y-211193D01*
X-130009Y-212565D01*
X-129609Y-213885D01*
X-128959Y-215101D01*
X-128084Y-216167D01*
X-127018Y-217041D01*
X-125802Y-217691D01*
X-124483Y-218092D01*
X-123111Y-218227D01*
X-123097Y-218226D01*
X-120145Y-218193D01*
X-120019Y-218196D01*
X-117145Y-218276D01*
Y-254165D01*
X-120019Y-254245D01*
X-120145Y-254248D01*
X-123097Y-254216D01*
X-123111Y-254214D01*
X-124483Y-254349D01*
X-125802Y-254750D01*
X-127018Y-255400D01*
X-128084Y-256274D01*
X-128959Y-257340D01*
X-129609Y-258556D01*
X-130009Y-259876D01*
X-130145Y-261248D01*
Y-270248D01*
X-130009Y-271620D01*
X-129609Y-272940D01*
X-128959Y-274156D01*
X-128084Y-275222D01*
X-127018Y-276097D01*
X-125802Y-276747D01*
X-124483Y-277147D01*
X-123111Y-277282D01*
X-123097Y-277281D01*
X-120111Y-277248D01*
Y-277248D01*
X-106111D01*
Y-254248D01*
X-109076D01*
Y-218193D01*
X-106111D01*
Y-195193D01*
X-109076D01*
Y-159138D01*
X-106111D01*
Y-136138D01*
X-109076D01*
Y-100083D01*
X-106111D01*
Y-77083D01*
X-109076D01*
Y-41028D01*
X-106111D01*
Y-18028D01*
X-109076D01*
Y18028D01*
X-106111D01*
Y41028D01*
X-109076D01*
Y77083D01*
X-106111D01*
Y100083D01*
X-109076D01*
Y136138D01*
X-106111D01*
Y159138D01*
X-109076D01*
Y195193D01*
X-106111D01*
Y218193D01*
X-109076D01*
Y254248D01*
X-106111D01*
Y277248D01*
X-120111D01*
X-120111Y277248D01*
X-123097Y277281D01*
X-123111Y277282D01*
D02*
G37*
G36*
X-182166D02*
X-183538Y277147D01*
X-184858Y276747D01*
X-186074Y276097D01*
X-187140Y275222D01*
X-188014Y274156D01*
X-188664Y272940D01*
X-189065Y271620D01*
X-189200Y270248D01*
Y261248D01*
X-189065Y259876D01*
X-188664Y258556D01*
X-188014Y257340D01*
X-187140Y256274D01*
X-186074Y255400D01*
X-184858Y254750D01*
X-183538Y254349D01*
X-182166Y254214D01*
X-182152Y254216D01*
X-179200Y254248D01*
X-179074Y254245D01*
X-176200Y254165D01*
Y218276D01*
X-179074Y218196D01*
X-179200Y218193D01*
X-182152Y218226D01*
X-182166Y218227D01*
X-183538Y218092D01*
X-184858Y217691D01*
X-186074Y217041D01*
X-187140Y216167D01*
X-188014Y215101D01*
X-188664Y213885D01*
X-189065Y212565D01*
X-189200Y211193D01*
Y202193D01*
X-189065Y200821D01*
X-188664Y199501D01*
X-188014Y198285D01*
X-187140Y197219D01*
X-186074Y196344D01*
X-184858Y195694D01*
X-183538Y195294D01*
X-182166Y195159D01*
X-182152Y195160D01*
X-179200Y195193D01*
X-179074Y195190D01*
X-176200Y195109D01*
Y159221D01*
X-179074Y159140D01*
X-179200Y159138D01*
X-182152Y159170D01*
X-182166Y159172D01*
X-183538Y159037D01*
X-184858Y158636D01*
X-186074Y157986D01*
X-187140Y157112D01*
X-188014Y156046D01*
X-188664Y154830D01*
X-189065Y153510D01*
X-189200Y152138D01*
Y143138D01*
X-189065Y141766D01*
X-188664Y140446D01*
X-188014Y139230D01*
X-187140Y138164D01*
X-186074Y137289D01*
X-184858Y136639D01*
X-183538Y136239D01*
X-182166Y136104D01*
X-182152Y136105D01*
X-179200Y136137D01*
X-179074Y136135D01*
X-176200Y136054D01*
Y100166D01*
X-179074Y100085D01*
X-179200Y100083D01*
X-182152Y100115D01*
X-182166Y100117D01*
X-183538Y99981D01*
X-184858Y99581D01*
X-186074Y98931D01*
X-187140Y98056D01*
X-188014Y96991D01*
X-188664Y95774D01*
X-189065Y94455D01*
X-189200Y93083D01*
Y84083D01*
X-189065Y82710D01*
X-188664Y81391D01*
X-188014Y80175D01*
X-187140Y79109D01*
X-186074Y78234D01*
X-184858Y77584D01*
X-183538Y77184D01*
X-182166Y77049D01*
X-182152Y77050D01*
X-179200Y77082D01*
X-179074Y77080D01*
X-176200Y76999D01*
Y41111D01*
X-179074Y41030D01*
X-179200Y41028D01*
X-182152Y41060D01*
X-182166Y41061D01*
X-183538Y40926D01*
X-184858Y40526D01*
X-186074Y39876D01*
X-187140Y39001D01*
X-188014Y37935D01*
X-188664Y36719D01*
X-189065Y35400D01*
X-189200Y34028D01*
Y25028D01*
X-189065Y23655D01*
X-188664Y22336D01*
X-188014Y21120D01*
X-187140Y20054D01*
X-186074Y19179D01*
X-184858Y18529D01*
X-183538Y18129D01*
X-182166Y17994D01*
X-182152Y17995D01*
X-179200Y18027D01*
X-179074Y18025D01*
X-176200Y17944D01*
Y-17944D01*
X-179074Y-18025D01*
X-179200Y-18027D01*
X-182152Y-17995D01*
X-182166Y-17994D01*
X-183538Y-18129D01*
X-184858Y-18529D01*
X-186074Y-19179D01*
X-187140Y-20054D01*
X-188014Y-21120D01*
X-188664Y-22336D01*
X-189065Y-23655D01*
X-189200Y-25028D01*
Y-34028D01*
X-189065Y-35400D01*
X-188664Y-36719D01*
X-188014Y-37935D01*
X-187140Y-39001D01*
X-186074Y-39876D01*
X-184858Y-40526D01*
X-183538Y-40926D01*
X-182166Y-41061D01*
X-182152Y-41060D01*
X-179200Y-41028D01*
X-179074Y-41030D01*
X-176200Y-41111D01*
Y-76999D01*
X-179074Y-77080D01*
X-179200Y-77082D01*
X-182152Y-77050D01*
X-182166Y-77049D01*
X-183538Y-77184D01*
X-184858Y-77584D01*
X-186074Y-78234D01*
X-187140Y-79109D01*
X-188014Y-80175D01*
X-188664Y-81391D01*
X-189065Y-82710D01*
X-189200Y-84083D01*
Y-93083D01*
X-189065Y-94455D01*
X-188664Y-95774D01*
X-188014Y-96991D01*
X-187140Y-98056D01*
X-186074Y-98931D01*
X-184858Y-99581D01*
X-183538Y-99981D01*
X-182166Y-100117D01*
X-182152Y-100115D01*
X-179200Y-100083D01*
X-179074Y-100085D01*
X-176200Y-100166D01*
Y-136054D01*
X-179074Y-136135D01*
X-179200Y-136137D01*
X-182152Y-136105D01*
X-182166Y-136104D01*
X-183538Y-136239D01*
X-184858Y-136639D01*
X-186074Y-137289D01*
X-187140Y-138164D01*
X-188014Y-139230D01*
X-188664Y-140446D01*
X-189065Y-141766D01*
X-189200Y-143138D01*
Y-152138D01*
X-189065Y-153510D01*
X-188664Y-154830D01*
X-188014Y-156046D01*
X-187140Y-157112D01*
X-186074Y-157986D01*
X-184858Y-158636D01*
X-183538Y-159037D01*
X-182166Y-159172D01*
X-182152Y-159170D01*
X-179200Y-159138D01*
X-179074Y-159140D01*
X-176200Y-159221D01*
Y-195109D01*
X-179074Y-195190D01*
X-179200Y-195193D01*
X-182152Y-195160D01*
X-182166Y-195159D01*
X-183538Y-195294D01*
X-184858Y-195694D01*
X-186074Y-196344D01*
X-187140Y-197219D01*
X-188014Y-198285D01*
X-188664Y-199501D01*
X-189065Y-200821D01*
X-189200Y-202193D01*
Y-211193D01*
X-189065Y-212565D01*
X-188664Y-213885D01*
X-188014Y-215101D01*
X-187140Y-216167D01*
X-186074Y-217041D01*
X-184858Y-217691D01*
X-183538Y-218092D01*
X-182166Y-218227D01*
X-182152Y-218226D01*
X-179200Y-218193D01*
X-179074Y-218196D01*
X-176200Y-218276D01*
Y-254165D01*
X-179074Y-254245D01*
X-179200Y-254248D01*
X-182152Y-254216D01*
X-182166Y-254214D01*
X-183538Y-254349D01*
X-184858Y-254750D01*
X-186074Y-255400D01*
X-187140Y-256274D01*
X-188014Y-257340D01*
X-188664Y-258556D01*
X-189065Y-259876D01*
X-189200Y-261248D01*
Y-270248D01*
X-189065Y-271620D01*
X-188664Y-272940D01*
X-188014Y-274156D01*
X-187140Y-275222D01*
X-186074Y-276097D01*
X-184858Y-276747D01*
X-183538Y-277147D01*
X-182166Y-277282D01*
X-182152Y-277281D01*
X-179166Y-277248D01*
Y-277248D01*
X-165166D01*
Y-254248D01*
X-168131D01*
Y-218193D01*
X-165166D01*
Y-195193D01*
X-168131D01*
Y-159138D01*
X-165166D01*
Y-136138D01*
X-168131D01*
Y-100083D01*
X-165166D01*
Y-77083D01*
X-168131D01*
Y-41028D01*
X-165166D01*
Y-18028D01*
X-168131D01*
Y18028D01*
X-165166D01*
Y41028D01*
X-168131D01*
Y77083D01*
X-165166D01*
Y100083D01*
X-168131D01*
Y136138D01*
X-165166D01*
Y159138D01*
X-168131D01*
Y195193D01*
X-165166D01*
Y218193D01*
X-168131D01*
Y254248D01*
X-165166D01*
Y277248D01*
X-179166D01*
X-179166Y277248D01*
X-182152Y277281D01*
X-182166Y277282D01*
D02*
G37*
G36*
X-300276D02*
X-301648Y277147D01*
X-302968Y276747D01*
X-304184Y276097D01*
X-305250Y275222D01*
X-306125Y274156D01*
X-306775Y272940D01*
X-307175Y271620D01*
X-307310Y270248D01*
Y261248D01*
X-307175Y259876D01*
X-306775Y258556D01*
X-306125Y257340D01*
X-305250Y256274D01*
X-304184Y255400D01*
X-302968Y254750D01*
X-301648Y254349D01*
X-300276Y254214D01*
X-300263Y254216D01*
X-297311Y254248D01*
X-297184Y254245D01*
X-294311Y254165D01*
Y218276D01*
X-297184Y218196D01*
X-297311Y218193D01*
X-300263Y218226D01*
X-300276Y218227D01*
X-301648Y218092D01*
X-302968Y217691D01*
X-304184Y217041D01*
X-305250Y216167D01*
X-306125Y215101D01*
X-306775Y213885D01*
X-307175Y212565D01*
X-307310Y211193D01*
Y202193D01*
X-307175Y200821D01*
X-306775Y199501D01*
X-306125Y198285D01*
X-305250Y197219D01*
X-304184Y196344D01*
X-302968Y195694D01*
X-301648Y195294D01*
X-300276Y195159D01*
X-300263Y195160D01*
X-297311Y195193D01*
X-297184Y195190D01*
X-294311Y195109D01*
Y159221D01*
X-297184Y159140D01*
X-297311Y159138D01*
X-300263Y159170D01*
X-300276Y159172D01*
X-301648Y159037D01*
X-302968Y158636D01*
X-304184Y157986D01*
X-305250Y157112D01*
X-306125Y156046D01*
X-306775Y154830D01*
X-307175Y153510D01*
X-307310Y152138D01*
Y143138D01*
X-307175Y141766D01*
X-306775Y140446D01*
X-306125Y139230D01*
X-305250Y138164D01*
X-304184Y137289D01*
X-302968Y136639D01*
X-301648Y136239D01*
X-300276Y136104D01*
X-300263Y136105D01*
X-297311Y136137D01*
X-297184Y136135D01*
X-294311Y136054D01*
Y100166D01*
X-297184Y100085D01*
X-297311Y100083D01*
X-300263Y100115D01*
X-300276Y100117D01*
X-301648Y99981D01*
X-302968Y99581D01*
X-304184Y98931D01*
X-305250Y98056D01*
X-306125Y96991D01*
X-306775Y95774D01*
X-307175Y94455D01*
X-307310Y93083D01*
Y84083D01*
X-307175Y82710D01*
X-306775Y81391D01*
X-306125Y80175D01*
X-305250Y79109D01*
X-304184Y78234D01*
X-302968Y77584D01*
X-301648Y77184D01*
X-300276Y77049D01*
X-300263Y77050D01*
X-297311Y77082D01*
X-297184Y77080D01*
X-294311Y76999D01*
Y41111D01*
X-297184Y41030D01*
X-297311Y41028D01*
X-300263Y41060D01*
X-300276Y41061D01*
X-301648Y40926D01*
X-302968Y40526D01*
X-304184Y39876D01*
X-305250Y39001D01*
X-306125Y37935D01*
X-306775Y36719D01*
X-307175Y35400D01*
X-307310Y34028D01*
Y25028D01*
X-307175Y23655D01*
X-306775Y22336D01*
X-306125Y21120D01*
X-305250Y20054D01*
X-304184Y19179D01*
X-302968Y18529D01*
X-301648Y18129D01*
X-300276Y17994D01*
X-300263Y17995D01*
X-297311Y18027D01*
X-297184Y18025D01*
X-294311Y17944D01*
Y-17944D01*
X-297184Y-18025D01*
X-297311Y-18027D01*
X-300263Y-17995D01*
X-300276Y-17994D01*
X-301648Y-18129D01*
X-302968Y-18529D01*
X-304184Y-19179D01*
X-305250Y-20054D01*
X-306125Y-21120D01*
X-306775Y-22336D01*
X-307175Y-23655D01*
X-307310Y-25028D01*
Y-34028D01*
X-307175Y-35400D01*
X-306775Y-36719D01*
X-306125Y-37935D01*
X-305250Y-39001D01*
X-304184Y-39876D01*
X-302968Y-40526D01*
X-301648Y-40926D01*
X-300276Y-41061D01*
X-300263Y-41060D01*
X-297311Y-41028D01*
X-297184Y-41030D01*
X-294311Y-41111D01*
Y-76999D01*
X-297184Y-77080D01*
X-297311Y-77082D01*
X-300263Y-77050D01*
X-300276Y-77049D01*
X-301648Y-77184D01*
X-302968Y-77584D01*
X-304184Y-78234D01*
X-305250Y-79109D01*
X-306125Y-80175D01*
X-306775Y-81391D01*
X-307175Y-82710D01*
X-307310Y-84083D01*
Y-93083D01*
X-307175Y-94455D01*
X-306775Y-95774D01*
X-306125Y-96991D01*
X-305250Y-98056D01*
X-304184Y-98931D01*
X-302968Y-99581D01*
X-301648Y-99981D01*
X-300276Y-100117D01*
X-300263Y-100115D01*
X-297311Y-100083D01*
X-297184Y-100085D01*
X-294311Y-100166D01*
Y-136054D01*
X-297184Y-136135D01*
X-297311Y-136137D01*
X-300263Y-136105D01*
X-300276Y-136104D01*
X-301648Y-136239D01*
X-302968Y-136639D01*
X-304184Y-137289D01*
X-305250Y-138164D01*
X-306125Y-139230D01*
X-306775Y-140446D01*
X-307175Y-141766D01*
X-307310Y-143138D01*
Y-152138D01*
X-307175Y-153510D01*
X-306775Y-154830D01*
X-306125Y-156046D01*
X-305250Y-157112D01*
X-304184Y-157986D01*
X-302968Y-158636D01*
X-301648Y-159037D01*
X-300276Y-159172D01*
X-300263Y-159170D01*
X-297311Y-159138D01*
X-297184Y-159140D01*
X-294311Y-159221D01*
Y-195109D01*
X-297184Y-195190D01*
X-297311Y-195193D01*
X-300263Y-195160D01*
X-300276Y-195159D01*
X-301648Y-195294D01*
X-302968Y-195694D01*
X-304184Y-196344D01*
X-305250Y-197219D01*
X-306125Y-198285D01*
X-306775Y-199501D01*
X-307175Y-200821D01*
X-307310Y-202193D01*
Y-211193D01*
X-307175Y-212565D01*
X-306775Y-213885D01*
X-306125Y-215101D01*
X-305250Y-216167D01*
X-304184Y-217041D01*
X-302968Y-217691D01*
X-301648Y-218092D01*
X-300276Y-218227D01*
X-300263Y-218226D01*
X-297311Y-218193D01*
X-297184Y-218196D01*
X-294311Y-218276D01*
Y-254165D01*
X-297184Y-254245D01*
X-297311Y-254248D01*
X-300263Y-254216D01*
X-300276Y-254214D01*
X-301648Y-254349D01*
X-302968Y-254750D01*
X-304184Y-255400D01*
X-305250Y-256274D01*
X-306125Y-257340D01*
X-306775Y-258556D01*
X-307175Y-259876D01*
X-307310Y-261248D01*
Y-270248D01*
X-307175Y-271620D01*
X-306775Y-272940D01*
X-306125Y-274156D01*
X-305250Y-275222D01*
X-304184Y-276097D01*
X-302968Y-276747D01*
X-301648Y-277147D01*
X-300276Y-277282D01*
X-300263Y-277281D01*
X-297276Y-277248D01*
Y-277248D01*
X-283276D01*
Y-254248D01*
X-286242D01*
Y-218193D01*
X-283276D01*
Y-195193D01*
X-286242D01*
Y-159138D01*
X-283276D01*
Y-136138D01*
X-286242D01*
Y-100083D01*
X-283276D01*
Y-77083D01*
X-286242D01*
Y-41028D01*
X-283276D01*
Y-18028D01*
X-286242D01*
Y18028D01*
X-283276D01*
Y41028D01*
X-286242D01*
Y77083D01*
X-283276D01*
Y100083D01*
X-286242D01*
Y136138D01*
X-283276D01*
Y159138D01*
X-286242D01*
Y195193D01*
X-283276D01*
Y218193D01*
X-286242D01*
Y254248D01*
X-283276D01*
Y277248D01*
X-297276D01*
X-297276Y277248D01*
X-300263Y277281D01*
X-300276Y277282D01*
D02*
G37*
G36*
X-241221D02*
X-242593Y277147D01*
X-243913Y276747D01*
X-245129Y276097D01*
X-246195Y275222D01*
X-247069Y274156D01*
X-247719Y272940D01*
X-248120Y271620D01*
X-248255Y270248D01*
Y261248D01*
X-248120Y259876D01*
X-247719Y258556D01*
X-247069Y257340D01*
X-246195Y256274D01*
X-245129Y255400D01*
X-243913Y254750D01*
X-242593Y254349D01*
X-241221Y254214D01*
X-241208Y254216D01*
X-238256Y254248D01*
X-238129Y254245D01*
X-235256Y254165D01*
Y218276D01*
X-238129Y218196D01*
X-238256Y218193D01*
X-241208Y218226D01*
X-241221Y218227D01*
X-242593Y218092D01*
X-243913Y217691D01*
X-245129Y217041D01*
X-246195Y216167D01*
X-247069Y215101D01*
X-247719Y213885D01*
X-248120Y212565D01*
X-248255Y211193D01*
Y202193D01*
X-248120Y200821D01*
X-247719Y199501D01*
X-247069Y198285D01*
X-246195Y197219D01*
X-245129Y196344D01*
X-243913Y195694D01*
X-242593Y195294D01*
X-241221Y195159D01*
X-241208Y195160D01*
X-238256Y195193D01*
X-238129Y195190D01*
X-235256Y195109D01*
Y159221D01*
X-238129Y159140D01*
X-238256Y159138D01*
X-241208Y159170D01*
X-241221Y159172D01*
X-242593Y159037D01*
X-243913Y158636D01*
X-245129Y157986D01*
X-246195Y157112D01*
X-247069Y156046D01*
X-247719Y154830D01*
X-248120Y153510D01*
X-248255Y152138D01*
Y143138D01*
X-248120Y141766D01*
X-247719Y140446D01*
X-247069Y139230D01*
X-246195Y138164D01*
X-245129Y137289D01*
X-243913Y136639D01*
X-242593Y136239D01*
X-241221Y136104D01*
X-241208Y136105D01*
X-238256Y136137D01*
X-238129Y136135D01*
X-235256Y136054D01*
Y100166D01*
X-238129Y100085D01*
X-238256Y100083D01*
X-241208Y100115D01*
X-241221Y100117D01*
X-242593Y99981D01*
X-243913Y99581D01*
X-245129Y98931D01*
X-246195Y98056D01*
X-247069Y96991D01*
X-247719Y95774D01*
X-248120Y94455D01*
X-248255Y93083D01*
Y84083D01*
X-248120Y82710D01*
X-247719Y81391D01*
X-247069Y80175D01*
X-246195Y79109D01*
X-245129Y78234D01*
X-243913Y77584D01*
X-242593Y77184D01*
X-241221Y77049D01*
X-241208Y77050D01*
X-238256Y77082D01*
X-238129Y77080D01*
X-235256Y76999D01*
Y41111D01*
X-238129Y41030D01*
X-238256Y41028D01*
X-241208Y41060D01*
X-241221Y41061D01*
X-242593Y40926D01*
X-243913Y40526D01*
X-245129Y39876D01*
X-246195Y39001D01*
X-247069Y37935D01*
X-247719Y36719D01*
X-248120Y35400D01*
X-248255Y34028D01*
Y25028D01*
X-248120Y23655D01*
X-247719Y22336D01*
X-247069Y21120D01*
X-246195Y20054D01*
X-245129Y19179D01*
X-243913Y18529D01*
X-242593Y18129D01*
X-241221Y17994D01*
X-241208Y17995D01*
X-238256Y18027D01*
X-238129Y18025D01*
X-235256Y17944D01*
Y-17944D01*
X-238129Y-18025D01*
X-238256Y-18027D01*
X-241208Y-17995D01*
X-241221Y-17994D01*
X-242593Y-18129D01*
X-243913Y-18529D01*
X-245129Y-19179D01*
X-246195Y-20054D01*
X-247069Y-21120D01*
X-247719Y-22336D01*
X-248120Y-23655D01*
X-248255Y-25028D01*
Y-34028D01*
X-248120Y-35400D01*
X-247719Y-36719D01*
X-247069Y-37935D01*
X-246195Y-39001D01*
X-245129Y-39876D01*
X-243913Y-40526D01*
X-242593Y-40926D01*
X-241221Y-41061D01*
X-241208Y-41060D01*
X-238256Y-41028D01*
X-238129Y-41030D01*
X-235256Y-41111D01*
Y-76999D01*
X-238129Y-77080D01*
X-238256Y-77082D01*
X-241208Y-77050D01*
X-241221Y-77049D01*
X-242593Y-77184D01*
X-243913Y-77584D01*
X-245129Y-78234D01*
X-246195Y-79109D01*
X-247069Y-80175D01*
X-247719Y-81391D01*
X-248120Y-82710D01*
X-248255Y-84083D01*
Y-93083D01*
X-248120Y-94455D01*
X-247719Y-95774D01*
X-247069Y-96991D01*
X-246195Y-98056D01*
X-245129Y-98931D01*
X-243913Y-99581D01*
X-242593Y-99981D01*
X-241221Y-100117D01*
X-241208Y-100115D01*
X-238256Y-100083D01*
X-238129Y-100085D01*
X-235256Y-100166D01*
Y-136054D01*
X-238129Y-136135D01*
X-238256Y-136137D01*
X-241208Y-136105D01*
X-241221Y-136104D01*
X-242593Y-136239D01*
X-243913Y-136639D01*
X-245129Y-137289D01*
X-246195Y-138164D01*
X-247069Y-139230D01*
X-247719Y-140446D01*
X-248120Y-141766D01*
X-248255Y-143138D01*
Y-152138D01*
X-248120Y-153510D01*
X-247719Y-154830D01*
X-247069Y-156046D01*
X-246195Y-157112D01*
X-245129Y-157986D01*
X-243913Y-158636D01*
X-242593Y-159037D01*
X-241221Y-159172D01*
X-241208Y-159170D01*
X-238256Y-159138D01*
X-238129Y-159140D01*
X-235256Y-159221D01*
Y-195109D01*
X-238129Y-195190D01*
X-238256Y-195193D01*
X-241208Y-195160D01*
X-241221Y-195159D01*
X-242593Y-195294D01*
X-243913Y-195694D01*
X-245129Y-196344D01*
X-246195Y-197219D01*
X-247069Y-198285D01*
X-247719Y-199501D01*
X-248120Y-200821D01*
X-248255Y-202193D01*
Y-211193D01*
X-248120Y-212565D01*
X-247719Y-213885D01*
X-247069Y-215101D01*
X-246195Y-216167D01*
X-245129Y-217041D01*
X-243913Y-217691D01*
X-242593Y-218092D01*
X-241221Y-218227D01*
X-241208Y-218226D01*
X-238256Y-218193D01*
X-238129Y-218196D01*
X-235256Y-218276D01*
Y-254165D01*
X-238129Y-254245D01*
X-238256Y-254248D01*
X-241208Y-254216D01*
X-241221Y-254214D01*
X-242593Y-254349D01*
X-243913Y-254750D01*
X-245129Y-255400D01*
X-246195Y-256274D01*
X-247069Y-257340D01*
X-247719Y-258556D01*
X-248120Y-259876D01*
X-248255Y-261248D01*
Y-270248D01*
X-248120Y-271620D01*
X-247719Y-272940D01*
X-247069Y-274156D01*
X-246195Y-275222D01*
X-245129Y-276097D01*
X-243913Y-276747D01*
X-242593Y-277147D01*
X-241221Y-277282D01*
X-241208Y-277281D01*
X-238221Y-277248D01*
Y-277248D01*
X-224221D01*
Y-254248D01*
X-227186D01*
Y-218193D01*
X-224221D01*
Y-195193D01*
X-227186D01*
Y-159138D01*
X-224221D01*
Y-136138D01*
X-227186D01*
Y-100083D01*
X-224221D01*
Y-77083D01*
X-227186D01*
Y-41028D01*
X-224221D01*
Y-18028D01*
X-227186D01*
Y18028D01*
X-224221D01*
Y41028D01*
X-227186D01*
Y77083D01*
X-224221D01*
Y100083D01*
X-227186D01*
Y136138D01*
X-224221D01*
Y159138D01*
X-227186D01*
Y195193D01*
X-224221D01*
Y218193D01*
X-227186D01*
Y254248D01*
X-224221D01*
Y277248D01*
X-238221D01*
X-238221Y277248D01*
X-241208Y277281D01*
X-241221Y277282D01*
D02*
G37*
G36*
X-53634Y-343724D02*
Y-346941D01*
X-50417D01*
X-50480Y-346462D01*
X-50858Y-345550D01*
X-51459Y-344766D01*
X-52243Y-344165D01*
X-53155Y-343788D01*
X-53634Y-343724D01*
D02*
G37*
G36*
X-54634D02*
X-55113Y-343788D01*
X-56025Y-344165D01*
X-56808Y-344766D01*
X-57410Y-345550D01*
X-57787Y-346462D01*
X-57850Y-346941D01*
X-54634D01*
Y-343724D01*
D02*
G37*
G36*
X-79224D02*
Y-346941D01*
X-76008D01*
X-76071Y-346462D01*
X-76449Y-345550D01*
X-77050Y-344766D01*
X-77833Y-344165D01*
X-78746Y-343788D01*
X-79224Y-343724D01*
D02*
G37*
G36*
X-80224D02*
X-80703Y-343788D01*
X-81616Y-344165D01*
X-82399Y-344766D01*
X-83000Y-345550D01*
X-83378Y-346462D01*
X-83441Y-346941D01*
X-80224D01*
Y-343724D01*
D02*
G37*
G36*
X-104815D02*
Y-346941D01*
X-101598D01*
X-101662Y-346462D01*
X-102039Y-345550D01*
X-102640Y-344766D01*
X-103424Y-344165D01*
X-104336Y-343788D01*
X-104815Y-343724D01*
D02*
G37*
G36*
X-105815D02*
X-106294Y-343788D01*
X-107206Y-344165D01*
X-107990Y-344766D01*
X-108591Y-345550D01*
X-108968Y-346462D01*
X-109031Y-346941D01*
X-105815D01*
Y-343724D01*
D02*
G37*
G36*
X-50417Y-347941D02*
X-53634D01*
Y-351157D01*
X-53155Y-351094D01*
X-52243Y-350717D01*
X-51459Y-350115D01*
X-50858Y-349332D01*
X-50480Y-348420D01*
X-50417Y-347941D01*
D02*
G37*
G36*
X-54634D02*
X-57850D01*
X-57787Y-348420D01*
X-57410Y-349332D01*
X-56808Y-350115D01*
X-56025Y-350717D01*
X-55113Y-351094D01*
X-54634Y-351157D01*
Y-347941D01*
D02*
G37*
G36*
X-76008D02*
X-79224D01*
Y-351157D01*
X-78746Y-351094D01*
X-77833Y-350717D01*
X-77050Y-350115D01*
X-76449Y-349332D01*
X-76071Y-348420D01*
X-76008Y-347941D01*
D02*
G37*
G36*
X-80224D02*
X-83441D01*
X-83378Y-348420D01*
X-83000Y-349332D01*
X-82399Y-350115D01*
X-81616Y-350717D01*
X-80703Y-351094D01*
X-80224Y-351157D01*
Y-347941D01*
D02*
G37*
G36*
X-101598D02*
X-104815D01*
Y-351157D01*
X-104336Y-351094D01*
X-103424Y-350717D01*
X-102640Y-350115D01*
X-102039Y-349332D01*
X-101662Y-348420D01*
X-101598Y-347941D01*
D02*
G37*
G36*
X-105815D02*
X-109031D01*
X-108968Y-348420D01*
X-108591Y-349332D01*
X-107990Y-350115D01*
X-107206Y-350717D01*
X-106294Y-351094D01*
X-105815Y-351157D01*
Y-347941D01*
D02*
G37*
%LPD*%
D13*
X-168201Y-347441D02*
X-130905D01*
X-168201D02*
Y-306500D01*
X-109146D01*
X-286087D02*
X-168201D01*
Y-306260D01*
X106000Y-338900D02*
X152600D01*
X21000D02*
X106000D01*
X106200Y-339100D01*
Y-363300D02*
Y-339100D01*
X152600Y-359700D02*
Y-338900D01*
Y-359700D02*
X225200D01*
Y-378200D02*
Y-359700D01*
X21000Y-364000D02*
Y-338900D01*
X20823Y-364000D02*
X21000D01*
X257100Y-306276D02*
X304240D01*
X224800D02*
X257100D01*
X257300Y-306076D01*
Y-299700D01*
X199000Y-306276D02*
X224800D01*
X225200Y-306676D01*
Y-318200D02*
Y-306676D01*
X205200Y-378200D02*
Y-366000D01*
X-338500Y-364000D02*
X-298177D01*
X-234677D02*
X-181677D01*
X-298177D02*
X-234677D01*
X-338500Y-372323D02*
Y-364000D01*
X199000Y-306276D02*
Y-300000D01*
X300275Y-265748D02*
Y-206693D01*
Y-147638D01*
Y-88583D01*
Y-29528D01*
Y29528D01*
Y88583D01*
Y147638D01*
Y206693D01*
Y265748D01*
X241220Y206693D02*
Y265748D01*
Y147638D02*
Y206693D01*
Y88583D02*
Y147638D01*
Y29528D02*
Y88583D01*
Y-29528D02*
Y29528D01*
Y-88583D02*
Y-29528D01*
Y-147638D02*
Y-88583D01*
Y-206693D02*
Y-147638D01*
Y-265748D02*
Y-206693D01*
X182165Y206693D02*
Y265748D01*
Y147638D02*
Y206693D01*
Y88583D02*
Y147638D01*
Y29528D02*
Y88583D01*
Y-29528D02*
Y29528D01*
Y-88583D02*
Y-29528D01*
Y-147638D02*
Y-88583D01*
Y-206693D02*
Y-147638D01*
Y-265748D02*
Y-206693D01*
X123110Y206693D02*
Y265748D01*
Y147638D02*
Y206693D01*
Y88583D02*
Y147638D01*
Y29528D02*
Y88583D01*
Y-29528D02*
Y29528D01*
Y-88583D02*
Y-29528D01*
Y-147638D02*
Y-88583D01*
Y-206693D02*
Y-147638D01*
Y-265748D02*
Y-206693D01*
X64055Y206693D02*
Y265748D01*
Y147638D02*
Y206693D01*
Y88583D02*
Y147638D01*
Y29528D02*
Y88583D01*
Y-29528D02*
Y29528D01*
Y-88583D02*
Y-29528D01*
Y-147638D02*
Y-88583D01*
Y-206693D02*
Y-147638D01*
Y-265748D02*
Y-206693D01*
X5000Y206693D02*
Y265748D01*
Y147638D02*
Y206693D01*
Y88583D02*
Y147638D01*
Y29528D02*
Y88583D01*
Y-29528D02*
Y29528D01*
Y-88583D02*
Y-29528D01*
Y-147638D02*
Y-88583D01*
Y-206693D02*
Y-147638D01*
Y-265748D02*
Y-206693D01*
X-54056Y206693D02*
Y265748D01*
Y147638D02*
Y206693D01*
Y88583D02*
Y147638D01*
Y29528D02*
Y88583D01*
Y-29528D02*
Y29528D01*
Y-88583D02*
Y-29528D01*
Y-147638D02*
Y-88583D01*
Y-206693D02*
Y-147638D01*
Y-265748D02*
Y-206693D01*
X-113111Y206693D02*
Y265748D01*
Y147638D02*
Y206693D01*
Y88583D02*
Y147638D01*
Y29528D02*
Y88583D01*
Y-29528D02*
Y29528D01*
Y-88583D02*
Y-29528D01*
Y-147638D02*
Y-88583D01*
Y-206693D02*
Y-147638D01*
Y-265748D02*
Y-206693D01*
X-172166Y206693D02*
Y265748D01*
Y147638D02*
Y206693D01*
Y88583D02*
Y147638D01*
Y29528D02*
Y88583D01*
Y-29528D02*
Y29528D01*
Y-88583D02*
Y-29528D01*
Y-147638D02*
Y-88583D01*
Y-206693D02*
Y-147638D01*
Y-265748D02*
Y-206693D01*
X-231221Y206693D02*
Y265748D01*
Y147638D02*
Y206693D01*
Y88583D02*
Y147638D01*
Y29528D02*
Y88583D01*
Y-29528D02*
Y29528D01*
Y-88583D02*
Y-29528D01*
Y-147638D02*
Y-88583D01*
Y-206693D02*
Y-147638D01*
Y-265748D02*
Y-206693D01*
X-290276Y206693D02*
Y265748D01*
Y147638D02*
Y206693D01*
Y88583D02*
Y147638D01*
Y29528D02*
Y88583D01*
Y-29528D02*
Y29528D01*
Y-88583D02*
Y-29528D01*
Y-147638D02*
Y-88583D01*
Y-206693D02*
Y-147638D01*
Y-265748D02*
Y-206693D01*
X-19500Y-358000D02*
X20823D01*
Y-364000D02*
Y-358000D01*
X-109146Y-306500D02*
X-50091D01*
Y-306260D01*
X-286311Y-306276D02*
X-286087Y-306500D01*
X31000Y-306276D02*
X199000D01*
X31000D02*
Y-288000D01*
X-50091Y-306276D02*
X-50000D01*
Y-288000D01*
X31000D01*
X134500Y-366000D02*
Y-353500D01*
Y-366000D02*
X205200D01*
D14*
X60323Y-372323D02*
X164000D01*
X315200Y-348000D02*
Y-318200D01*
X181000Y-348000D02*
X315200D01*
X181000D02*
Y-322500D01*
X-105000D02*
X181000D01*
X325200Y-353500D02*
Y-318200D01*
X175500Y-353500D02*
X325200D01*
X-211902Y-372047D02*
X60047D01*
X-328677Y-372323D02*
X-212177D01*
X-207000Y-284000D02*
Y241500D01*
X-212177Y-372323D02*
X-211902Y-372047D01*
X-79724Y-329724D02*
X-54134D01*
X-105315D02*
X-105000Y-329410D01*
X-130905Y-329724D02*
X-105315D01*
X-109146Y-306500D02*
Y-306260D01*
X175500Y-353500D02*
Y-352985D01*
X-54134Y-329724D02*
Y-329500D01*
X175637D01*
Y-352985D02*
Y-329500D01*
X-105000Y-329410D02*
Y-322500D01*
X-202000Y300500D02*
X-202000Y300500D01*
X-202000Y-294000D02*
Y300500D01*
X-212035Y182965D02*
X-212000Y182929D01*
Y-293500D02*
Y182929D01*
X60047Y-372047D02*
X60323Y-372323D01*
X-333700Y-380400D02*
X55300D01*
X173000D01*
Y-373400D01*
D15*
X-290276Y265748D02*
D03*
X-231221D02*
D03*
X-172166D02*
D03*
X-113111D02*
D03*
X-54056D02*
D03*
X5000D02*
D03*
X64055D02*
D03*
X123110D02*
D03*
X182165D02*
D03*
X241220D02*
D03*
X300275D02*
D03*
X-290276Y206693D02*
D03*
X-231221Y206693D02*
D03*
X-172166Y206693D02*
D03*
X-113111D02*
D03*
X-54056D02*
D03*
X5000D02*
D03*
X64055D02*
D03*
X123110D02*
D03*
X182165D02*
D03*
X241220D02*
D03*
X300275D02*
D03*
X-290276Y147638D02*
D03*
X-231221D02*
D03*
X-172166D02*
D03*
X-113111D02*
D03*
X-54056D02*
D03*
X5000D02*
D03*
X64055D02*
D03*
X123110D02*
D03*
X182165D02*
D03*
X241220D02*
D03*
X300275D02*
D03*
X-290276Y88583D02*
D03*
X-231221D02*
D03*
X-172166D02*
D03*
X-113111D02*
D03*
X-54056D02*
D03*
X5000D02*
D03*
X64055D02*
D03*
X123110D02*
D03*
X182165D02*
D03*
X241220D02*
D03*
X300275D02*
D03*
X-290276Y29528D02*
D03*
X-231221D02*
D03*
X-172166D02*
D03*
X-113111D02*
D03*
X-54056D02*
D03*
X5000D02*
D03*
X64055D02*
D03*
X123110D02*
D03*
X182165D02*
D03*
X241220D02*
D03*
X300275D02*
D03*
X-290276Y-29528D02*
D03*
X-231221D02*
D03*
X-172166D02*
D03*
X-113111D02*
D03*
X-54056D02*
D03*
X5000D02*
D03*
X64055D02*
D03*
X123110D02*
D03*
X182165D02*
D03*
X241220D02*
D03*
X300275D02*
D03*
X-290276Y-88583D02*
D03*
X-231221D02*
D03*
X-172166D02*
D03*
X-113111D02*
D03*
X-54056D02*
D03*
X5000D02*
D03*
X64055D02*
D03*
X123110D02*
D03*
X182165D02*
D03*
X241220D02*
D03*
X300275D02*
D03*
X-290276Y-147638D02*
D03*
X-231221D02*
D03*
X-172166D02*
D03*
X-113111D02*
D03*
X-54056D02*
D03*
X5000D02*
D03*
X64055D02*
D03*
X123110D02*
D03*
X182165D02*
D03*
X241220D02*
D03*
X300275D02*
D03*
X-290276Y-206693D02*
D03*
X-231221D02*
D03*
X-172166D02*
D03*
X-113111D02*
D03*
X-54056D02*
D03*
X5000D02*
D03*
X64055D02*
D03*
X123110D02*
D03*
X182165D02*
D03*
X241220D02*
D03*
X300275D02*
D03*
X-290276Y-265748D02*
D03*
X-231221D02*
D03*
X-172166D02*
D03*
X-113111D02*
D03*
X-54056D02*
D03*
X5000D02*
D03*
X64055D02*
D03*
X123110D02*
D03*
X182165D02*
D03*
X241220D02*
D03*
X300275D02*
D03*
D16*
X-300276Y265748D02*
D03*
X-241221D02*
D03*
X-182166D02*
D03*
X-123111D02*
D03*
X-64056D02*
D03*
X-5000D02*
D03*
X54055D02*
D03*
X113110D02*
D03*
X172165D02*
D03*
X231220D02*
D03*
X290275D02*
D03*
X-300276Y206693D02*
D03*
X-241221Y206693D02*
D03*
X-182166Y206693D02*
D03*
X-123111D02*
D03*
X-64056D02*
D03*
X-5000D02*
D03*
X54055D02*
D03*
X113110D02*
D03*
X172165D02*
D03*
X231220D02*
D03*
X290275D02*
D03*
X-300276Y147638D02*
D03*
X-241221D02*
D03*
X-182166D02*
D03*
X-123111D02*
D03*
X-64056D02*
D03*
X-5000D02*
D03*
X54055D02*
D03*
X113110D02*
D03*
X172165D02*
D03*
X231220D02*
D03*
X290275D02*
D03*
X-300276Y88583D02*
D03*
X-241221D02*
D03*
X-182166D02*
D03*
X-123111D02*
D03*
X-64056D02*
D03*
X-5000D02*
D03*
X54055D02*
D03*
X113110D02*
D03*
X172165D02*
D03*
X231220D02*
D03*
X290275D02*
D03*
X-300276Y29528D02*
D03*
X-241221D02*
D03*
X-182166D02*
D03*
X-123111D02*
D03*
X-64056D02*
D03*
X-5000D02*
D03*
X54055D02*
D03*
X113110D02*
D03*
X172165D02*
D03*
X231220D02*
D03*
X290275D02*
D03*
X-300276Y-29528D02*
D03*
X-241221D02*
D03*
X-182166D02*
D03*
X-123111D02*
D03*
X-64056D02*
D03*
X-5000D02*
D03*
X54055D02*
D03*
X113110D02*
D03*
X172165D02*
D03*
X231220D02*
D03*
X290275D02*
D03*
X-300276Y-88583D02*
D03*
X-241221D02*
D03*
X-182166D02*
D03*
X-123111D02*
D03*
X-64056D02*
D03*
X-5000D02*
D03*
X54055D02*
D03*
X113110D02*
D03*
X172165D02*
D03*
X231220D02*
D03*
X290275D02*
D03*
X-300276Y-147638D02*
D03*
X-241221D02*
D03*
X-182166D02*
D03*
X-123111D02*
D03*
X-64056D02*
D03*
X-5000D02*
D03*
X54055D02*
D03*
X113110D02*
D03*
X172165D02*
D03*
X231220D02*
D03*
X290275D02*
D03*
X-300276Y-206693D02*
D03*
X-241221D02*
D03*
X-182166D02*
D03*
X-123111D02*
D03*
X-64056D02*
D03*
X-5000D02*
D03*
X54055D02*
D03*
X113110D02*
D03*
X172165D02*
D03*
X231220D02*
D03*
X290275D02*
D03*
X-300276Y-265748D02*
D03*
X-241221D02*
D03*
X-182166D02*
D03*
X-123111D02*
D03*
X-64056D02*
D03*
X-5000D02*
D03*
X54055D02*
D03*
X113110D02*
D03*
X172165D02*
D03*
X231220D02*
D03*
X290275D02*
D03*
D17*
X-79724Y-347441D02*
D03*
X-54134D02*
D03*
X-79724Y-329724D02*
D03*
X-54134D02*
D03*
X-130905Y-347441D02*
D03*
X-105315D02*
D03*
X-130905Y-329724D02*
D03*
X-105315D02*
D03*
D18*
X-338583Y307087D02*
D03*
X338583D02*
D03*
Y-275590D02*
D03*
X-338583D02*
D03*
X0Y307087D02*
D03*
X-338583Y11811D02*
D03*
X338583D02*
D03*
X0Y-303150D02*
D03*
D19*
X195200Y-378200D02*
D03*
X205200D02*
D03*
X215200D02*
D03*
X225200D02*
D03*
X235200D02*
D03*
X245200D02*
D03*
X255200D02*
D03*
X265200D02*
D03*
X275200D02*
D03*
X285200D02*
D03*
X295200D02*
D03*
X305200D02*
D03*
X315200D02*
D03*
X325200D02*
D03*
X335200D02*
D03*
X205200Y-318200D02*
D03*
X215200D02*
D03*
X225200D02*
D03*
X245200D02*
D03*
X235200D02*
D03*
X265200D02*
D03*
X255200D02*
D03*
X285200D02*
D03*
X275200D02*
D03*
X305200D02*
D03*
X295200D02*
D03*
X325200D02*
D03*
X315200D02*
D03*
X335200D02*
D03*
D20*
X195200D02*
D03*
D21*
X106200Y-363300D02*
D03*
X257300Y-299700D02*
D03*
X173000Y-373700D02*
D03*
X164000Y-372323D02*
D03*
X134500Y-353500D02*
D03*
X-212177Y-372323D02*
D03*
X-328677D02*
D03*
X-298177Y-364000D02*
D03*
X-338677Y-372323D02*
D03*
X-234677Y-364000D02*
D03*
X199000Y-300000D02*
D03*
X-286311Y-306276D02*
D03*
X-227256Y-305760D02*
D03*
X-168201Y-306260D02*
D03*
X-109146D02*
D03*
X-50091D02*
D03*
X68020D02*
D03*
X127075Y-305760D02*
D03*
X304240Y-306276D02*
D03*
X20823Y-364000D02*
D03*
X-181677D02*
D03*
X-207000Y241000D02*
D03*
X-202000Y300500D02*
D03*
X-212035Y182965D02*
D03*
X-19500Y-358000D02*
D03*
X31000Y-306000D02*
D03*
X-207000Y-284000D02*
D03*
X-202000Y-293500D02*
D03*
X-212000D02*
D03*
X60323Y-372323D02*
D03*
X55300Y-380400D02*
D03*
X-217200Y-380500D02*
D03*
X-333700D02*
D03*
M02*
