G04 Layer_Color=128*
%FSLAX25Y25*%
%MOIN*%
G70*
G01*
G75*
%ADD36C,0.00200*%
D36*
X-291776Y265748D02*
X-288776D01*
X-290276Y264248D02*
Y267248D01*
X-301776Y265748D02*
X-298776D01*
X-300276Y264248D02*
Y267248D01*
X-242721Y265748D02*
X-239721D01*
X-241221Y264248D02*
Y267248D01*
X-232721Y265748D02*
X-229721D01*
X-231221Y264248D02*
Y267248D01*
X-173666Y265748D02*
X-170666D01*
X-172166Y264248D02*
Y267248D01*
X-183666Y265748D02*
X-180666D01*
X-182166Y264248D02*
Y267248D01*
X-124611Y265748D02*
X-121611D01*
X-123111Y264248D02*
Y267248D01*
X-114611Y265748D02*
X-111611D01*
X-113111Y264248D02*
Y267248D01*
X-55556Y265748D02*
X-52556D01*
X-54056Y264248D02*
Y267248D01*
X-65556Y265748D02*
X-62556D01*
X-64056Y264248D02*
Y267248D01*
X-6500Y265748D02*
X-3500D01*
X-5000Y264248D02*
Y267248D01*
X3500Y265748D02*
X6500D01*
X5000Y264248D02*
Y267248D01*
X62555Y265748D02*
X65555D01*
X64055Y264248D02*
Y267248D01*
X52555Y265748D02*
X55555D01*
X54055Y264248D02*
Y267248D01*
X111610Y265748D02*
X114610D01*
X113110Y264248D02*
Y267248D01*
X121610Y265748D02*
X124610D01*
X123110Y264248D02*
Y267248D01*
X180665Y265748D02*
X183665D01*
X182165Y264248D02*
Y267248D01*
X170665Y265748D02*
X173665D01*
X172165Y264248D02*
Y267248D01*
X229720Y265748D02*
X232720D01*
X231220Y264248D02*
Y267248D01*
X239720Y265748D02*
X242720D01*
X241220Y264248D02*
Y267248D01*
X298775Y265748D02*
X301775D01*
X300275Y264248D02*
Y267248D01*
X288775Y265748D02*
X291775D01*
X290275Y264248D02*
Y267248D01*
X-301776Y206693D02*
X-298776D01*
X-300276Y205193D02*
Y208193D01*
X-291776Y206693D02*
X-288776D01*
X-290276Y205193D02*
Y208193D01*
X-232721Y206693D02*
X-229721D01*
X-231221Y205193D02*
Y208193D01*
X-242721Y206693D02*
X-239721D01*
X-241221Y205193D02*
Y208193D01*
X-183666Y206693D02*
X-180666D01*
X-182166Y205193D02*
Y208193D01*
X-173666Y206693D02*
X-170666D01*
X-172166Y205193D02*
Y208193D01*
X-114611Y206693D02*
X-111611D01*
X-113111Y205193D02*
Y208193D01*
X-124611Y206693D02*
X-121611D01*
X-123111Y205193D02*
Y208193D01*
X-65556Y206693D02*
X-62556D01*
X-64056Y205193D02*
Y208193D01*
X-55556Y206693D02*
X-52556D01*
X-54056Y205193D02*
Y208193D01*
X3500Y206693D02*
X6500D01*
X5000Y205193D02*
Y208193D01*
X-6500Y206693D02*
X-3500D01*
X-5000Y205193D02*
Y208193D01*
X52555Y206693D02*
X55555D01*
X54055Y205193D02*
Y208193D01*
X62555Y206693D02*
X65555D01*
X64055Y205193D02*
Y208193D01*
X121610Y206693D02*
X124610D01*
X123110Y205193D02*
Y208193D01*
X111610Y206693D02*
X114610D01*
X113110Y205193D02*
Y208193D01*
X170665Y206693D02*
X173665D01*
X172165Y205193D02*
Y208193D01*
X180665Y206693D02*
X183665D01*
X182165Y205193D02*
Y208193D01*
X239720Y206693D02*
X242720D01*
X241220Y205193D02*
Y208193D01*
X229720Y206693D02*
X232720D01*
X231220Y205193D02*
Y208193D01*
X288775Y206693D02*
X291775D01*
X290275Y205193D02*
Y208193D01*
X298775Y206693D02*
X301775D01*
X300275Y205193D02*
Y208193D01*
X-291776Y147638D02*
X-288776D01*
X-290276Y146138D02*
Y149138D01*
X-301776Y147638D02*
X-298776D01*
X-300276Y146138D02*
Y149138D01*
X-242721Y147638D02*
X-239721D01*
X-241221Y146138D02*
Y149138D01*
X-232721Y147638D02*
X-229721D01*
X-231221Y146138D02*
Y149138D01*
X-173666Y147638D02*
X-170666D01*
X-172166Y146138D02*
Y149138D01*
X-183666Y147638D02*
X-180666D01*
X-182166Y146138D02*
Y149138D01*
X-124611Y147638D02*
X-121611D01*
X-123111Y146138D02*
Y149138D01*
X-114611Y147638D02*
X-111611D01*
X-113111Y146138D02*
Y149138D01*
X-55556Y147638D02*
X-52556D01*
X-54056Y146138D02*
Y149138D01*
X-65556Y147638D02*
X-62556D01*
X-64056Y146138D02*
Y149138D01*
X-6500Y147638D02*
X-3500D01*
X-5000Y146138D02*
Y149138D01*
X3500Y147638D02*
X6500D01*
X5000Y146138D02*
Y149138D01*
X62555Y147638D02*
X65555D01*
X64055Y146138D02*
Y149138D01*
X52555Y147638D02*
X55555D01*
X54055Y146138D02*
Y149138D01*
X111610Y147638D02*
X114610D01*
X113110Y146138D02*
Y149138D01*
X121610Y147638D02*
X124610D01*
X123110Y146138D02*
Y149138D01*
X180665Y147638D02*
X183665D01*
X182165Y146138D02*
Y149138D01*
X170665Y147638D02*
X173665D01*
X172165Y146138D02*
Y149138D01*
X229720Y147638D02*
X232720D01*
X231220Y146138D02*
Y149138D01*
X239720Y147638D02*
X242720D01*
X241220Y146138D02*
Y149138D01*
X298775Y147638D02*
X301775D01*
X300275Y146138D02*
Y149138D01*
X288775Y147638D02*
X291775D01*
X290275Y146138D02*
Y149138D01*
X-301776Y88583D02*
X-298776D01*
X-300276Y87083D02*
Y90083D01*
X-291776Y88583D02*
X-288776D01*
X-290276Y87083D02*
Y90083D01*
X-232721Y88583D02*
X-229721D01*
X-231221Y87083D02*
Y90083D01*
X-242721Y88583D02*
X-239721D01*
X-241221Y87083D02*
Y90083D01*
X-183666Y88583D02*
X-180666D01*
X-182166Y87083D02*
Y90083D01*
X-173666Y88583D02*
X-170666D01*
X-172166Y87083D02*
Y90083D01*
X-114611Y88583D02*
X-111611D01*
X-113111Y87083D02*
Y90083D01*
X-124611Y88583D02*
X-121611D01*
X-123111Y87083D02*
Y90083D01*
X-65556Y88583D02*
X-62556D01*
X-64056Y87083D02*
Y90083D01*
X-55556Y88583D02*
X-52556D01*
X-54056Y87083D02*
Y90083D01*
X3500Y88583D02*
X6500D01*
X5000Y87083D02*
Y90083D01*
X-6500Y88583D02*
X-3500D01*
X-5000Y87083D02*
Y90083D01*
X52555Y88583D02*
X55555D01*
X54055Y87083D02*
Y90083D01*
X62555Y88583D02*
X65555D01*
X64055Y87083D02*
Y90083D01*
X121610Y88583D02*
X124610D01*
X123110Y87083D02*
Y90083D01*
X111610Y88583D02*
X114610D01*
X113110Y87083D02*
Y90083D01*
X170665Y88583D02*
X173665D01*
X172165Y87083D02*
Y90083D01*
X180665Y88583D02*
X183665D01*
X182165Y87083D02*
Y90083D01*
X239720Y88583D02*
X242720D01*
X241220Y87083D02*
Y90083D01*
X229720Y88583D02*
X232720D01*
X231220Y87083D02*
Y90083D01*
X288775Y88583D02*
X291775D01*
X290275Y87083D02*
Y90083D01*
X298775Y88583D02*
X301775D01*
X300275Y87083D02*
Y90083D01*
X-291776Y29528D02*
X-288776D01*
X-290276Y28028D02*
Y31028D01*
X-301776Y29528D02*
X-298776D01*
X-300276Y28028D02*
Y31028D01*
X-242721Y29528D02*
X-239721D01*
X-241221Y28028D02*
Y31028D01*
X-232721Y29528D02*
X-229721D01*
X-231221Y28028D02*
Y31028D01*
X-173666Y29528D02*
X-170666D01*
X-172166Y28028D02*
Y31028D01*
X-183666Y29528D02*
X-180666D01*
X-182166Y28028D02*
Y31028D01*
X-124611Y29528D02*
X-121611D01*
X-123111Y28028D02*
Y31028D01*
X-114611Y29528D02*
X-111611D01*
X-113111Y28028D02*
Y31028D01*
X-55556Y29528D02*
X-52556D01*
X-54056Y28028D02*
Y31028D01*
X-65556Y29528D02*
X-62556D01*
X-64056Y28028D02*
Y31028D01*
X-6500Y29528D02*
X-3500D01*
X-5000Y28028D02*
Y31028D01*
X3500Y29528D02*
X6500D01*
X5000Y28028D02*
Y31028D01*
X62555Y29528D02*
X65555D01*
X64055Y28028D02*
Y31028D01*
X52555Y29528D02*
X55555D01*
X54055Y28028D02*
Y31028D01*
X111610Y29528D02*
X114610D01*
X113110Y28028D02*
Y31028D01*
X121610Y29528D02*
X124610D01*
X123110Y28028D02*
Y31028D01*
X180665Y29528D02*
X183665D01*
X182165Y28028D02*
Y31028D01*
X170665Y29528D02*
X173665D01*
X172165Y28028D02*
Y31028D01*
X229720Y29528D02*
X232720D01*
X231220Y28028D02*
Y31028D01*
X239720Y29528D02*
X242720D01*
X241220Y28028D02*
Y31028D01*
X298775Y29528D02*
X301775D01*
X300275Y28028D02*
Y31028D01*
X288775Y29528D02*
X291775D01*
X290275Y28028D02*
Y31028D01*
X-301776Y-29528D02*
X-298776D01*
X-300276Y-31028D02*
Y-28028D01*
X-291776Y-29528D02*
X-288776D01*
X-290276Y-31028D02*
Y-28028D01*
X-232721Y-29528D02*
X-229721D01*
X-231221Y-31028D02*
Y-28028D01*
X-242721Y-29528D02*
X-239721D01*
X-241221Y-31028D02*
Y-28028D01*
X-183666Y-29528D02*
X-180666D01*
X-182166Y-31028D02*
Y-28028D01*
X-173666Y-29528D02*
X-170666D01*
X-172166Y-31028D02*
Y-28028D01*
X-114611Y-29528D02*
X-111611D01*
X-113111Y-31028D02*
Y-28028D01*
X-124611Y-29528D02*
X-121611D01*
X-123111Y-31028D02*
Y-28028D01*
X-65556Y-29528D02*
X-62556D01*
X-64056Y-31028D02*
Y-28028D01*
X-55556Y-29528D02*
X-52556D01*
X-54056Y-31028D02*
Y-28028D01*
X3500Y-29528D02*
X6500D01*
X5000Y-31028D02*
Y-28028D01*
X-6500Y-29528D02*
X-3500D01*
X-5000Y-31028D02*
Y-28028D01*
X52555Y-29528D02*
X55555D01*
X54055Y-31028D02*
Y-28028D01*
X62555Y-29528D02*
X65555D01*
X64055Y-31028D02*
Y-28028D01*
X121610Y-29528D02*
X124610D01*
X123110Y-31028D02*
Y-28028D01*
X111610Y-29528D02*
X114610D01*
X113110Y-31028D02*
Y-28028D01*
X170665Y-29528D02*
X173665D01*
X172165Y-31028D02*
Y-28028D01*
X180665Y-29528D02*
X183665D01*
X182165Y-31028D02*
Y-28028D01*
X239720Y-29528D02*
X242720D01*
X241220Y-31028D02*
Y-28028D01*
X229720Y-29528D02*
X232720D01*
X231220Y-31028D02*
Y-28028D01*
X288775Y-29528D02*
X291775D01*
X290275Y-31028D02*
Y-28028D01*
X298775Y-29528D02*
X301775D01*
X300275Y-31028D02*
Y-28028D01*
X-291776Y-88583D02*
X-288776D01*
X-290276Y-90083D02*
Y-87083D01*
X-301776Y-88583D02*
X-298776D01*
X-300276Y-90083D02*
Y-87083D01*
X-242721Y-88583D02*
X-239721D01*
X-241221Y-90083D02*
Y-87083D01*
X-232721Y-88583D02*
X-229721D01*
X-231221Y-90083D02*
Y-87083D01*
X-173666Y-88583D02*
X-170666D01*
X-172166Y-90083D02*
Y-87083D01*
X-183666Y-88583D02*
X-180666D01*
X-182166Y-90083D02*
Y-87083D01*
X-124611Y-88583D02*
X-121611D01*
X-123111Y-90083D02*
Y-87083D01*
X-114611Y-88583D02*
X-111611D01*
X-113111Y-90083D02*
Y-87083D01*
X-55556Y-88583D02*
X-52556D01*
X-54056Y-90083D02*
Y-87083D01*
X-65556Y-88583D02*
X-62556D01*
X-64056Y-90083D02*
Y-87083D01*
X-6500Y-88583D02*
X-3500D01*
X-5000Y-90083D02*
Y-87083D01*
X3500Y-88583D02*
X6500D01*
X5000Y-90083D02*
Y-87083D01*
X62555Y-88583D02*
X65555D01*
X64055Y-90083D02*
Y-87083D01*
X52555Y-88583D02*
X55555D01*
X54055Y-90083D02*
Y-87083D01*
X111610Y-88583D02*
X114610D01*
X113110Y-90083D02*
Y-87083D01*
X121610Y-88583D02*
X124610D01*
X123110Y-90083D02*
Y-87083D01*
X180665Y-88583D02*
X183665D01*
X182165Y-90083D02*
Y-87083D01*
X170665Y-88583D02*
X173665D01*
X172165Y-90083D02*
Y-87083D01*
X229720Y-88583D02*
X232720D01*
X231220Y-90083D02*
Y-87083D01*
X239720Y-88583D02*
X242720D01*
X241220Y-90083D02*
Y-87083D01*
X298775Y-88583D02*
X301775D01*
X300275Y-90083D02*
Y-87083D01*
X288775Y-88583D02*
X291775D01*
X290275Y-90083D02*
Y-87083D01*
X-301776Y-147638D02*
X-298776D01*
X-300276Y-149138D02*
Y-146138D01*
X-291776Y-147638D02*
X-288776D01*
X-290276Y-149138D02*
Y-146138D01*
X-232721Y-147638D02*
X-229721D01*
X-231221Y-149138D02*
Y-146138D01*
X-242721Y-147638D02*
X-239721D01*
X-241221Y-149138D02*
Y-146138D01*
X-183666Y-147638D02*
X-180666D01*
X-182166Y-149138D02*
Y-146138D01*
X-173666Y-147638D02*
X-170666D01*
X-172166Y-149138D02*
Y-146138D01*
X-114611Y-147638D02*
X-111611D01*
X-113111Y-149138D02*
Y-146138D01*
X-124611Y-147638D02*
X-121611D01*
X-123111Y-149138D02*
Y-146138D01*
X-65556Y-147638D02*
X-62556D01*
X-64056Y-149138D02*
Y-146138D01*
X-55556Y-147638D02*
X-52556D01*
X-54056Y-149138D02*
Y-146138D01*
X3500Y-147638D02*
X6500D01*
X5000Y-149138D02*
Y-146138D01*
X-6500Y-147638D02*
X-3500D01*
X-5000Y-149138D02*
Y-146138D01*
X52555Y-147638D02*
X55555D01*
X54055Y-149138D02*
Y-146138D01*
X62555Y-147638D02*
X65555D01*
X64055Y-149138D02*
Y-146138D01*
X121610Y-147638D02*
X124610D01*
X123110Y-149138D02*
Y-146138D01*
X111610Y-147638D02*
X114610D01*
X113110Y-149138D02*
Y-146138D01*
X170665Y-147638D02*
X173665D01*
X172165Y-149138D02*
Y-146138D01*
X180665Y-147638D02*
X183665D01*
X182165Y-149138D02*
Y-146138D01*
X239720Y-147638D02*
X242720D01*
X241220Y-149138D02*
Y-146138D01*
X229720Y-147638D02*
X232720D01*
X231220Y-149138D02*
Y-146138D01*
X288775Y-147638D02*
X291775D01*
X290275Y-149138D02*
Y-146138D01*
X298775Y-147638D02*
X301775D01*
X300275Y-149138D02*
Y-146138D01*
X-291776Y-206693D02*
X-288776D01*
X-290276Y-208193D02*
Y-205193D01*
X-301776Y-206693D02*
X-298776D01*
X-300276Y-208193D02*
Y-205193D01*
X-242721Y-206693D02*
X-239721D01*
X-241221Y-208193D02*
Y-205193D01*
X-232721Y-206693D02*
X-229721D01*
X-231221Y-208193D02*
Y-205193D01*
X-173666Y-206693D02*
X-170666D01*
X-172166Y-208193D02*
Y-205193D01*
X-183666Y-206693D02*
X-180666D01*
X-182166Y-208193D02*
Y-205193D01*
X-124611Y-206693D02*
X-121611D01*
X-123111Y-208193D02*
Y-205193D01*
X-114611Y-206693D02*
X-111611D01*
X-113111Y-208193D02*
Y-205193D01*
X-55556Y-206693D02*
X-52556D01*
X-54056Y-208193D02*
Y-205193D01*
X-65556Y-206693D02*
X-62556D01*
X-64056Y-208193D02*
Y-205193D01*
X-6500Y-206693D02*
X-3500D01*
X-5000Y-208193D02*
Y-205193D01*
X3500Y-206693D02*
X6500D01*
X5000Y-208193D02*
Y-205193D01*
X62555Y-206693D02*
X65555D01*
X64055Y-208193D02*
Y-205193D01*
X52555Y-206693D02*
X55555D01*
X54055Y-208193D02*
Y-205193D01*
X111610Y-206693D02*
X114610D01*
X113110Y-208193D02*
Y-205193D01*
X121610Y-206693D02*
X124610D01*
X123110Y-208193D02*
Y-205193D01*
X180665Y-206693D02*
X183665D01*
X182165Y-208193D02*
Y-205193D01*
X170665Y-206693D02*
X173665D01*
X172165Y-208193D02*
Y-205193D01*
X229720Y-206693D02*
X232720D01*
X231220Y-208193D02*
Y-205193D01*
X239720Y-206693D02*
X242720D01*
X241220Y-208193D02*
Y-205193D01*
X298775Y-206693D02*
X301775D01*
X300275Y-208193D02*
Y-205193D01*
X288775Y-206693D02*
X291775D01*
X290275Y-208193D02*
Y-205193D01*
X-301776Y-265748D02*
X-298776D01*
X-300276Y-267248D02*
Y-264248D01*
X-291776Y-265748D02*
X-288776D01*
X-290276Y-267248D02*
Y-264248D01*
X-232721Y-265748D02*
X-229721D01*
X-231221Y-267248D02*
Y-264248D01*
X-242721Y-265748D02*
X-239721D01*
X-241221Y-267248D02*
Y-264248D01*
X-183666Y-265748D02*
X-180666D01*
X-182166Y-267248D02*
Y-264248D01*
X-173666Y-265748D02*
X-170666D01*
X-172166Y-267248D02*
Y-264248D01*
X-114611Y-265748D02*
X-111611D01*
X-113111Y-267248D02*
Y-264248D01*
X-124611Y-265748D02*
X-121611D01*
X-123111Y-267248D02*
Y-264248D01*
X-65556Y-265748D02*
X-62556D01*
X-64056Y-267248D02*
Y-264248D01*
X-55556Y-265748D02*
X-52556D01*
X-54056Y-267248D02*
Y-264248D01*
X3500Y-265748D02*
X6500D01*
X5000Y-267248D02*
Y-264248D01*
X-6500Y-265748D02*
X-3500D01*
X-5000Y-267248D02*
Y-264248D01*
X52555Y-265748D02*
X55555D01*
X54055Y-267248D02*
Y-264248D01*
X62555Y-265748D02*
X65555D01*
X64055Y-267248D02*
Y-264248D01*
X121610Y-265748D02*
X124610D01*
X123110Y-267248D02*
Y-264248D01*
X111610Y-265748D02*
X114610D01*
X113110Y-267248D02*
Y-264248D01*
X170665Y-265748D02*
X173665D01*
X172165Y-267248D02*
Y-264248D01*
X180665Y-265748D02*
X183665D01*
X182165Y-267248D02*
Y-264248D01*
X239720Y-265748D02*
X242720D01*
X241220Y-267248D02*
Y-264248D01*
X229720Y-265748D02*
X232720D01*
X231220Y-267248D02*
Y-264248D01*
X288775Y-265748D02*
X291775D01*
X290275Y-267248D02*
Y-264248D01*
X298775Y-265748D02*
X301775D01*
X300275Y-267248D02*
Y-264248D01*
X-81693Y-347441D02*
X-77756D01*
X-79724Y-349410D02*
Y-345472D01*
X-56102Y-347441D02*
X-52165D01*
X-54134Y-349410D02*
Y-345472D01*
X-81693Y-329724D02*
X-77756D01*
X-79724Y-331693D02*
Y-327756D01*
X-56102Y-329724D02*
X-52165D01*
X-54134Y-331693D02*
Y-327756D01*
X-132874Y-347441D02*
X-128937D01*
X-130905Y-349410D02*
Y-345472D01*
X-107283Y-347441D02*
X-103347D01*
X-105315Y-349410D02*
Y-345472D01*
X-132874Y-329724D02*
X-128937D01*
X-130905Y-331693D02*
Y-327756D01*
X-107283Y-329724D02*
X-103347D01*
X-105315Y-331693D02*
Y-327756D01*
X-344882Y307087D02*
X-332283D01*
X-338583Y300787D02*
Y313386D01*
X332283Y307087D02*
X344882D01*
X338583Y300787D02*
Y313386D01*
X332283Y-275590D02*
X344882D01*
X338583Y-281890D02*
Y-269291D01*
X-344882Y-275590D02*
X-332283D01*
X-338583Y-281890D02*
Y-269291D01*
X-6299Y307087D02*
X6299D01*
X0Y300787D02*
Y313386D01*
X-344882Y11811D02*
X-332283D01*
X-338583Y5512D02*
Y18110D01*
X332283Y11811D02*
X344882D01*
X338583Y5512D02*
Y18110D01*
X-6299Y-303150D02*
X6299D01*
X0Y-309449D02*
Y-296850D01*
X193035Y-378200D02*
X197365D01*
X195200Y-380365D02*
Y-376035D01*
X203035Y-378200D02*
X207365D01*
X205200Y-380365D02*
Y-376035D01*
X213035Y-378200D02*
X217365D01*
X215200Y-380365D02*
Y-376035D01*
X223035Y-378200D02*
X227365D01*
X225200Y-380365D02*
Y-376035D01*
X233035Y-378200D02*
X237365D01*
X235200Y-380365D02*
Y-376035D01*
X243035Y-378200D02*
X247365D01*
X245200Y-380365D02*
Y-376035D01*
X253035Y-378200D02*
X257365D01*
X255200Y-380365D02*
Y-376035D01*
X263035Y-378200D02*
X267365D01*
X265200Y-380365D02*
Y-376035D01*
X273035Y-378200D02*
X277365D01*
X275200Y-380365D02*
Y-376035D01*
X283035Y-378200D02*
X287365D01*
X285200Y-380365D02*
Y-376035D01*
X293035Y-378200D02*
X297365D01*
X295200Y-380365D02*
Y-376035D01*
X303035Y-378200D02*
X307365D01*
X305200Y-380365D02*
Y-376035D01*
X313035Y-378200D02*
X317365D01*
X315200Y-380365D02*
Y-376035D01*
X323035Y-378200D02*
X327365D01*
X325200Y-380365D02*
Y-376035D01*
X333035Y-378200D02*
X337365D01*
X335200Y-380365D02*
Y-376035D01*
X193035Y-318200D02*
X197365D01*
X195200Y-320365D02*
Y-316035D01*
X203035Y-318200D02*
X207365D01*
X205200Y-320365D02*
Y-316035D01*
X213035Y-318200D02*
X217365D01*
X215200Y-320365D02*
Y-316035D01*
X223035Y-318200D02*
X227365D01*
X225200Y-320365D02*
Y-316035D01*
X243035Y-318200D02*
X247365D01*
X245200Y-320365D02*
Y-316035D01*
X233035Y-318200D02*
X237365D01*
X235200Y-320365D02*
Y-316035D01*
X263035Y-318200D02*
X267365D01*
X265200Y-320365D02*
Y-316035D01*
X253035Y-318200D02*
X257365D01*
X255200Y-320365D02*
Y-316035D01*
X283035Y-318200D02*
X287365D01*
X285200Y-320365D02*
Y-316035D01*
X273035Y-318200D02*
X277365D01*
X275200Y-320365D02*
Y-316035D01*
X303035Y-318200D02*
X307365D01*
X305200Y-320365D02*
Y-316035D01*
X293035Y-318200D02*
X297365D01*
X295200Y-320365D02*
Y-316035D01*
X323035Y-318200D02*
X327365D01*
X325200Y-320365D02*
Y-316035D01*
X313035Y-318200D02*
X317365D01*
X315200Y-320365D02*
Y-316035D01*
X333035Y-318200D02*
X337365D01*
X335200Y-320365D02*
Y-316035D01*
X104800Y-363300D02*
X107600D01*
X106200Y-364700D02*
Y-361900D01*
X255900Y-299700D02*
X258700D01*
X257300Y-301100D02*
Y-298300D01*
X171600Y-373700D02*
X174400D01*
X173000Y-375100D02*
Y-372300D01*
X162600Y-372323D02*
X165400D01*
X164000Y-373723D02*
Y-370923D01*
X133100Y-353500D02*
X135900D01*
X134500Y-354900D02*
Y-352100D01*
X-213577Y-372323D02*
X-210777D01*
X-212177Y-373723D02*
Y-370923D01*
X-330077Y-372323D02*
X-327277D01*
X-328677Y-373723D02*
Y-370923D01*
X-299577Y-364000D02*
X-296777D01*
X-298177Y-365400D02*
Y-362600D01*
X-340077Y-372323D02*
X-337277D01*
X-338677Y-373723D02*
Y-370923D01*
X-236077Y-364000D02*
X-233277D01*
X-234677Y-365400D02*
Y-362600D01*
X197600Y-300000D02*
X200400D01*
X199000Y-301400D02*
Y-298600D01*
X-287711Y-306276D02*
X-284911D01*
X-286311Y-307676D02*
Y-304876D01*
X-228656Y-305760D02*
X-225856D01*
X-227256Y-307160D02*
Y-304360D01*
X-169601Y-306260D02*
X-166801D01*
X-168201Y-307660D02*
Y-304860D01*
X-110546Y-306260D02*
X-107746D01*
X-109146Y-307660D02*
Y-304860D01*
X-51491Y-306260D02*
X-48691D01*
X-50091Y-307660D02*
Y-304860D01*
X66620Y-306260D02*
X69420D01*
X68020Y-307660D02*
Y-304860D01*
X125675Y-305760D02*
X128475D01*
X127075Y-307160D02*
Y-304360D01*
X302840Y-306276D02*
X305640D01*
X304240Y-307676D02*
Y-304876D01*
X19423Y-364000D02*
X22223D01*
X20823Y-365400D02*
Y-362600D01*
X-183077Y-364000D02*
X-180277D01*
X-181677Y-365400D02*
Y-362600D01*
X-208400Y241000D02*
X-205600D01*
X-207000Y239600D02*
Y242400D01*
X-203400Y300500D02*
X-200600D01*
X-202000Y299100D02*
Y301900D01*
X-213435Y182965D02*
X-210635D01*
X-212035Y181565D02*
Y184365D01*
X-20900Y-358000D02*
X-18100D01*
X-19500Y-359400D02*
Y-356600D01*
X29600Y-306000D02*
X32400D01*
X31000Y-307400D02*
Y-304600D01*
X-208400Y-284000D02*
X-205600D01*
X-207000Y-285400D02*
Y-282600D01*
X-203400Y-293500D02*
X-200600D01*
X-202000Y-294900D02*
Y-292100D01*
X-213400Y-293500D02*
X-210600D01*
X-212000Y-294900D02*
Y-292100D01*
X58923Y-372323D02*
X61723D01*
X60323Y-373723D02*
Y-370923D01*
X53900Y-380400D02*
X56700D01*
X55300Y-381800D02*
Y-379000D01*
X-218600Y-380500D02*
X-215800D01*
X-217200Y-381900D02*
Y-379100D01*
X-335100Y-380500D02*
X-332300D01*
X-333700Y-381900D02*
Y-379100D01*
M02*
