G04 Layer_Color=12632256*
%FSLAX25Y25*%
%MOIN*%
G70*
G01*
G75*
%ADD15R,0.06000X0.15000*%
%ADD16O,0.06000X0.15000*%
%ADD17C,0.07500*%
%ADD18C,0.15748*%
%ADD19O,0.07000X0.12000*%
%ADD20R,0.07000X0.12000*%
D15*
X-290276Y265748D02*
D03*
X-231221D02*
D03*
X-172166D02*
D03*
X-113111D02*
D03*
X-54056D02*
D03*
X5000D02*
D03*
X64055D02*
D03*
X123110D02*
D03*
X182165D02*
D03*
X241220D02*
D03*
X300275D02*
D03*
X-290276Y206693D02*
D03*
X-231221Y206693D02*
D03*
X-172166Y206693D02*
D03*
X-113111D02*
D03*
X-54056D02*
D03*
X5000D02*
D03*
X64055D02*
D03*
X123110D02*
D03*
X182165D02*
D03*
X241220D02*
D03*
X300275D02*
D03*
X-290276Y147638D02*
D03*
X-231221D02*
D03*
X-172166D02*
D03*
X-113111D02*
D03*
X-54056D02*
D03*
X5000D02*
D03*
X64055D02*
D03*
X123110D02*
D03*
X182165D02*
D03*
X241220D02*
D03*
X300275D02*
D03*
X-290276Y88583D02*
D03*
X-231221D02*
D03*
X-172166D02*
D03*
X-113111D02*
D03*
X-54056D02*
D03*
X5000D02*
D03*
X64055D02*
D03*
X123110D02*
D03*
X182165D02*
D03*
X241220D02*
D03*
X300275D02*
D03*
X-290276Y29528D02*
D03*
X-231221D02*
D03*
X-172166D02*
D03*
X-113111D02*
D03*
X-54056D02*
D03*
X5000D02*
D03*
X64055D02*
D03*
X123110D02*
D03*
X182165D02*
D03*
X241220D02*
D03*
X300275D02*
D03*
X-290276Y-29528D02*
D03*
X-231221D02*
D03*
X-172166D02*
D03*
X-113111D02*
D03*
X-54056D02*
D03*
X5000D02*
D03*
X64055D02*
D03*
X123110D02*
D03*
X182165D02*
D03*
X241220D02*
D03*
X300275D02*
D03*
X-290276Y-88583D02*
D03*
X-231221D02*
D03*
X-172166D02*
D03*
X-113111D02*
D03*
X-54056D02*
D03*
X5000D02*
D03*
X64055D02*
D03*
X123110D02*
D03*
X182165D02*
D03*
X241220D02*
D03*
X300275D02*
D03*
X-290276Y-147638D02*
D03*
X-231221D02*
D03*
X-172166D02*
D03*
X-113111D02*
D03*
X-54056D02*
D03*
X5000D02*
D03*
X64055D02*
D03*
X123110D02*
D03*
X182165D02*
D03*
X241220D02*
D03*
X300275D02*
D03*
X-290276Y-206693D02*
D03*
X-231221D02*
D03*
X-172166D02*
D03*
X-113111D02*
D03*
X-54056D02*
D03*
X5000D02*
D03*
X64055D02*
D03*
X123110D02*
D03*
X182165D02*
D03*
X241220D02*
D03*
X300275D02*
D03*
X-290276Y-265748D02*
D03*
X-231221D02*
D03*
X-172166D02*
D03*
X-113111D02*
D03*
X-54056D02*
D03*
X5000D02*
D03*
X64055D02*
D03*
X123110D02*
D03*
X182165D02*
D03*
X241220D02*
D03*
X300275D02*
D03*
D16*
X-300276Y265748D02*
D03*
X-241221D02*
D03*
X-182166D02*
D03*
X-123111D02*
D03*
X-64056D02*
D03*
X-5000D02*
D03*
X54055D02*
D03*
X113110D02*
D03*
X172165D02*
D03*
X231220D02*
D03*
X290275D02*
D03*
X-300276Y206693D02*
D03*
X-241221Y206693D02*
D03*
X-182166Y206693D02*
D03*
X-123111D02*
D03*
X-64056D02*
D03*
X-5000D02*
D03*
X54055D02*
D03*
X113110D02*
D03*
X172165D02*
D03*
X231220D02*
D03*
X290275D02*
D03*
X-300276Y147638D02*
D03*
X-241221D02*
D03*
X-182166D02*
D03*
X-123111D02*
D03*
X-64056D02*
D03*
X-5000D02*
D03*
X54055D02*
D03*
X113110D02*
D03*
X172165D02*
D03*
X231220D02*
D03*
X290275D02*
D03*
X-300276Y88583D02*
D03*
X-241221D02*
D03*
X-182166D02*
D03*
X-123111D02*
D03*
X-64056D02*
D03*
X-5000D02*
D03*
X54055D02*
D03*
X113110D02*
D03*
X172165D02*
D03*
X231220D02*
D03*
X290275D02*
D03*
X-300276Y29528D02*
D03*
X-241221D02*
D03*
X-182166D02*
D03*
X-123111D02*
D03*
X-64056D02*
D03*
X-5000D02*
D03*
X54055D02*
D03*
X113110D02*
D03*
X172165D02*
D03*
X231220D02*
D03*
X290275D02*
D03*
X-300276Y-29528D02*
D03*
X-241221D02*
D03*
X-182166D02*
D03*
X-123111D02*
D03*
X-64056D02*
D03*
X-5000D02*
D03*
X54055D02*
D03*
X113110D02*
D03*
X172165D02*
D03*
X231220D02*
D03*
X290275D02*
D03*
X-300276Y-88583D02*
D03*
X-241221D02*
D03*
X-182166D02*
D03*
X-123111D02*
D03*
X-64056D02*
D03*
X-5000D02*
D03*
X54055D02*
D03*
X113110D02*
D03*
X172165D02*
D03*
X231220D02*
D03*
X290275D02*
D03*
X-300276Y-147638D02*
D03*
X-241221D02*
D03*
X-182166D02*
D03*
X-123111D02*
D03*
X-64056D02*
D03*
X-5000D02*
D03*
X54055D02*
D03*
X113110D02*
D03*
X172165D02*
D03*
X231220D02*
D03*
X290275D02*
D03*
X-300276Y-206693D02*
D03*
X-241221D02*
D03*
X-182166D02*
D03*
X-123111D02*
D03*
X-64056D02*
D03*
X-5000D02*
D03*
X54055D02*
D03*
X113110D02*
D03*
X172165D02*
D03*
X231220D02*
D03*
X290275D02*
D03*
X-300276Y-265748D02*
D03*
X-241221D02*
D03*
X-182166D02*
D03*
X-123111D02*
D03*
X-64056D02*
D03*
X-5000D02*
D03*
X54055D02*
D03*
X113110D02*
D03*
X172165D02*
D03*
X231220D02*
D03*
X290275D02*
D03*
D17*
X-79724Y-347441D02*
D03*
X-54134D02*
D03*
X-79724Y-329724D02*
D03*
X-54134D02*
D03*
X-130905Y-347441D02*
D03*
X-105315D02*
D03*
X-130905Y-329724D02*
D03*
X-105315D02*
D03*
D18*
X-338583Y307087D02*
D03*
X338583D02*
D03*
Y-275590D02*
D03*
X-338583D02*
D03*
X0Y307087D02*
D03*
X-338583Y11811D02*
D03*
X338583D02*
D03*
X0Y-303150D02*
D03*
D19*
X195200Y-378200D02*
D03*
X205200D02*
D03*
X215200D02*
D03*
X225200D02*
D03*
X235200D02*
D03*
X245200D02*
D03*
X255200D02*
D03*
X265200D02*
D03*
X275200D02*
D03*
X285200D02*
D03*
X295200D02*
D03*
X305200D02*
D03*
X315200D02*
D03*
X325200D02*
D03*
X335200D02*
D03*
X205200Y-318200D02*
D03*
X215200D02*
D03*
X225200D02*
D03*
X245200D02*
D03*
X235200D02*
D03*
X265200D02*
D03*
X255200D02*
D03*
X285200D02*
D03*
X275200D02*
D03*
X305200D02*
D03*
X295200D02*
D03*
X325200D02*
D03*
X315200D02*
D03*
X335200D02*
D03*
D20*
X195200D02*
D03*
M02*
