G04 Layer_Color=65535*
%FSLAX25Y25*%
%MOIN*%
G70*
G01*
G75*
%ADD22C,0.00984*%
%ADD23C,0.00787*%
%ADD24C,0.01000*%
D22*
X-304642Y-343854D02*
G03*
X-304642Y-343854I-492J0D01*
G01*
X84358D02*
G03*
X84358Y-343854I-492J0D01*
G01*
X-188142D02*
G03*
X-188142Y-343854I-492J0D01*
G01*
X-292906Y-290158D02*
G03*
X-292906Y-290158I-492J0D01*
G01*
X24705Y-290158D02*
G03*
X24705Y-290158I-492J0D01*
G01*
X-233851Y-290158D02*
G03*
X-233851Y-290158I-492J0D01*
G01*
X-174795D02*
G03*
X-174795Y-290158I-492J0D01*
G01*
X-115740D02*
G03*
X-115740Y-290158I-492J0D01*
G01*
X-56685D02*
G03*
X-56685Y-290158I-492J0D01*
G01*
X61425D02*
G03*
X61425Y-290158I-492J0D01*
G01*
X120480D02*
G03*
X120480Y-290158I-492J0D01*
G01*
X179535D02*
G03*
X179535Y-290158I-492J0D01*
G01*
X238591D02*
G03*
X238591Y-290158I-492J0D01*
G01*
X297646Y-289685D02*
G03*
X297646Y-289685I-492J0D01*
G01*
D23*
X-345862Y-356650D02*
Y-350350D01*
X-306492Y-356650D02*
Y-350350D01*
X-345862Y-356650D02*
X-306492D01*
X-345862Y-350350D02*
X-306492D01*
X43138Y-356650D02*
Y-350350D01*
X82508Y-356650D02*
Y-350350D01*
X43138Y-356650D02*
X82508D01*
X43138Y-350350D02*
X82508D01*
X-229362D02*
X-189992D01*
X-229362Y-356650D02*
X-189992D01*
Y-350350D01*
X-229362Y-356650D02*
Y-350350D01*
X-287296Y-292717D02*
X-284146D01*
Y-296654D02*
Y-292717D01*
X-295957D02*
X-292807D01*
X-295957Y-296654D02*
Y-292717D01*
X30315Y-292717D02*
X33465D01*
Y-296654D02*
Y-292717D01*
X21654D02*
X24803D01*
X21654Y-296654D02*
Y-292717D01*
X-228240Y-292717D02*
X-225091D01*
Y-296654D02*
Y-292717D01*
X-236902D02*
X-233752D01*
X-236902Y-296654D02*
Y-292717D01*
X-169185D02*
X-166036D01*
Y-296654D02*
Y-292717D01*
X-177847D02*
X-174697D01*
X-177847Y-296654D02*
Y-292717D01*
X-110130D02*
X-106981D01*
Y-296654D02*
Y-292717D01*
X-118792D02*
X-115642D01*
X-118792Y-296654D02*
Y-292717D01*
X-51075D02*
X-47925D01*
Y-296654D02*
Y-292717D01*
X-59736D02*
X-56587D01*
X-59736Y-296654D02*
Y-292717D01*
X67035D02*
X70185D01*
Y-296654D02*
Y-292717D01*
X58374D02*
X61523D01*
X58374Y-296654D02*
Y-292717D01*
X126091D02*
X129240D01*
Y-296654D02*
Y-292717D01*
X117429D02*
X120579D01*
X117429Y-296654D02*
Y-292717D01*
X185146D02*
X188295D01*
Y-296654D02*
Y-292717D01*
X176484D02*
X179634D01*
X176484Y-296654D02*
Y-292717D01*
X244201D02*
X247350D01*
Y-296654D02*
Y-292717D01*
X235539D02*
X238689D01*
X235539Y-296654D02*
Y-292717D01*
X303256Y-292244D02*
X306405D01*
Y-296181D02*
Y-292244D01*
X294595D02*
X297744D01*
X294595Y-296181D02*
Y-292244D01*
D24*
X-304182Y-245390D02*
Y-240665D01*
Y-245390D02*
X-296308D01*
Y-240665D01*
Y-232004D02*
Y-227279D01*
X-304182D02*
X-296308D01*
X-304182Y-232398D02*
Y-227279D01*
Y-186390D02*
Y-181665D01*
Y-186390D02*
X-296308D01*
Y-181665D01*
Y-173004D02*
Y-168280D01*
X-304182D02*
X-296308D01*
X-304182Y-173398D02*
Y-168280D01*
Y-127390D02*
Y-122665D01*
Y-127390D02*
X-296308D01*
Y-122665D01*
Y-114004D02*
Y-109280D01*
X-304182D02*
X-296308D01*
X-304182Y-114398D02*
Y-109280D01*
Y-68390D02*
Y-63665D01*
Y-68390D02*
X-296308D01*
Y-63665D01*
Y-55004D02*
Y-50279D01*
X-304182D02*
X-296308D01*
X-304182Y-55398D02*
Y-50279D01*
Y-8890D02*
Y-4165D01*
Y-8890D02*
X-296308D01*
Y-4165D01*
Y4496D02*
Y9221D01*
X-304182D02*
X-296308D01*
X-304182Y4102D02*
Y9221D01*
Y49610D02*
Y54335D01*
Y49610D02*
X-296308D01*
Y54335D01*
Y62996D02*
Y67721D01*
X-304182D02*
X-296308D01*
X-304182Y62602D02*
Y67721D01*
Y108610D02*
Y113335D01*
Y108610D02*
X-296308D01*
Y113335D01*
Y121996D02*
Y126720D01*
X-304182D02*
X-296308D01*
X-304182Y121602D02*
Y126720D01*
Y167610D02*
Y172335D01*
Y167610D02*
X-296308D01*
Y172335D01*
Y180996D02*
Y185721D01*
X-304182D02*
X-296308D01*
X-304182Y180602D02*
Y185721D01*
Y226610D02*
Y231335D01*
Y226610D02*
X-296308D01*
Y231335D01*
Y239996D02*
Y244721D01*
X-304182D02*
X-296308D01*
X-304182Y239602D02*
Y244721D01*
Y285610D02*
Y290335D01*
Y285610D02*
X-296308D01*
Y290335D01*
Y298996D02*
Y303720D01*
X-304182D02*
X-296308D01*
X-304182Y298602D02*
Y303720D01*
X-291584Y-284936D02*
Y-280938D01*
X-292584Y-279938D01*
X-294583D01*
X-295583Y-280938D01*
Y-284936D01*
X-294583Y-285936D01*
X-292584D01*
X-293584Y-283937D02*
X-291584Y-285936D01*
X-292584D02*
X-291584Y-284936D01*
X-289585Y-285936D02*
X-287586D01*
X-288585D01*
Y-279938D01*
X-289585Y-280938D01*
X26050Y-284937D02*
Y-280938D01*
X25051Y-279938D01*
X23051D01*
X22052Y-280938D01*
Y-284937D01*
X23051Y-285936D01*
X25051D01*
X24051Y-283937D02*
X26050Y-285936D01*
X25051D02*
X26050Y-284937D01*
X32048Y-279938D02*
X30049Y-280938D01*
X28050Y-282937D01*
Y-284937D01*
X29049Y-285936D01*
X31049D01*
X32048Y-284937D01*
Y-283937D01*
X31049Y-282937D01*
X28050D01*
X-230502Y-327738D02*
Y-332736D01*
X-229503Y-333736D01*
X-227503D01*
X-226504Y-332736D01*
Y-327738D01*
X-220506Y-333736D02*
X-224504D01*
X-220506Y-329737D01*
Y-328738D01*
X-221505Y-327738D01*
X-223505D01*
X-224504Y-328738D01*
X299016Y-284461D02*
Y-280462D01*
X298016Y-279463D01*
X296017D01*
X295017Y-280462D01*
Y-284461D01*
X296017Y-285461D01*
X298016D01*
X297016Y-283461D02*
X299016Y-285461D01*
X298016D02*
X299016Y-284461D01*
X301015Y-285461D02*
X303014D01*
X302015D01*
Y-279463D01*
X301015Y-280462D01*
X306013Y-285461D02*
X308013D01*
X307013D01*
Y-279463D01*
X306013Y-280462D01*
X239916Y-284936D02*
Y-280938D01*
X238916Y-279938D01*
X236917D01*
X235917Y-280938D01*
Y-284936D01*
X236917Y-285936D01*
X238916D01*
X237916Y-283937D02*
X239916Y-285936D01*
X238916D02*
X239916Y-284936D01*
X241915Y-285936D02*
X243914D01*
X242915D01*
Y-279938D01*
X241915Y-280938D01*
X246913D02*
X247913Y-279938D01*
X249912D01*
X250912Y-280938D01*
Y-284936D01*
X249912Y-285936D01*
X247913D01*
X246913Y-284936D01*
Y-280938D01*
X180916Y-284936D02*
Y-280938D01*
X179916Y-279938D01*
X177917D01*
X176917Y-280938D01*
Y-284936D01*
X177917Y-285936D01*
X179916D01*
X178916Y-283937D02*
X180916Y-285936D01*
X179916D02*
X180916Y-284936D01*
X182915D02*
X183915Y-285936D01*
X185914D01*
X186914Y-284936D01*
Y-280938D01*
X185914Y-279938D01*
X183915D01*
X182915Y-280938D01*
Y-281938D01*
X183915Y-282937D01*
X186914D01*
X121816Y-284936D02*
Y-280938D01*
X120816Y-279938D01*
X118817D01*
X117817Y-280938D01*
Y-284936D01*
X118817Y-285936D01*
X120816D01*
X119816Y-283937D02*
X121816Y-285936D01*
X120816D02*
X121816Y-284936D01*
X123815Y-280938D02*
X124815Y-279938D01*
X126814D01*
X127814Y-280938D01*
Y-281938D01*
X126814Y-282937D01*
X127814Y-283937D01*
Y-284936D01*
X126814Y-285936D01*
X124815D01*
X123815Y-284936D01*
Y-283937D01*
X124815Y-282937D01*
X123815Y-281938D01*
Y-280938D01*
X124815Y-282937D02*
X126814D01*
X62816Y-284936D02*
Y-280938D01*
X61816Y-279938D01*
X59816D01*
X58817Y-280938D01*
Y-284936D01*
X59816Y-285936D01*
X61816D01*
X60816Y-283937D02*
X62816Y-285936D01*
X61816D02*
X62816Y-284936D01*
X64815Y-279938D02*
X68814D01*
Y-280938D01*
X64815Y-284936D01*
Y-285936D01*
X-55284Y-284936D02*
Y-280938D01*
X-56284Y-279938D01*
X-58284D01*
X-59283Y-280938D01*
Y-284936D01*
X-58284Y-285936D01*
X-56284D01*
X-57284Y-283937D02*
X-55284Y-285936D01*
X-56284D02*
X-55284Y-284936D01*
X-49286Y-279938D02*
X-53285D01*
Y-282937D01*
X-51286Y-281938D01*
X-50286D01*
X-49286Y-282937D01*
Y-284936D01*
X-50286Y-285936D01*
X-52285D01*
X-53285Y-284936D01*
X-114384D02*
Y-280938D01*
X-115384Y-279938D01*
X-117383D01*
X-118383Y-280938D01*
Y-284936D01*
X-117383Y-285936D01*
X-115384D01*
X-116384Y-283937D02*
X-114384Y-285936D01*
X-115384D02*
X-114384Y-284936D01*
X-109386Y-285936D02*
Y-279938D01*
X-112385Y-282937D01*
X-108386D01*
X-173484Y-284936D02*
Y-280938D01*
X-174484Y-279938D01*
X-176483D01*
X-177483Y-280938D01*
Y-284936D01*
X-176483Y-285936D01*
X-174484D01*
X-175484Y-283937D02*
X-173484Y-285936D01*
X-174484D02*
X-173484Y-284936D01*
X-171485Y-280938D02*
X-170485Y-279938D01*
X-168486D01*
X-167486Y-280938D01*
Y-281938D01*
X-168486Y-282937D01*
X-169486D01*
X-168486D01*
X-167486Y-283937D01*
Y-284936D01*
X-168486Y-285936D01*
X-170485D01*
X-171485Y-284936D01*
X-232484D02*
Y-280938D01*
X-233484Y-279938D01*
X-235483D01*
X-236483Y-280938D01*
Y-284936D01*
X-235483Y-285936D01*
X-233484D01*
X-234484Y-283937D02*
X-232484Y-285936D01*
X-233484D02*
X-232484Y-284936D01*
X-226486Y-285936D02*
X-230485D01*
X-226486Y-281938D01*
Y-280938D01*
X-227486Y-279938D01*
X-229485D01*
X-230485Y-280938D01*
X-319450Y-239484D02*
Y-233486D01*
X-316451D01*
X-315452Y-234486D01*
Y-236485D01*
X-316451Y-237485D01*
X-319450D01*
X-317451D02*
X-315452Y-239484D01*
X-313452D02*
X-311453D01*
X-312453D01*
Y-233486D01*
X-313452Y-234486D01*
X-308454D02*
X-307454Y-233486D01*
X-305455D01*
X-304455Y-234486D01*
Y-238485D01*
X-305455Y-239484D01*
X-307454D01*
X-308454Y-238485D01*
Y-234486D01*
X-319450Y-180484D02*
Y-174486D01*
X-316451D01*
X-315452Y-175486D01*
Y-177485D01*
X-316451Y-178485D01*
X-319450D01*
X-317451D02*
X-315452Y-180484D01*
X-313452Y-179485D02*
X-312453Y-180484D01*
X-310453D01*
X-309454Y-179485D01*
Y-175486D01*
X-310453Y-174486D01*
X-312453D01*
X-313452Y-175486D01*
Y-176486D01*
X-312453Y-177485D01*
X-309454D01*
X-319450Y-121484D02*
Y-115486D01*
X-316451D01*
X-315452Y-116486D01*
Y-118485D01*
X-316451Y-119485D01*
X-319450D01*
X-317451D02*
X-315452Y-121484D01*
X-313452Y-116486D02*
X-312453Y-115486D01*
X-310453D01*
X-309454Y-116486D01*
Y-117485D01*
X-310453Y-118485D01*
X-309454Y-119485D01*
Y-120485D01*
X-310453Y-121484D01*
X-312453D01*
X-313452Y-120485D01*
Y-119485D01*
X-312453Y-118485D01*
X-313452Y-117485D01*
Y-116486D01*
X-312453Y-118485D02*
X-310453D01*
X-319450Y-62484D02*
Y-56486D01*
X-316451D01*
X-315452Y-57486D01*
Y-59485D01*
X-316451Y-60485D01*
X-319450D01*
X-317451D02*
X-315452Y-62484D01*
X-313452Y-56486D02*
X-309454D01*
Y-57486D01*
X-313452Y-61485D01*
Y-62484D01*
X-319450Y-2984D02*
Y3014D01*
X-316451D01*
X-315452Y2014D01*
Y15D01*
X-316451Y-985D01*
X-319450D01*
X-317451D02*
X-315452Y-2984D01*
X-309454Y3014D02*
X-311453Y2014D01*
X-313452Y15D01*
Y-1985D01*
X-312453Y-2984D01*
X-310453D01*
X-309454Y-1985D01*
Y-985D01*
X-310453Y15D01*
X-313452D01*
X-319450Y55516D02*
Y61514D01*
X-316451D01*
X-315452Y60514D01*
Y58515D01*
X-316451Y57515D01*
X-319450D01*
X-317451D02*
X-315452Y55516D01*
X-309454Y61514D02*
X-313452D01*
Y58515D01*
X-311453Y59514D01*
X-310453D01*
X-309454Y58515D01*
Y56515D01*
X-310453Y55516D01*
X-312453D01*
X-313452Y56515D01*
X-319450Y114516D02*
Y120514D01*
X-316451D01*
X-315452Y119514D01*
Y117515D01*
X-316451Y116515D01*
X-319450D01*
X-317451D02*
X-315452Y114516D01*
X-310453D02*
Y120514D01*
X-313452Y117515D01*
X-309454D01*
X-319450Y173516D02*
Y179514D01*
X-316451D01*
X-315452Y178514D01*
Y176515D01*
X-316451Y175515D01*
X-319450D01*
X-317451D02*
X-315452Y173516D01*
X-313452Y178514D02*
X-312453Y179514D01*
X-310453D01*
X-309454Y178514D01*
Y177515D01*
X-310453Y176515D01*
X-311453D01*
X-310453D01*
X-309454Y175515D01*
Y174515D01*
X-310453Y173516D01*
X-312453D01*
X-313452Y174515D01*
X-319450Y232516D02*
Y238514D01*
X-316451D01*
X-315452Y237514D01*
Y235515D01*
X-316451Y234515D01*
X-319450D01*
X-317451D02*
X-315452Y232516D01*
X-309454D02*
X-313452D01*
X-309454Y236514D01*
Y237514D01*
X-310453Y238514D01*
X-312453D01*
X-313452Y237514D01*
X-319450Y291516D02*
Y297514D01*
X-316451D01*
X-315452Y296514D01*
Y294515D01*
X-316451Y293515D01*
X-319450D01*
X-317451D02*
X-315452Y291516D01*
X-313452D02*
X-311453D01*
X-312453D01*
Y297514D01*
X-313452Y296514D01*
X-82831Y-322536D02*
Y-316538D01*
X-79832D01*
X-78833Y-317538D01*
Y-319537D01*
X-79832Y-320537D01*
X-82831D01*
X-76833Y-317538D02*
X-75833Y-316538D01*
X-73834D01*
X-72834Y-317538D01*
Y-318537D01*
X-73834Y-319537D01*
X-74834D01*
X-73834D01*
X-72834Y-320537D01*
Y-321536D01*
X-73834Y-322536D01*
X-75833D01*
X-76833Y-321536D01*
X41998Y-327738D02*
Y-332736D01*
X42997Y-333736D01*
X44997D01*
X45996Y-332736D01*
Y-327738D01*
X47996Y-333736D02*
X49995D01*
X48995D01*
Y-327738D01*
X47996Y-328738D01*
X-347002Y-327738D02*
Y-332736D01*
X-346003Y-333736D01*
X-344003D01*
X-343004Y-332736D01*
Y-327738D01*
X-341004Y-328738D02*
X-340005Y-327738D01*
X-338005D01*
X-337006Y-328738D01*
Y-329737D01*
X-338005Y-330737D01*
X-339005D01*
X-338005D01*
X-337006Y-331737D01*
Y-332736D01*
X-338005Y-333736D01*
X-340005D01*
X-341004Y-332736D01*
X-134031Y-322536D02*
Y-316538D01*
X-131032D01*
X-130033Y-317538D01*
Y-319537D01*
X-131032Y-320537D01*
X-134031D01*
X-124035Y-322536D02*
X-128033D01*
X-124035Y-318537D01*
Y-317538D01*
X-125034Y-316538D01*
X-127033D01*
X-128033Y-317538D01*
M02*
