M48
;Layer_Color=9474304
;FILE_FORMAT=2:5
INCH,LZ
;TYPE=PLATED
T1F00S00C0.02800
T2F00S00C0.03000
T3F00S00C0.03937
T4F00S00C0.04331
T5F00S00C0.12598
%
T01
X02573Y-02997
X030424Y-0306276
X0199Y-03
X0127075Y-030576
X01345Y-03535
X01062Y-03633
X0164Y-0372323
X0173Y-03737
X0060323Y-0372323
X00553Y-03804
X0020823Y-0364
X-00195Y-0358
X-0050091Y-030626
X0031Y-0306
X006802Y-030626
X-0109146
X-0168201
X-0202Y-02935
X-0212
X-0207Y-0284
X-0227256Y-030576
X-0234677Y-0364
X-0212177Y-0372323
X-02172Y-03805
X-0181677Y-0364
X-0298177
X-0328677Y-0372323
X-0338677
X-03337Y-03805
X-0286311Y-0306276
X-0212035Y0182965
X-0207Y0241
X-0202Y03005
T02
X-0300276Y-0265748
X-0290276
X-0241221
Y-0206693
X-0290276
X-0300276
Y-0147638
X-0290276
X-0241221
X-0231221
X-0182166
X-0172166
X-0123111
X-0113111
Y-0206693
X-0123111
X-0172166
X-0182166
X-0231221
Y-0265748
X-0182166
X-0172166
X-0123111
X-0113111
X-0064056
X-0054056
X-0005
X0005
X0054055
X0064055
Y-0206693
X0054055
X0005
X-0005
X-0054056
X-0064056
Y-0147638
X-0054056
X-0005
X0005
X0054055
X0064055
X011311
X012311
X0172165
X0182165
Y-0206693
X0172165
X012311
X011311
Y-0265748
X012311
X0172165
X0182165
X023122
X024122
X0290275
X0300275
Y-0206693
X0290275
X024122
X023122
Y-0147638
X024122
X0290275
X0300275
Y-0088583
X0290275
X024122
X023122
Y-0029528
X024122
X0290275
X0300275
Y0029528
X0290275
X024122
X023122
X0182165
X0172165
X012311
X011311
Y-0029528
X012311
X0172165
X0182165
Y-0088583
X0172165
X012311
X011311
X0064055
X0054055
X0005
X-0005
X-0054056
X-0064056
Y-0029528
X-0054056
X-0005
X0005
X0054055
X0064055
Y0029528
X0054055
X0005
X-0005
X-0054056
X-0064056
X-0113111
X-0123111
X-0172166
X-0182166
X-0231221
Y-0029528
X-0182166
X-0172166
X-0123111
X-0113111
Y-0088583
X-0123111
X-0172166
X-0182166
X-0231221
X-0241221
X-0290276
X-0300276
Y-0029528
X-0290276
X-0241221
Y0029528
X-0290276
X-0300276
Y0088583
X-0290276
X-0241221
Y0147638
X-0290276
X-0300276
X-0231221
X-0182166
X-0172166
X-0123111
X-0113111
Y0088583
X-0123111
X-0172166
X-0182166
X-0231221
X-0064056
X-0054056
X-0005
X0005
X0054055
X0064055
Y0147638
X0054055
X0005
X-0005
X-0054056
X-0064056
X011311
X012311
X0172165
X0182165
Y0088583
X0172165
X012311
X011311
X023122
X024122
X0290275
X0300275
Y0147638
X0290275
X024122
X023122
Y0206693
X024122
X0290275
X0300275
Y0265748
X0290275
X024122
X023122
X0182165
X0172165
X012311
X011311
Y0206693
X012311
X0172165
X0182165
X0064055
X0054055
X0005
X-0005
X-0054056
X-0064056
Y0265748
X-0054056
X-0005
X0005
X0054055
X0064055
X-0113111
X-0123111
X-0172166
X-0182166
X-0231221
Y0206693
X-0182166Y0206693
X-0172166
X-0123111
X-0113111
X-0241221Y0206693
X-0290276Y0206693
X-0300276
Y0265748
X-0290276
X-0241221
T03
X-0079724Y-0347441
Y-0329724
X-0054134
Y-0347441
X-0105315
Y-0329724
X-0130905
Y-0347441
T04
X02352Y-03782
X02452
X02552
X02652
X02752
X02852
X02952
X03052
X03152
X03252
X03352
Y-03182
X03252
X03152
X03052
X02952
X02852
X02752
X02652
X02552
X02452
X02352
X02252
X02152
X02052
X01952
Y-03782
X02052
X02152
X02252
T05
X0338583Y-027559
X0Y-030315
X-0338583Y-027559
X0338583Y0011811
X-0338583
X0338583Y0307087
X0
X-0338583
M30
